<?xml version="1.0" ?><svg width="32px" height="32px" viewBox="0 0 32 32" data-name="Layer 5" id="Layer_5" xmlns="http://www.w3.org/2000/svg"><title/><path d="M27.17,17.17A11.11,11.11,0,1,0,8.55,25.35L5,29.7a0.5,0.5,0,1,0,.77.63L9.32,26a11,11,0,0,0,13.53,0L26,30.31a0.5,0.5,0,0,0,.81-0.59L23.61,25.3A11.07,11.07,0,0,0,27.17,17.17Zm-21.22,0A10.11,10.11,0,1,1,16.06,27.29,10.12,10.12,0,0,1,5.94,17.17Z"/><path d="M13.32,4.68h5.36a1.54,1.54,0,0,0,1.54-1.54V3a1.54,1.54,0,0,0-1.54-1.54H13.32A1.54,1.54,0,0,0,11.79,3V3.15A1.54,1.54,0,0,0,13.32,4.68ZM12.79,3a0.54,0.54,0,0,1,.54-0.54h5.36a0.54,0.54,0,0,1,.54.54V3.15a0.54,0.54,0,0,1-.54.54H13.32a0.54,0.54,0,0,1-.54-0.54V3Z"/><path d="M4.87,11.76a4.14,4.14,0,1,1,6-5.69,0.5,0.5,0,0,0,.74-0.67,5.14,5.14,0,1,0-7.45,7.07A0.5,0.5,0,1,0,4.87,11.76Z"/><path d="M29.31,8.27A5.14,5.14,0,0,0,20.4,5.37a0.5,0.5,0,0,0,.74.67,4.14,4.14,0,1,1,6,5.73,0.5,0.5,0,1,0,.7.71A5.12,5.12,0,0,0,29.31,8.27Z"/><path d="M21.31,16.67H16.55L16.5,8.58a0.5,0.5,0,0,0-1,0l0.06,8.59a0.5,0.5,0,0,0,.5.5h5.25A0.5,0.5,0,0,0,21.31,16.67Z"/></svg>