<?xml version="1.0" ?><svg width="32px" height="32px" viewBox="0 0 32 32" data-name="Layer 8" id="Layer_8" xmlns="http://www.w3.org/2000/svg"><title/><path d="M20.84,19.43h-4.5V12.29a0.5,0.5,0,0,0-1,0v7.64a0.5,0.5,0,0,0,.5.5h5A0.5,0.5,0,1,0,20.84,19.43Z"/><path d="M24.37,12.5a1.26,1.26,0,0,0,.81.3h0.11a1.26,1.26,0,0,0,.86-0.44l0.22-.26a1.27,1.27,0,0,0-.15-1.78l-2.48-2.1A1.27,1.27,0,0,0,22,8.36l-0.22.26a1.27,1.27,0,0,0,.15,1.78L22.65,11l-0.44.56a10.43,10.43,0,0,0-5.87-2.15V6.38a2.43,2.43,0,1,0-1,0V9.46A10.51,10.51,0,1,0,23,12.25l0.44-.56ZM14.41,4a1.43,1.43,0,1,1,1.43,1.43A1.43,1.43,0,0,1,14.41,4ZM25.34,19.93a9.5,9.5,0,1,1-9.5-9.5A9.51,9.51,0,0,1,25.34,19.93ZM22.5,9.26L22.72,9a0.26,0.26,0,0,1,.18-0.09h0a0.26,0.26,0,0,1,.17.06l2.48,2.1a0.27,0.27,0,0,1,0,.37l-0.22.26a0.27,0.27,0,0,1-.37,0l-2.48-2.1A0.27,0.27,0,0,1,22.5,9.26Z"/></svg>