<?xml version="1.0" ?><svg width="960px" height="960px" viewBox="0 0 960 960" style="enable-background:new 0 0 960 960;" version="1.1" xml:space="preserve" xmlns="http://www.w3.org/2000/svg" xmlns:xlink="http://www.w3.org/1999/xlink"><style type="text/css">
	.st0{display:none;}
	.st1{display:inline;opacity:0.93;}
	.st2{display:inline;fill:none;stroke:#000000;stroke-width:15;stroke-linecap:round;stroke-linejoin:round;stroke-miterlimit:10;}
	.st3{display:inline;}
	.st4{fill:none;stroke:#000000;stroke-width:15;stroke-linecap:round;stroke-linejoin:round;stroke-miterlimit:10;}
	.st5{display:inline;fill:none;stroke:#1A1D3F;stroke-width:15;stroke-linecap:round;stroke-linejoin:round;stroke-miterlimit:10;}
	.st6{fill:#DDEDE7;}
	.st7{fill:#1A1D3F;}
	.st8{fill:#E9B44D;}
	.st9{fill:#ED644E;}
	.st10{fill:#494EDF;}
	.st11{fill:#3DC5A1;}
	.st12{fill:#F6CEC1;}
	.st13{fill:none;}
	.st14{fill:none;stroke:#1A1D3F;stroke-width:15;stroke-linecap:round;stroke-linejoin:round;stroke-miterlimit:10;}
	.st15{display:inline;fill:#E9B44D;}
	.st16{fill:#222222;}
	.st17{display:inline;fill:#222222;}
</style><g class="st0" id="guide"/><g class="st0" id="sketch"/><g class="st0" id="stroke"><path class="st2" d="M249,820.4c185-156.5,370.7-299.2,564.5-444.6c30-22.5,62.2-48.4,69.6-85.2c10.2-51-35.8-98.2-87.8-99.5   c-49.9-1.2-87.5,52.5-122.4,90.5c-254.2,276.1-280.4,336-462,501.3c-13.8,12.5-36.9,7.5-55.1,11.4c-5.9,1.3-13,3.5-16.8,8.1   c-4,4.8-4.3,11.8-2.2,17.7s7.3,15.5,11.2,20.4c11.4,14.3,19.9,23.9,31.3,38.2c5.8,7.3,13.3,14.8,21.5,19.2c8.2,4.4,19.1,5.1,26.2-1   c7.4-6.4,8.1-17.4,8.2-27.2C235.3,853.2,231.7,835,249,820.4z"/><path class="st2" d="M410.2,687.4c-15.9-18.4-31.8-36.7-47.6-55"/><path class="st2" d="M382,710.3c-13.3-18.6-26.5-37.2-39.8-55.8"/><path class="st2" d="M440.3,228c-16.2-52.5-69.9-91-124.9-89.4c-31.7,0.9-62.9,14.3-85.6,36.5c-42.7,41.7-50.3,114.4-17.1,164   c31.7,47.4,113.1,76.7,166.5,49.3C430.2,362.3,456.4,280.2,440.3,228z"/><path class="st2" d="M439.9,301.7c-30.6-10.6-57.8-30.8-76.6-57.2c-16.5-23.1-27.9-70.8-30.6-105.1"/><path class="st2" d="M340.7,398.7c-6.1-45.5-25.6-89.2-55.6-123.9c-22.4-25.9-50.6-46.8-81.8-61"/><path class="st2" d="M419.9,276.4c-6.8,10.2-13.6,20.4-20.4,30.6"/><path class="st2" d="M389,250.1c-8.7,6.8-17.4,13.5-26.1,20.3"/><path class="st2" d="M366,219c-10.2,1.3-20.5,2.6-30.7,3.9"/><path class="st2" d="M355.4,176.1c-10.5,1.6-21.2,1.6-31.7-0.1"/><path class="st2" d="M351.5,358.8c-14.7,2.7-29.4,5.5-44.1,8.2"/><path class="st2" d="M332.5,318.5c-9.7,4.8-19.5,9.7-29.2,14.5"/><path class="st2" d="M306.8,277.8c-8.4,7.2-16.8,14.4-25.2,21.5"/><path class="st2" d="M276.1,238.7c-6.8,11.1-13.7,22.2-20.5,33.4"/><path class="st2" d="M238,218.2c-4.4,8.8-8.7,17.5-13.1,26.3"/></g><g id="outline"><path d="M285.5,399c15.7,5,31.4,7.4,46.4,7.4c18.6,0,36-3.8,50.6-11.3c25.3-13,47-40.2,59.4-74.6c11.7-32.5,13.8-67.9,5.5-94.7   c-17.2-55.7-74-96.3-132.3-94.7c-33.5,1-66.6,15-90.7,38.6c-21.9,21.4-35.8,51.1-39.2,83.6c-3.4,32.6,4.1,64.5,21.1,89.9   C222.9,368,251.8,388.3,285.5,399z M433.1,230.2c5.4,17.5,5.7,39.3,1.3,61.4c-4.1-1.7-8-3.5-11.9-5.5l3.6-5.5   c2.3-3.4,1.4-8.1-2.1-10.4c-3.4-2.3-8.1-1.4-10.4,2.1l-4.1,6.2c-7.9-5.2-15.4-11.1-22.2-17.6l6.2-4.9c3.3-2.5,3.9-7.3,1.3-10.5   c-2.5-3.3-7.3-3.9-10.5-1.3l-7.4,5.7c-2.7-3.2-5.3-6.4-7.7-9.8c-2.6-3.7-5.2-8.1-7.5-13.1l5.1-0.6c4.1-0.5,7-4.3,6.5-8.4   s-4.3-7-8.4-6.5l-9.2,1.2c-3.2-8.8-6-18.4-8.3-28.2c3-0.2,6-0.5,9-1c4.1-0.6,6.9-4.5,6.3-8.5c-0.6-4.1-4.4-6.9-8.5-6.3   c-3.3,0.5-6.6,0.8-9.9,1c-1.4-7.3-2.5-14.4-3.3-21.2C383.1,157,420.4,189,433.1,230.2z M235,180.5c21.4-20.9,50.8-33.5,80.6-34.3   c1,0,2.1,0,3.1,0c2.3,0,4.7,0.1,7,0.3c0.7,7.3,1.8,14.9,3.2,22.8c-1.4-0.2-2.7-0.3-4.1-0.6c-4.1-0.7-7.9,2.1-8.6,6.2   s2.1,7.9,6.2,8.6c3.2,0.5,6.4,0.9,9.6,1.1c2.4,10.4,5.2,20.6,8.5,30.2l-6.3,0.8c-4.1,0.5-7,4.3-6.5,8.4c0.5,3.8,3.7,6.6,7.4,6.6   c0.3,0,0.6,0,0.9-0.1l10-1.3c3.3,7.6,7,14.4,10.9,19.8c2.5,3.5,5.2,7,8,10.3l-6.9,5.3c-3.3,2.5-3.9,7.3-1.3,10.5   c1.5,1.9,3.7,2.9,5.9,2.9c1.6,0,3.2-0.5,4.6-1.6l7.9-6.1c7.9,7.8,16.5,14.7,25.8,20.8l-7.9,11.8c-2.3,3.4-1.4,8.1,2.1,10.4   c1.3,0.9,2.7,1.3,4.2,1.3c2.4,0,4.8-1.2,6.2-3.3l8.4-12.5c5.4,2.9,11,5.4,16.7,7.7c-0.9,3.1-1.9,6.1-3,9.1   c-11.1,30.9-30.1,55.1-52.1,66.3c-8.6,4.4-18.3,7.3-28.7,8.7c-1.2-7.5-2.8-15-4.8-22.4l10.6-2c4.1-0.8,6.8-4.7,6-8.7   c-0.8-4.1-4.7-6.8-8.7-6l-12.1,2.3c-2.8-8.4-6-16.7-9.7-24.8l7.5-3.7c3.7-1.8,5.2-6.3,3.4-10.1c-1.8-3.7-6.3-5.2-10.1-3.4l-7.4,3.7   c-4.9-9.2-10.3-18.1-16.3-26.7l6.2-5.3c3.1-2.7,3.5-7.4,0.8-10.6c-2.7-3.1-7.4-3.5-10.6-0.8l-5.5,4.7c-1.9-2.3-3.7-4.6-5.7-6.8   c-4.8-5.5-9.9-10.9-15.2-16l6.9-11.3c2.2-3.5,1.1-8.1-2.5-10.3c-3.5-2.2-8.1-1.1-10.3,2.5l-5.5,8.9c-7.1-6-14.5-11.6-22.2-16.8   l2.7-5.3c1.8-3.7,0.3-8.2-3.4-10.1c-3.7-1.9-8.2-0.3-10.1,3.4l-2,4c-5.2-3.1-10.6-5.9-16-8.6C219,199.1,226.3,189,235,180.5z    M200.3,254.9c1.1-10.7,3.5-21.1,7.1-30.9c5.2,2.6,10.3,5.3,15.3,8.3l-4.4,8.8c-1.8,3.7-0.3,8.2,3.4,10.1c1.1,0.5,2.2,0.8,3.3,0.8   c2.8,0,5.4-1.5,6.7-4.2l3.7-7.4c7.3,5,14.4,10.4,21,16.2l-7.1,11.5c-2.2,3.5-1.1,8.1,2.5,10.3c1.2,0.8,2.6,1.1,3.9,1.1   c2.5,0,5-1.3,6.4-3.6l5.5-9c4.1,4.1,8.1,8.3,11.9,12.7c1.9,2.2,3.8,4.5,5.6,6.8l-8.3,7.1c-3.1,2.7-3.5,7.4-0.8,10.6   c1.5,1.7,3.6,2.6,5.7,2.6c1.7,0,3.5-0.6,4.9-1.8l7.5-6.4c5.2,7.5,10,15.4,14.3,23.5l-8.4,4.2c-3.7,1.8-5.2,6.3-3.4,10.1   c1.3,2.6,4,4.2,6.7,4.2c1.1,0,2.3-0.3,3.3-0.8l8.3-4.1c3.1,6.8,5.8,13.8,8.2,20.9l-17.1,3.2c-4.1,0.8-6.8,4.7-6,8.7   c0.7,3.6,3.8,6.1,7.4,6.1c0.5,0,0.9,0,1.4-0.1l18.8-3.5c1.8,6.8,3.3,13.7,4.5,20.6c-13.5,0-27.7-2.2-42-6.8   c-30.1-9.5-56.7-28.1-71.1-49.7C203.9,312.4,197.2,284,200.3,254.9z"/><path d="M798.3,193.4c-46.1-1-81.5,38-112.8,72.4c-5.8,6.3-11.2,12.3-16.6,18C567.9,389.5,502.1,463.1,449.3,522.2   c-81.6,91.3-135.5,151.6-246.5,248.9c-7.2,6.3-18.8,6.8-31.1,7.3c-7,0.3-14.2,0.6-21.1,2c-10,2.1-16.9,5.5-21.2,10.3   c-5.4,6.2-6.8,15.5-3.6,24.3c2.3,6.5,8.1,16.6,12.5,22c5.8,7,10.9,13,15.9,18.7c4.9,5.7,10,11.6,15.7,18.5   c5.3,6.4,13.8,15.2,24,20.6c4.9,2.6,11,4.2,17.1,4.2c6.3,0,12.7-1.8,17.9-6.1c9.8-8.1,10.8-20.7,11-31.9c0-2.6,0-5.2-0.1-7.7   c-0.3-13.4-0.5-25.1,11.5-34.8c0,0,0,0,0,0c194.8-158.8,389-301.7,569.7-432.4c32.8-23.7,65.4-49.9,73.1-87.3   c4.9-23.7-1.6-48-18.4-68.2C856.9,208.1,828,194.1,798.3,193.4z M241.6,807.5c-17.6,14.2-17.2,32-16.9,46.3   c0.1,2.5,0.1,4.9,0.1,7.2c-0.1,8-0.7,16.9-5.7,21c-4.6,3.8-12.5,2.9-17.9,0.1c-6.2-3.2-13.1-9.2-19.4-16.8   c-5.8-7-10.9-13-15.9-18.7c-4.9-5.7-10-11.6-15.7-18.5c-3.4-4.1-8.3-12.7-10.1-17.7c-1.4-3.9-1-8,0.9-10.2   c1.4-1.6,4.7-3.8,12.8-5.5c5.6-1.2,11.9-1.4,18.6-1.7c13.8-0.6,29.3-1.3,40.6-11.1c51.8-45.4,91.2-82.7,126.7-118.9   c10.2,13.8,20.5,27.6,30.7,41.5C327.6,738.1,284.6,772.4,241.6,807.5z M382.2,695.3c-10.6-14.4-21.3-28.7-31.9-43.1   c3.6-3.7,7.2-7.4,10.7-11.1c12.5,13.9,24.9,27.8,37.4,41.6C393,686.9,387.6,691.1,382.2,695.3z M879.4,296.1   c-6.7,32.3-35.7,55.6-67.4,78.5c-128.7,93-264.1,192.2-401.8,299c-13-14.4-25.9-28.9-38.9-43.3c29-30.8,57.1-62.2,89.5-98.4   c52.8-59.1,118.5-132.6,219.3-238.1c5.6-5.8,11.1-11.9,16.9-18.3c30.1-33.1,61.2-67.4,99.6-67.4c0.5,0,1,0,1.4,0   c25.3,0.6,50,12.5,66.1,31.9C877.9,256.7,883.4,276.6,879.4,296.1z"/></g><g class="st0" id="flat"><g class="st3"><g><g><g><g><g><g><g><g><path class="st8" d="M249,820.4c185-156.5,370.7-299.2,564.5-444.6c30-22.5,62.2-48.4,69.6-85.2            c10.2-51-35.8-98.2-87.8-99.5c-49.9-1.2-87.5,52.5-122.4,90.5c-254.2,276.1-280.4,336-462,501.3            c-13.8,12.5-36.9,7.5-55.1,11.4c-5.9,1.3-13,3.5-16.8,8.1c-4,4.8-4.3,11.8-2.2,17.7s7.3,15.5,11.2,20.4            c11.4,14.3,19.9,23.9,31.3,38.2c5.8,7.3,13.3,14.8,21.5,19.2c8.2,4.4,19.1,5.1,26.2-1c7.4-6.4,8.1-17.4,8.2-27.2            C235.3,853.2,231.7,835,249,820.4z"/></g></g></g></g></g></g></g></g><g><g><g><g><g><g><g><g><path class="st9" d="M382,717.8c-2.3,0-4.6-1.1-6.1-3.1l-0.7-1c-13-18.2-26.1-36.5-39.1-54.7c-2.4-3.4-1.6-8.1,1.7-10.5            c3.4-2.4,8.1-1.6,10.5,1.7c13,18.2,26.1,36.5,39.1,54.7l0.7,1c2.4,3.4,1.6,8.1-1.7,10.5C385,717.3,383.5,717.8,382,717.8z            "/></g></g></g></g></g></g></g></g><g><g><g><g><g><g><g><g><path class="st9" d="M410.2,694.9c-2.1,0-4.2-0.9-5.7-2.6c-15.1-17.5-30.3-35-45.4-52.5l-2.2-2.5            c-2.7-3.1-2.4-7.9,0.8-10.6c3.1-2.7,7.9-2.4,10.6,0.8l2.2,2.5c15.2,17.5,30.3,35,45.5,52.5c2.7,3.1,2.4,7.9-0.8,10.6            C413.7,694.3,412,694.9,410.2,694.9z"/></g></g></g></g></g></g></g></g><g><g><g><g><g><g><g><g><path class="st6" d="M440.3,228c-16.2-52.5-69.9-91-124.9-89.4c-31.7,0.9-62.9,14.3-85.6,36.5            c-42.7,41.7-50.3,114.4-17.1,164c31.7,47.4,113.1,76.7,166.5,49.3C430.2,362.3,456.4,280.2,440.3,228z"/></g></g></g></g></g></g></g></g><g><g><g><g><g><g><g><g><path class="st7" d="M442.3,294.6c-6.8-2.3-13.4-5.2-19.8-8.5l3.6-5.5c2.3-3.4,1.4-8.1-2.1-10.4            c-3.4-2.3-8.1-1.4-10.4,2.1l-4.1,6.2c-7.9-5.2-15.4-11.1-22.2-17.6l6.2-4.9c3.3-2.5,3.9-7.3,1.3-10.5            c-2.5-3.3-7.3-3.9-10.5-1.3l-7.4,5.7c-2.7-3.2-5.3-6.4-7.7-9.8c-2.6-3.7-5.2-8.1-7.5-13.1l5.1-0.6c4.1-0.5,7-4.3,6.5-8.4            s-4.3-7-8.4-6.5l-9.2,1.2c-3.2-8.8-6-18.4-8.3-28.2c3-0.2,6-0.5,9-1c4.1-0.6,6.9-4.5,6.3-8.5c-0.6-4.1-4.4-6.9-8.5-6.3            c-3.3,0.5-6.6,0.8-9.9,1c-2-10.8-3.5-21.3-4.2-30.8c-0.3-4.1-3.9-7.2-8.1-6.9c-4.1,0.3-7.2,3.9-6.9,8.1            c0.7,9.1,2,19,3.8,29.1c-1.4-0.2-2.7-0.3-4.1-0.6c-4.1-0.7-7.9,2.1-8.6,6.2s2.1,7.9,6.2,8.6c3.2,0.5,6.4,0.9,9.6,1.1            c2.4,10.4,5.2,20.6,8.5,30.2l-6.3,0.8c-4.1,0.5-7,4.3-6.5,8.4c0.5,3.8,3.7,6.6,7.4,6.6c0.3,0,0.6,0,0.9-0.1l10-1.3            c3.3,7.6,7,14.4,10.9,19.8c2.5,3.5,5.2,7,8,10.3l-6.9,5.3c-3.3,2.5-3.9,7.3-1.3,10.5c1.5,1.9,3.7,2.9,5.9,2.9            c1.6,0,3.2-0.5,4.6-1.6l7.9-6.1c7.9,7.8,16.5,14.7,25.8,20.8l-7.9,11.8c-2.3,3.4-1.4,8.1,2.1,10.4            c1.3,0.9,2.7,1.3,4.2,1.3c2.4,0,4.8-1.2,6.2-3.3l8.4-12.5c7.5,4,15.3,7.4,23.3,10.1c0.8,0.3,1.6,0.4,2.4,0.4            c3.1,0,6-2,7.1-5.1C448.3,300.2,446.2,296,442.3,294.6z"/></g></g></g></g></g></g></g><g><g><g><g><g><g><g><path class="st7" d="M350.1,351.4l-12.1,2.3c-2.8-8.4-6-16.7-9.7-24.8l7.5-3.7c3.7-1.8,5.2-6.3,3.4-10.1            c-1.8-3.7-6.3-5.2-10.1-3.4l-7.4,3.7c-4.9-9.2-10.3-18.1-16.3-26.7l6.2-5.3c3.1-2.7,3.5-7.4,0.8-10.6            c-2.7-3.1-7.4-3.5-10.6-0.8l-5.5,4.7c-1.9-2.3-3.7-4.6-5.7-6.8c-4.8-5.5-9.9-10.9-15.2-16l6.9-11.3            c2.2-3.5,1.1-8.1-2.5-10.3c-3.5-2.2-8.1-1.1-10.3,2.5l-5.5,8.9c-7.1-6-14.5-11.6-22.2-16.8l2.7-5.3            c1.8-3.7,0.3-8.2-3.4-10.1c-3.7-1.9-8.2-0.3-10.1,3.4l-2,4c-7.4-4.4-15-8.3-22.9-11.9c-3.8-1.7-8.2,0-9.9,3.7            s0,8.2,3.7,9.9c7.7,3.5,15.1,7.4,22.4,11.7l-4.4,8.8c-1.8,3.7-0.3,8.2,3.4,10.1c1.1,0.5,2.2,0.8,3.3,0.8            c2.8,0,5.4-1.5,6.7-4.2l3.7-7.4c7.3,5,14.4,10.4,21,16.2l-7.1,11.5c-2.2,3.5-1.1,8.1,2.5,10.3c1.2,0.8,2.6,1.1,3.9,1.1            c2.5,0,5-1.3,6.4-3.6l5.5-9c4.1,4.1,8.1,8.3,11.9,12.7c1.9,2.2,3.8,4.5,5.6,6.8l-8.3,7.1c-3.1,2.7-3.5,7.4-0.8,10.6            c1.5,1.7,3.6,2.6,5.7,2.6c1.7,0,3.5-0.6,4.9-1.8l7.5-6.4c5.2,7.5,10,15.4,14.3,23.5l-8.4,4.2c-3.7,1.8-5.2,6.3-3.4,10.1            c1.3,2.6,4,4.2,6.7,4.2c1.1,0,2.3-0.3,3.3-0.8l8.3-4.1c3.1,6.8,5.8,13.8,8.2,20.9l-17.1,3.2c-4.1,0.8-6.8,4.7-6,8.7            c0.7,3.6,3.8,6.1,7.4,6.1c0.5,0,0.9,0,1.4-0.1l18.8-3.5c2.6,9.5,4.5,19.1,5.8,28.8c0.5,3.8,3.7,6.5,7.4,6.5            c0.3,0,0.7,0,1-0.1c4.1-0.6,7-4.3,6.4-8.4c-1.3-10-3.3-19.8-5.9-29.6l10.6-2c4.1-0.8,6.8-4.7,6-8.7            C358.1,353.3,354.2,350.7,350.1,351.4z"/></g></g></g></g></g></g></g></g></g></g><g class="st0" id="colored_x5F_line"><g class="st3"><path class="st8" d="M249,820.4c185-156.5,370.7-299.2,564.5-444.6c30-22.5,62.2-48.4,69.6-85.2c10.2-51-35.8-98.2-87.8-99.5    c-49.9-1.2-87.5,52.5-122.4,90.5c-254.2,276.1-280.4,336-462,501.3c-13.8,12.5-36.9,7.5-55.1,11.4c-5.9,1.3-13,3.5-16.8,8.1    c-4,4.8-4.3,11.8-2.2,17.7s7.3,15.5,11.2,20.4c11.4,14.3,19.9,23.9,31.3,38.2c5.8,7.3,13.3,14.8,21.5,19.2    c8.2,4.4,19.1,5.1,26.2-1c7.4-6.4,8.1-17.4,8.2-27.2C235.3,853.2,231.7,835,249,820.4z"/></g><g class="st3"><path class="st16" d="M410.2,694.9c-2.1,0-4.2-0.9-5.7-2.6c-15.1-17.5-30.3-35-45.4-52.5l-2.2-2.5c-2.7-3.1-2.4-7.9,0.8-10.6    c3.1-2.7,7.9-2.4,10.6,0.8l2.2,2.5c15.2,17.5,30.3,35,45.5,52.5c2.7,3.1,2.4,7.9-0.8,10.6C413.7,694.3,412,694.9,410.2,694.9z"/></g><g class="st3"><path class="st16" d="M382,717.8c-2.3,0-4.6-1.1-6.1-3.1l-1.7-2.3c-12.7-17.8-25.4-35.6-38.2-53.4c-2.4-3.4-1.6-8.1,1.7-10.5    c3.4-2.4,8.1-1.6,10.5,1.7c12.7,17.8,25.5,35.6,38.2,53.4l1.7,2.3c2.4,3.4,1.6,8.1-1.7,10.5C385,717.3,383.5,717.8,382,717.8z"/></g><path class="st17" d="M447.5,225.8c-17.2-55.7-74-96.3-132.3-94.7c-33.5,1-66.6,15-90.7,38.6c-21.9,21.4-35.8,51.1-39.2,83.6   c-3.4,32.6,4.1,64.5,21.1,89.9c16.5,24.7,45.3,45,79.1,55.7c15.7,5,31.4,7.4,46.4,7.4c18.6,0,36-3.8,50.6-11.3   c25.3-13,47-40.2,59.4-74.6C453.7,288,455.7,252.6,447.5,225.8z M433.1,230.2c5.4,17.5,5.7,39.3,1.3,61.4c-4.1-1.7-8-3.5-11.9-5.5   l3.6-5.5c2.3-3.4,1.4-8.1-2.1-10.4c-3.4-2.3-8.1-1.4-10.4,2.1l-4.1,6.2c-7.9-5.2-15.4-11.1-22.2-17.6l6.2-4.9   c3.3-2.5,3.9-7.3,1.3-10.5c-2.5-3.3-7.3-3.9-10.5-1.3l-7.4,5.7c-2.7-3.2-5.3-6.4-7.7-9.8c-2.6-3.7-5.2-8.1-7.5-13.1l5.1-0.6   c4.1-0.5,7-4.3,6.5-8.4s-4.3-7-8.4-6.5l-9.2,1.2c-3.2-8.8-6-18.4-8.3-28.2c3-0.2,6-0.5,9-1c4.1-0.6,6.9-4.5,6.3-8.5   c-0.6-4.1-4.4-6.9-8.5-6.3c-3.3,0.5-6.6,0.8-9.9,1c-1.4-7.3-2.5-14.4-3.3-21.2C383.1,157,420.4,189,433.1,230.2z M290.1,384.7   c-30.1-9.5-56.7-28.1-71.1-49.7c-15.1-22.5-21.7-51-18.6-80c1.1-10.7,3.5-21.1,7.1-30.9c5.2,2.6,10.3,5.3,15.3,8.3l-4.4,8.8   c-1.8,3.7-0.3,8.2,3.4,10.1c1.1,0.5,2.2,0.8,3.3,0.8c2.8,0,5.4-1.5,6.7-4.2l3.7-7.4c7.3,5,14.4,10.4,21,16.2l-7.1,11.5   c-2.2,3.5-1.1,8.1,2.5,10.3c1.2,0.8,2.6,1.1,3.9,1.1c2.5,0,5-1.3,6.4-3.6l5.5-9c4.1,4.1,8.1,8.3,11.9,12.7c1.9,2.2,3.8,4.5,5.6,6.8   l-8.3,7.1c-3.1,2.7-3.5,7.4-0.8,10.6c1.5,1.7,3.6,2.6,5.7,2.6c1.7,0,3.5-0.6,4.9-1.8l7.5-6.4c5.2,7.5,10,15.4,14.3,23.5l-8.4,4.2   c-3.7,1.8-5.2,6.3-3.4,10.1c1.3,2.6,4,4.2,6.7,4.2c1.1,0,2.3-0.3,3.3-0.8l8.3-4.1c3.1,6.8,5.8,13.8,8.2,20.9l-17.1,3.2   c-4.1,0.8-6.8,4.7-6,8.7c0.7,3.6,3.8,6.1,7.4,6.1c0.5,0,0.9,0,1.4-0.1l18.8-3.5c1.8,6.8,3.3,13.7,4.5,20.6   C318.6,391.5,304.3,389.2,290.1,384.7z M375.7,381.8c-8.6,4.4-18.3,7.3-28.7,8.7c-1.2-7.5-2.8-15-4.8-22.4l10.6-2   c4.1-0.8,6.8-4.7,6-8.7c-0.8-4.1-4.7-6.8-8.7-6l-12.1,2.3c-2.8-8.4-6-16.7-9.7-24.8l7.5-3.7c3.7-1.8,5.2-6.3,3.4-10.1   c-1.8-3.7-6.3-5.2-10.1-3.4l-7.4,3.7c-4.9-9.2-10.3-18.1-16.3-26.7l6.2-5.3c3.1-2.7,3.5-7.4,0.8-10.6c-2.7-3.1-7.4-3.5-10.6-0.8   l-5.5,4.7c-1.9-2.3-3.7-4.6-5.7-6.8c-4.8-5.5-9.9-10.9-15.2-16l6.9-11.3c2.2-3.5,1.1-8.1-2.5-10.3c-3.5-2.2-8.1-1.1-10.3,2.5   l-5.5,8.9c-7.1-6-14.5-11.6-22.2-16.8l2.7-5.3c1.8-3.7,0.3-8.2-3.4-10.1c-3.7-1.9-8.2-0.3-10.1,3.4l-2,4c-5.2-3.1-10.6-5.9-16-8.6   c5.7-11.2,13-21.2,21.7-29.8c21.4-20.9,50.8-33.5,80.6-34.3c1,0,2.1,0,3.1,0c2.3,0,4.7,0.1,7,0.3c0.7,7.3,1.8,14.9,3.2,22.8   c-1.4-0.2-2.7-0.3-4.1-0.6c-4.1-0.7-7.9,2.1-8.6,6.2s2.1,7.9,6.2,8.6c3.2,0.5,6.4,0.9,9.6,1.1c2.4,10.4,5.2,20.6,8.5,30.2l-6.3,0.8   c-4.1,0.5-7,4.3-6.5,8.4c0.5,3.8,3.7,6.6,7.4,6.6c0.3,0,0.6,0,0.9-0.1l10-1.3c3.3,7.6,7,14.4,10.9,19.8c2.5,3.5,5.2,7,8,10.3   l-6.9,5.3c-3.3,2.5-3.9,7.3-1.3,10.5c1.5,1.9,3.7,2.9,5.9,2.9c1.6,0,3.2-0.5,4.6-1.6l7.9-6.1c7.9,7.8,16.5,14.7,25.8,20.8   l-7.9,11.8c-2.3,3.4-1.4,8.1,2.1,10.4c1.3,0.9,2.7,1.3,4.2,1.3c2.4,0,4.8-1.2,6.2-3.3l8.4-12.5c5.4,2.9,11,5.4,16.7,7.7   c-0.9,3.1-1.9,6.1-3,9.1C416.7,346.3,397.7,370.5,375.7,381.8z"/></g></svg>