<?xml version="1.0" ?><svg width="960px" height="960px" viewBox="0 0 960 960" style="enable-background:new 0 0 960 960;" version="1.1" xml:space="preserve" xmlns="http://www.w3.org/2000/svg" xmlns:xlink="http://www.w3.org/1999/xlink"><style type="text/css">
	.st0{display:none;}
	.st1{display:inline;opacity:0.93;}
	.st2{display:inline;fill:none;stroke:#000000;stroke-width:15;stroke-linecap:round;stroke-linejoin:round;stroke-miterlimit:10;}
	.st3{display:inline;}
	.st4{fill:none;stroke:#000000;stroke-width:15;stroke-linecap:round;stroke-linejoin:round;stroke-miterlimit:10;}
	.st5{display:inline;fill:none;stroke:#1A1D3F;stroke-width:15;stroke-linecap:round;stroke-linejoin:round;stroke-miterlimit:10;}
	.st6{fill:#DDEDE7;}
	.st7{fill:#1A1D3F;}
	.st8{fill:#E9B44D;}
	.st9{fill:#ED644E;}
	.st10{fill:#494EDF;}
	.st11{fill:#3DC5A1;}
	.st12{fill:#F6CEC1;}
	.st13{fill:none;}
	.st14{fill:none;stroke:#1A1D3F;stroke-width:15;stroke-linecap:round;stroke-linejoin:round;stroke-miterlimit:10;}
	.st15{display:inline;fill:#E9B44D;}
	.st16{fill:#222222;}
	.st17{display:inline;fill:#222222;}
</style><g class="st0" id="guide"/><g class="st0" id="sketch"/><g class="st0" id="stroke"><path class="st2" d="M563,532.4c46.1-83.1,114.8-191.9,160.9-275.1c-23.3-36.1-46.1-79.2-69.4-115.3   c-121.7-10.3-244.7-8.2-365.7,8.6c-27.6,38.8-50.9,82.1-78.4,120.9c56.3,78.9,135.7,187.8,192,266.7L563,532.4z"/><path class="st2" d="M210.3,271.6c145.3-5.5,360.3-7.7,513.6-14.3"/><path class="st2" d="M288.8,150.7c33.4,35.2,64.3,79.7,97.7,114.9c31.1-39.3,59.1-89,90.2-128.2c27,28.8,85.7,101.6,100.5,123.2   c24.5-42.9,53.9-83,78.7-117.2"/><path class="st2" d="M509.4,534.6c20.6-77.1,42.5-184.8,67.7-275.5"/><path class="st2" d="M384.9,265.7c26.1,82.6,47.7,193.8,74.8,270.3"/><path class="st2" d="M589.3,486.2c31.7,3.4,82,12.5,99,17.8c38.7,12.2,71.1,43.8,58.7,75.4c-12,30.5-55.9,44.2-95.1,51.4   c-107.6,19.7-220.6,20.7-328.8,2.9c-23.7-3.9-47.8-8.9-67.7-19.9c-19.9-11-35-29.2-33.5-48.5c2.4-31.1,43.6-50,80.8-59.9   c8.3-2.2,34.3-7.4,67.4-12.1"/><path class="st2" d="M344.1,636.8c-19.9,30.8-25.9,77.6-13.6,111.5c12.9,35.7,44.5,64.1,81.5,73.1c8.2,2,17.2,3,24.9-0.4   c7.7-3.4,13.4-12.6,10.4-20.5c-3.9-10-16-13-26.1-16.3c-29.3-9.6-47.2-34-50.9-60.2c-3.5-25.3-2-55.4,25.7-81.4"/><path class="st2" d="M622,635.7c23.2,21.2,28,53.6,28.1,79c0.1,39-23.8,67-38.3,80.4c-35.7,32.9-51.8,36.4-63.7,18   c-6.7-10.3-4.8-23.5,20.5-38.4c22.7-13.3,36.1-38.2,38.1-64.5c2-26.3-13.1-53.7-34.9-68.4"/></g><g id="outline"><path d="M752.1,544.1c-9.7-20.3-33.3-38.4-61.6-47.3c-15.7-4.9-57.4-12.7-89-16.8c15.5-26.5,32.1-54.2,48.3-81.3   c28.2-47.2,57.5-96.1,80.6-137.7c1.1-2.4,1.4-4.8-0.3-7.7c-11.6-17.9-23.3-38-34.5-57.4c-10.6-18.2-21.6-37-32.6-54.3   c-0.4-1.6-1.3-3.1-2.8-4.2c-1.3-1.6-3.2-2.7-5.2-2.8c-126-10.6-249.6-7.7-367.4,8.7c-2.5,0.5-3.6,1.3-5.1,3.2   c-13.9,19.6-26.9,40.5-39.4,60.8c-12.4,20.1-25.3,40.8-39,60.1c-1.6,2.6-1.8,5.9,0,8.7c28.1,39.4,62.6,87.1,96,133.3   c18.9,26.2,38.2,52.9,56.5,78.3c-28.5,4.4-49.1,8.6-56.1,10.5c-30.9,8.2-83.3,27.8-86.3,66.6c-1.6,20.6,12.7,41.9,37.4,55.6   c20.9,11.5,46,16.8,70.1,20.8c3.4,0.6,6.8,1.1,10.2,1.6c-16.5,32.3-20.3,76-8.7,108.2c13.9,38.4,47.1,68.2,86.7,77.9   c4.2,1,9.5,2.1,15.1,2.1c4.8,0,9.8-0.7,14.6-2.9c10.7-4.7,19-17.9,14.4-30.1c-4.8-12.4-17.7-16.5-28.1-19.9   c-0.9-0.3-1.8-0.6-2.7-0.9c-24.8-8.2-42.3-28.9-45.8-54.1c-2.9-21.1-3.1-48.3,21.1-72.6c26.6,2.2,53.5,3.3,80.3,3.3   c30.3,0,60.6-1.4,90.6-4.2c19.1,14,31.2,38.4,29.5,60.1c-1.9,25.2-14.8,47.1-34.4,58.6c-15.6,9.2-24.4,18.6-26.9,28.9   c-1.6,6.8-0.3,13.7,3.8,20c5.6,8.6,12.2,13.3,20.1,14.3c1,0.1,2.1,0.2,3.2,0.2c12.8,0,28.2-9.3,51.8-31.1   c15.3-14.1,40.8-44,40.7-85.9c-0.1-30.9-7.1-55.7-20.7-73.7c5.5-0.9,11-1.8,16.4-2.8c57.1-10.5,90-28.8,100.7-56   C758.8,569.8,758.1,556.7,752.1,544.1z M637,391c-18.2,30.5-36.9,61.7-54,91.1c-0.1,0.2-0.2,0.3-0.3,0.5   c-8.5,14.7-16.7,28.9-24.2,42.4l-39.2,1.4c8.4-32.1,16.9-68.8,25.9-107.3c11.7-50.1,23.8-101.9,36.8-149.7   c45.2-1.2,88.9-2.5,128.8-4.1C689,304.2,662.6,348.3,637,391z M503.6,527.1l-38.6,1.4c-14.1-40.9-26.9-91.8-39.4-141.2   c-9.7-38.6-19.8-78.3-30.4-113.4c16-0.4,32.2-0.7,48.6-1.1c40.8-0.9,82.1-1.8,122.4-2.9c-12.6,46.8-24.4,97.1-35.7,145.9   C521.2,456,512.3,494.1,503.6,527.1z M655.1,157.1c9.3,14.9,18.5,30.8,27.6,46.3c9.1,15.7,18.5,31.8,27.9,46.9   c-37.6,1.5-78.6,2.8-121.1,3.9C610.3,219.4,633.9,186.5,655.1,157.1z M642.8,148.6c-21.4,29.6-45.2,62.7-66.3,98.2   c-18.8-25.4-58.6-74.5-84.2-103.4C541.9,142.9,592.1,144.7,642.8,148.6z M563.9,255c-39.7,1-80.3,1.9-120.3,2.8   c-14.3,0.3-28.4,0.6-42.4,1c12.6-16.9,24.8-35.3,36.7-53.1c12.7-19.2,25.9-38.9,39.3-56.6C501.7,176.2,544.3,228.7,563.9,255z    M462.2,144c-12.7,17-24.9,35.4-36.9,53.4c-12.8,19.2-25.9,39-39.4,56.7c-14.5-15.8-28.7-33.5-42.5-50.6   c-12.8-15.9-26-32.2-39.4-47.2C355.7,149.5,408.6,145.5,462.2,144z M255.9,215.1c10.8-17.5,22-35.4,33.7-52.5   c14.3,15.8,28.5,33.2,42.2,50.2c12.6,15.7,25.6,31.7,38.9,46.6c-52.3,1.2-101.6,2.5-145.7,4.1C235.7,247.7,246,231.2,255.9,215.1z    M312.3,400.5c-30.2-41.8-61.3-84.9-87.8-121.9c46.7-1.7,99.4-3,155.2-4.3c11,35.7,21.4,76.8,31.4,116.7   c12.1,47.9,24.6,97.4,38.3,138.1l-43.3,1.6C378.3,491.9,344.8,445.4,312.3,400.5z M364.1,681.9c-3.1,12.8-3.6,26.9-1.3,43.2   c4.3,30.9,25.7,56.3,55.9,66.3c0.9,0.3,1.9,0.6,2.8,0.9c8.1,2.6,16.4,5.3,18.7,11c1.4,3.6-1.7,8.9-6.4,10.9   c-4.9,2.1-11.2,2.1-20.1-0.1c-34.3-8.4-64.2-35.2-76.2-68.4c-10.9-30.2-6.5-71.8,10.4-100.8c10.7,1.5,21.5,2.7,32.4,3.8   C372.5,658.8,367.1,669.9,364.1,681.9z M642.6,714.7c0.1,36.2-22.4,62.4-35.9,74.8c-20.8,19.2-34.9,28.1-42.9,27   c-2.1-0.3-5.4-1.3-9.4-7.6c-2.5-3.9-2.2-6.6-1.8-8.4c1-4.1,5.2-10.8,19.9-19.4c23.9-14,39.5-40.3,41.8-70.4   c1.7-22.4-7.7-46.1-24.2-63.4c9.8-1.1,19.7-2.4,29.4-3.8C634.7,659.2,642.5,683.1,642.6,714.7z M740,576.6   c-8.5,21.7-38.6,37.4-89.5,46.7c-106.4,19.5-219.3,20.5-326.2,2.9c-22.8-3.7-46.5-8.6-65.3-19.1c-19.2-10.6-30.8-26.8-29.7-41.3   c2.4-30.7,53.4-47.4,75.2-53.2c7.8-2.1,31.8-6.8,62.1-11.3c10.4,14.4,20.4,28.3,29.6,41.3c1.4,2,3.7,3.1,6.1,3.1c0.1,0,0.2,0,0.3,0   l160.7-5.9c2.6-0.1,5-1.6,6.3-3.9c7.4-13.3,15.4-27.4,23.8-41.9c30.9,3.6,76.8,12,92.7,17c24.1,7.6,44.7,23.1,52.6,39.5   C742.8,559.4,743.3,568.2,740,576.6z"/></g><g class="st0" id="flat"><g class="st3"><g><g><g><g><g><g><g><g><path class="st8" d="M705.3,505.9c-18.4-5.8-72.7-15.6-107-19.3L361,494.3c-35.8,5.1-64,10.7-72.9,13.1            c-40.2,10.7-84.8,31.2-87.4,64.8c-1.6,20.8,14.8,40.5,36.3,52.4c21.5,11.9,47.6,17.3,73.3,21.5            c117,19.3,239.2,18.2,355.7-3.1c42.4-7.8,89.9-22.6,102.8-55.6C782.2,553.3,747.1,519.1,705.3,505.9z"/></g></g></g></g></g></g></g></g><g><g><g><g><g><g><g><g><path class="st9" d="M569.7,536.7c49.9-89.9,124.2-207.6,174.1-297.5c-25.2-39.1-49.9-85.6-75.1-124.7            c-131.6-11.1-264.7-8.9-395.6,9.3c-29.8,42-55,88.8-84.8,130.8c60.9,85.3,146.8,203.1,207.7,288.4L569.7,536.7z"/></g></g></g></g></g></g></g></g><g><g><g><g><g><g><g><g><g><path class="st8" d="M416.3,809.1c-31.7-10.4-51.1-36.7-55-65.1c-3.8-27.4-2.1-59.9,27.8-88l-56.1-6.4             c-21.5,33.3-28,83.9-14.7,120.6c14,38.7,48.2,69.4,88.1,79.1c8.9,2.2,18.6,3.3,26.9-0.4c8.4-3.7,14.5-13.6,11.2-22.2             C440.4,816,427.3,812.7,416.3,809.1z"/></g></g></g></g></g></g></g></g><g><g><g><g><g><g><g><g><path class="st8" d="M633.5,648.4l-54.3,6.7c23.6,15.9,39.9,45.6,37.8,74c-2.2,28.4-16.6,55.4-41.2,69.8             c-27.4,16-29.4,30.4-22.2,41.5c12.9,19.9,30.4,16.1,68.9-19.5c15.6-14.4,41.6-44.7,41.4-86.9             C663.9,706.4,658.6,671.4,633.5,648.4z"/></g></g></g></g></g></g></g></g></g><g><g><g><g><g><g><g><g><path class="st7" d="M743.5,231.7c-44.7,1.9-94.4,3.5-146.1,4.8c23.2-39.2,49.8-76,73.4-108.7l5.5-7.6            c2.4-3.4,1.7-8-1.7-10.5c-3.4-2.4-8-1.7-10.5,1.7l-5.5,7.6c-23.8,33-50.6,70-74.2,109.8c-23-31.1-76.6-96.9-102.5-124.6            c-1.5-1.6-3.6-2.5-5.8-2.4c-2.2,0.1-4.2,1.1-5.6,2.8c-17,21.5-33.4,46.1-49.2,69.9c-14,21-28.3,42.6-43.1,61.9            c-15.8-17.3-31.4-36.6-46.5-55.3c-17.2-21.3-35-43.3-53.2-62.6c-2.8-3-7.6-3.1-10.6-0.3c-3,2.8-3.1,7.6-0.3,10.6            c17.9,18.8,35.4,40.6,52.5,61.7c13.9,17.3,28.3,35,42.9,51.4c-63.5,1.5-123,3.1-175.1,5.1c-4.1,0.2-7.4,3.6-7.2,7.8            c0.2,4,3.5,7.2,7.5,7.2c0.1,0,0.2,0,0.3,0c54.3-2.1,116.7-3.7,183.4-5.2c11.9,38.7,23.2,83.4,34.1,126.7            c14.1,55.9,28.7,113.8,44.9,159.5c1.1,3.1,4,5,7.1,5c0.8,0,1.7-0.1,2.5-0.4c3.9-1.4,6-5.7,4.6-9.6            c-16-45.1-30.5-102.6-44.5-158.2c-10.6-42-21.5-85.3-33.1-123.4c17.5-0.4,35.4-0.8,53.4-1.2c44.4-1,89.3-2,133.2-3.1            c-13.7,50.9-26.5,105.5-38.9,158.6c-10.7,46-20.9,89.4-30.7,126.4c-1.1,4,1.3,8.1,5.3,9.2c0.6,0.2,1.3,0.3,1.9,0.3            c3.3,0,6.3-2.2,7.2-5.6c9.9-37.3,20.1-80.8,30.9-126.9c12.7-54.4,25.8-110.5,39.9-162.4c54.6-1.4,107.2-3.1,154.3-5.1            c4.1-0.2,7.4-3.7,7.2-7.8C751.1,234.7,747.7,231.5,743.5,231.7z M440.6,240.3c-15.9,0.4-31.6,0.7-47.1,1.1            c13.9-18.6,27.3-38.8,40.4-58.4c13.9-21,28.3-42.6,43-61.9c26.7,29.6,74,87.8,95,116.2            C528.7,238.3,484.3,239.3,440.6,240.3z"/></g></g></g></g></g></g></g><g><g><g><g><g><g><g><path class="st7" d="M664.6,635.6c-115.2,21.1-237.3,22.2-353.1,3.1c-4.1-0.7-7.9,2.1-8.6,6.2c-0.7,4.1,2.1,7.9,6.2,8.6            c55.7,9.2,112.8,13.7,169.9,13.7c63.4,0,126.8-5.6,188.3-16.9c4.1-0.7,6.8-4.7,6-8.7C672.6,637.6,668.7,634.9,664.6,635.6            z"/></g></g></g></g></g></g></g></g></g></g><g class="st0" id="colored_x5F_line"><g class="st3"><path class="st8" d="M563,532.4c46.1-83.1,114.8-191.9,160.9-275.1c-23.3-36.1-46.1-79.2-69.4-115.3    c-121.7-10.3-244.7-8.2-365.7,8.6c-27.6,38.8-50.9,82.1-78.4,120.9c56.3,78.9,135.7,187.8,192,266.7L563,532.4z"/></g><path class="st17" d="M723.6,249.9c-41.1,1.7-86.7,3.2-134.1,4.5c21.4-35.9,45.7-69.6,67.4-99.6l5.1-7c2.4-3.4,1.7-8-1.7-10.5   c-3.4-2.4-8-1.7-10.5,1.7l-5.1,7c-21.9,30.3-46.5,64.3-68.2,100.8c-21.5-29-70.5-89.1-94.3-114.6c-1.5-1.6-3.6-2.5-5.8-2.4   c-2.2,0.1-4.2,1.1-5.6,2.8c-15.7,19.9-30.9,42.6-45.5,64.6c-12.8,19.2-25.9,39-39.4,56.7c-14.5-15.8-28.7-33.5-42.5-50.6   c-15.9-19.7-32.3-40.1-49.3-57.9c-2.8-3-7.6-3.1-10.6-0.3c-3,2.8-3.1,7.6-0.3,10.6c16.5,17.4,32.8,37.5,48.5,57   c12.7,15.7,25.7,31.8,39,46.7c-58.3,1.4-112.9,2.8-160.7,4.6c-4.1,0.2-7.4,3.6-7.2,7.8c0.2,4,3.5,7.2,7.5,7.2c0.1,0,0.2,0,0.3,0   c50.1-1.9,107.7-3.4,169.2-4.8c11,35.6,21.3,76.8,31.4,116.6c13,51.7,26.5,105.2,41.5,147.5c1.1,3.1,4,5,7.1,5   c0.8,0,1.7-0.1,2.5-0.4c3.9-1.4,6-5.7,4.6-9.6c-14.7-41.7-28.1-94.8-41.1-146.2C416,348.7,406,309,395.3,273.9   c16-0.4,32.2-0.7,48.6-1.1c40.7-0.9,82.1-1.8,122.4-2.9c-12.6,46.8-24.3,97-35.7,145.8c-9.9,42.5-19.3,82.6-28.4,116.9   c-1.1,4,1.3,8.1,5.3,9.2c0.6,0.2,1.3,0.3,1.9,0.3c3.3,0,6.3-2.2,7.2-5.6c9.2-34.5,18.6-74.7,28.5-117.3   C556.9,369,569,317.3,582,269.5c50.4-1.3,98.8-2.8,142.3-4.7c4.1-0.2,7.4-3.7,7.2-7.8C731.2,252.9,727.7,249.7,723.6,249.9z    M443.6,257.8c-14.3,0.3-28.5,0.6-42.5,1c12.6-16.9,24.8-35.3,36.7-53.2c12.7-19.2,25.9-38.9,39.3-56.6   c24.5,27.3,67.2,79.8,86.8,106.1C524.3,256,483.6,256.9,443.6,257.8z"/><path class="st17" d="M752.1,544.1c-9.7-20.3-33.3-38.4-61.6-47.3c-17.7-5.6-68.4-14.7-100.4-18.1c-4.1-0.4-7.8,2.5-8.2,6.7   c-0.4,4.1,2.5,7.8,6.7,8.2c30.7,3.3,80.8,12.3,97.5,17.5c24.1,7.6,44.7,23.1,52.6,39.5c4.2,8.9,4.7,17.6,1.4,26   c-8.5,21.7-38.6,37.4-89.5,46.7c-106.4,19.5-219.3,20.5-326.2,2.9c-22.8-3.7-46.5-8.6-65.3-19.1c-19.2-10.6-30.8-26.8-29.7-41.3   c2.4-30.7,53.4-47.4,75.2-53.2c8.2-2.2,34.2-7.3,66.6-11.9c4.1-0.6,6.9-4.4,6.4-8.5c-0.6-4.1-4.4-6.9-8.5-6.4   c-34.8,5-60.3,10.2-68.3,12.3c-30.9,8.2-83.3,27.8-86.3,66.6c-1.6,20.6,12.7,41.9,37.4,55.6c20.9,11.5,46,16.8,70.1,20.8   c3.4,0.6,6.8,1.1,10.2,1.6c-16.5,32.3-20.3,76-8.7,108.2c13.9,38.4,47.1,68.2,86.7,77.9c4.2,1,9.5,2.1,15.1,2.1   c4.8,0,9.8-0.7,14.6-2.9c10.7-4.7,19-17.9,14.4-30.1c-4.8-12.4-17.7-16.5-28.1-19.9c-0.9-0.3-1.8-0.6-2.7-0.9   c-24.8-8.2-42.3-28.9-45.8-54.1c-2.9-21.1-3.1-48.3,21.1-72.6c26.6,2.2,53.5,3.3,80.3,3.3c30.3,0,60.6-1.4,90.6-4.2   c19.1,14,31.2,38.4,29.5,60.1c-1.9,25.2-14.8,47.1-34.4,58.6c-15.6,9.2-24.4,18.6-26.9,28.9c-1.6,6.8-0.3,13.7,3.8,20   c5.6,8.6,12.2,13.3,20.1,14.3c1,0.1,2.1,0.2,3.2,0.2c12.8,0,28.2-9.3,51.8-31.1c15.3-14.1,40.8-44,40.7-85.9   c-0.1-30.9-7.1-55.7-20.7-73.7c5.5-0.9,11-1.8,16.4-2.8c57.1-10.5,90-28.8,100.7-56C758.8,569.8,758.1,556.7,752.1,544.1z    M364.1,681.9c-3.1,12.8-3.6,26.9-1.3,43.2c4.3,30.9,25.7,56.3,55.9,66.3c0.9,0.3,1.9,0.6,2.8,0.9c8.1,2.6,16.4,5.3,18.7,11   c1.4,3.6-1.7,8.9-6.4,10.9c-4.9,2.1-11.2,2.1-20.1-0.1c-34.3-8.4-64.2-35.2-76.2-68.4c-10.9-30.2-6.5-71.8,10.4-100.8   c10.7,1.5,21.5,2.7,32.4,3.8C372.5,658.8,367.1,669.9,364.1,681.9z M642.6,714.7c0.1,36.2-22.4,62.4-35.9,74.8   c-20.8,19.2-34.9,28.1-42.9,27c-2.1-0.3-5.4-1.3-9.4-7.6c-2.5-3.9-2.2-6.6-1.8-8.4c1-4.1,5.2-10.8,19.9-19.4   c23.9-14,39.5-40.3,41.8-70.4c1.7-22.4-7.7-46.1-24.2-63.4c9.8-1.1,19.7-2.4,29.4-3.8C634.7,659.2,642.5,683.1,642.6,714.7z"/></g></svg>