<?xml version="1.0" ?><svg width="960px" height="960px" viewBox="0 0 960 960" style="enable-background:new 0 0 960 960;" version="1.1" xml:space="preserve" xmlns="http://www.w3.org/2000/svg" xmlns:xlink="http://www.w3.org/1999/xlink"><style type="text/css">
	.st0{display:none;}
	.st1{display:inline;opacity:0.93;}
	.st2{display:inline;fill:none;stroke:#000000;stroke-width:15;stroke-linecap:round;stroke-linejoin:round;stroke-miterlimit:10;}
	.st3{display:inline;}
	.st4{fill:none;stroke:#000000;stroke-width:15;stroke-linecap:round;stroke-linejoin:round;stroke-miterlimit:10;}
	.st5{display:inline;fill:none;stroke:#1A1D3F;stroke-width:15;stroke-linecap:round;stroke-linejoin:round;stroke-miterlimit:10;}
	.st6{fill:#DDEDE7;}
	.st7{fill:#1A1D3F;}
	.st8{fill:#E9B44D;}
	.st9{fill:#ED644E;}
	.st10{fill:#494EDF;}
	.st11{fill:#3DC5A1;}
	.st12{fill:#F6CEC1;}
	.st13{fill:none;}
	.st14{fill:none;stroke:#1A1D3F;stroke-width:15;stroke-linecap:round;stroke-linejoin:round;stroke-miterlimit:10;}
	.st15{display:inline;fill:#E9B44D;}
	.st16{fill:#222222;}
	.st17{display:inline;fill:#222222;}
</style><g class="st0" id="guide"/><g class="st0" id="sketch"/><g class="st0" id="stroke"><g class="st3"><path class="st4" d="M219.6,280.6c-19,0.2-40.2,1.5-56.3,11.7c-27.6,17.4-31.8,35.5-34.9,68c-3.9,40.9-0.6,172-0.9,228.4    c-0.1,22.5,3.7,56.4,19.5,72.3c14.1,14.3,36.5,15.3,56.6,15.5c197.1,1.3,371.7,2.2,568.8,3.5c17.9,0.1,39.9-2.3,50.5-16.8    c7-9.6,8.7-30.7,8.7-42.6c0.1-63.6,1.8-205.7,1.9-269.3c0-13.1-3.4-32.8-10.1-44c-12.9-21.4-45.7-25.8-70.7-25.6    C571.9,283.5,430.9,278.2,219.6,280.6z"/><path class="st4" d="M215.7,458c0.3-16.5,0.6-29.5,0.9-46.1c11.4,0,55.4,1.2,55.4,1.2s0,31.8,0.3,43.1c14.8,0.1,29.5-0.2,44.4-0.1    c0.9,15.5,0.6,31,1.4,46.5c-16.6-0.2-30.9-0.4-47.5-0.6c0.2,14.1-0.2,31.9,0,46c-18.3-0.7-36.6-0.3-55-1    c0.3-13.4,0.6-29.2,0.9-42.6c-12.1-0.7-46.9,0-46.9,0l0-46.6C169.6,458,203.4,458.3,215.7,458z"/><path class="st4" d="M617.1,599.7c-2.4-70.1-0.1-171.3-2.5-241.2c-0.2-7-6-12.5-13-12.5c-82.7,0.1-133.3,0.9-233.8,1.9    c-7.1,0.1-12.9,5.8-12.9,12.9c-0.3,70.5-0.6,169-0.8,239.5c0,7.2,5.8,13,13,13c87.3,0.1,156.2,1.6,237.4-0.3    C611.7,613,617.4,606.9,617.1,599.7z"/><g><path class="st4" d="M660,444.7c-0.1,8.7,4.3,17.3,11.6,22c7.3,4.7,17.1,5.1,24.7,0.9c7.6-4.2,12.4-13,11.6-21.6     c-0.6-6.3-3.9-12.3-8.8-16.4C684.8,417.5,660.4,424,660,444.7z"/><path class="st4" d="M746.4,414.7c-3.5,6.9-3.7,15.6-0.1,22.5c5.3,10.3,19,15.3,29.7,11c10.7-4.3,17-17.4,13.8-28.5     C783.8,399.7,755.9,396,746.4,414.7z"/><path class="st4" d="M662,524.9c-3.6,7.1-2.6,16.2,2,22.6c4.7,6.5,12.7,10.2,20.7,9.9c8.9-0.3,17.5-5.7,21.3-13.7     c3.9-8,2.7-18.3-3.2-24.9C692.2,506.8,669.1,510.8,662,524.9z"/><path class="st4" d="M749.4,501.9c-4.1,7.7-4,17.5,0.4,25c4.5,7.5,13.3,12.2,22,11.5c11.9-1.1,21.6-12.8,21.1-24.8     c-0.5-10.9-7.2-17.8-16.6-22.2C766,486.5,754.5,492.2,749.4,501.9z"/></g></g></g><g id="outline"><path d="M754.8,274.2c-0.7,0-1.4,0-2.2,0c-85.2,0.8-160.7,0.1-240.7-0.7c-88.8-0.9-180.7-1.7-292.4-0.5c-21.1,0.2-43,2-60.2,12.9   c-31.1,19.7-35.2,40.9-38.4,73.6c-2.8,28.5-2,98.1-1.4,159.5c0.3,26.7,0.5,52,0.4,69.5c-0.3,50,15,71,21.6,77.7   c15.9,16.1,39.3,17.6,61.9,17.7c98.6,0.7,193,1.2,284.4,1.8c91.4,0.5,185.8,1.1,284.4,1.8c0.4,0,0.8,0,1.2,0   c27.5,0,45.7-6.5,55.4-19.9c9.3-12.8,10.1-39.2,10.1-47c0.1-31.8,0.5-84,1-134.6c0.5-50.6,0.9-102.9,1-134.7   c0-14.5-3.8-35.6-11.2-47.9C821.8,290.1,802.2,274.2,754.8,274.2z M825.1,485.9c-0.5,50.6-0.9,102.9-1,134.7   c0,14.1-2.3,31.4-7.2,38.2c-6.7,9.2-20.9,13.7-43.3,13.7c-0.4,0-0.8,0-1.2,0c-98.6-0.7-193-1.2-284.4-1.8   c-91.4-0.5-185.8-1.1-284.4-1.8c-19.5-0.1-39.5-1.3-51.3-13.3c-13-13.1-17.5-43.2-17.3-67c0.1-17.7-0.2-43-0.4-69.8   c-0.6-58-1.3-130.2,1.3-157.9c3-31.4,6.9-46.8,31.5-62.3c14.1-8.9,33.5-10.3,52.4-10.5c40.2-0.5,77.8-0.6,113.6-0.6   c63.6,0,121.7,0.6,178.4,1.1c80,0.8,155.6,1.5,241,0.7c19-0.2,52.4,2.4,64.2,21.9c5.7,9.5,9.1,27.8,9.1,40.1   C826,383.1,825.5,435.4,825.1,485.9z M324.9,479.3c-0.1-7.7-0.3-15.6-0.7-23.5c-0.2-4-3.5-7-7.4-7.1c-7.5-0.1-15,0-22.3,0   c-4.8,0-9.8,0.1-14.7,0.1c-0.1-13.8-0.2-35.4-0.2-35.7c0-4.1-3.2-7.4-7.3-7.5c-1.8,0-44.3-1.2-55.6-1.2c0,0,0,0,0,0   c-4.1,0-7.4,3.3-7.5,7.4c-0.1,8.3-0.3,15.6-0.4,23c-0.1,5.2-0.2,10.3-0.3,15.8c-14.7,0.1-38.4-0.1-38.7-0.1c-2-0.1-3.9,0.8-5.4,2.2   s-2.2,3.3-2.2,5.3l0,46.6c0,2,0.8,3.9,2.3,5.4s3.4,2.2,5.4,2.1c0.3,0,24.4-0.5,39.1-0.2c-0.1,4.5-0.2,9.2-0.3,13.9   c-0.1,7.3-0.3,14.6-0.4,21.3c-0.1,4.1,3.1,7.5,7.2,7.7c9.3,0.4,18.7,0.4,27.7,0.5c8.9,0.1,18.2,0.1,27.2,0.5c0.1,0,0.2,0,0.3,0   c2,0,3.8-0.8,5.2-2.1c1.5-1.4,2.3-3.4,2.3-5.5c-0.1-7,0-15.1,0-22.9c0-5.2,0.1-10.4,0.1-15.5c5.5,0.1,10.8,0.1,16.1,0.2   c7.7,0.1,15.4,0.2,23.8,0.3c0,0,0.1,0,0.1,0c2,0,4-0.8,5.4-2.3c1.4-1.5,2.2-3.5,2.1-5.6C325.2,494.7,325,486.9,324.9,479.3z    M294.4,494.9c-7.7-0.1-15.4-0.2-23.8-0.3c-2.1,0-4,0.8-5.4,2.2c-1.4,1.4-2.2,3.4-2.2,5.4c0.1,7,0,15.1,0,22.9   c0,5.1-0.1,10.3-0.1,15.3c-6.7-0.2-13.4-0.2-19.9-0.3c-6.5,0-13.2-0.1-19.9-0.3c0.1-4.5,0.2-9.2,0.3-13.9   c0.1-7.3,0.3-14.6,0.4-21.3c0.1-4-3-7.4-7.1-7.6c-8.8-0.5-28.8-0.3-39.8-0.1l0-31.4c10.7,0.1,30,0.2,38.8-0.1   c4-0.1,7.2-3.3,7.3-7.4c0.1-8.3,0.3-15.6,0.4-23c0.1-5.1,0.2-10.2,0.3-15.6c11.6,0.2,30.3,0.7,40.6,1c0,10.1,0.1,28,0.3,36   c0.1,4.1,3.4,7.3,7.4,7.3c7.5,0.1,15,0,22.3,0c4.9,0,10-0.1,15-0.1c0.2,5.3,0.3,10.7,0.4,15.9c0.1,5.1,0.2,10.3,0.4,15.5   C304.9,495,299.6,495,294.4,494.9z M622.1,358.2c-0.4-11.1-9.4-19.8-20.5-19.8c0,0,0,0,0,0c-60,0.1-102.2,0.5-160.5,1.2   c-21.8,0.2-45.7,0.5-73.3,0.8c-11.2,0.1-20.3,9.3-20.3,20.4c-0.1,35.3-0.3,77.6-0.4,119.9c-0.1,42.2-0.3,84.4-0.4,119.7   c0,5.5,2.1,10.6,6,14.5c3.9,3.9,9,6,14.5,6c26,0,50.3,0.2,73.8,0.4c25,0.2,49.4,0.3,74,0.3c29.2,0,58.7-0.2,89.8-0.9   c5.5-0.1,10.6-2.4,14.4-6.4c3.8-4,5.8-9.3,5.6-14.8c-1.2-34.8-1.2-78.1-1.2-120.1C623.3,437.1,623.3,393.4,622.1,358.2z    M609.6,599.9c0.1,1.5-0.5,2.9-1.5,4c-1,1.1-2.4,1.7-3.9,1.7c-56.9,1.3-108.6,1-163.3,0.6c-23.5-0.2-47.9-0.3-73.9-0.4   c-1.5,0-2.9-0.6-3.9-1.6c-1-1-1.6-2.4-1.6-3.9c0.1-35.2,0.3-77.4,0.4-119.7c0.1-42.3,0.3-84.6,0.4-119.9c0-3,2.5-5.4,5.5-5.5   c27.7-0.3,51.5-0.5,73.3-0.8c58.3-0.6,100.5-1.1,160.4-1.2c0,0,0,0,0,0c3,0,5.4,2.3,5.5,5.3c1.2,34.9,1.2,78.5,1.3,120.6   C608.4,521.4,608.4,564.9,609.6,599.9C609.6,599.9,609.6,599.9,609.6,599.9z M667.6,473c5.2,3.3,11.2,5,17.2,5   c5.3,0,10.5-1.3,15.2-3.9c10.2-5.7,16.4-17.3,15.4-28.8c-0.7-8.1-4.9-15.9-11.4-21.5c-9.6-8.1-23.6-10.1-34.9-5   c-10.2,4.6-16.4,14.3-16.5,25.7C652.4,455.8,658.3,467,667.6,473z M667.5,444.8c0.1-7.3,4.3-10.7,7.8-12.3c2.2-1,4.7-1.5,7.1-1.5   c4.2,0,8.5,1.5,11.9,4.3c3.5,2.9,5.8,7.2,6.2,11.3c0.5,5.6-2.8,11.6-7.8,14.4c-5.1,2.9-11.9,2.6-17-0.7   C670.7,457.1,667.5,451,667.5,444.8C667.5,444.8,667.5,444.8,667.5,444.8z M767.6,457.3c3.8,0,7.6-0.7,11.1-2.1   c14.4-5.8,22.6-22.7,18.1-37.6c-3.7-12.4-14.5-21.2-27.5-22.4c-12.6-1.2-24,5-29.7,16.2v0c-4.7,9.2-4.7,20.4-0.1,29.4   C745,451,756.3,457.3,767.6,457.3z M753,418.1L753,418.1c2.9-5.6,8.5-8.6,15-8c5.2,0.5,12.2,3.8,14.5,11.7   c2.2,7.4-2.2,16.5-9.4,19.4c-7.2,2.9-16.6-0.6-20.2-7.5C750.5,429.1,750.6,423,753,418.1z M680.9,504.5c-11.3,1.5-21.1,8-25.6,17.1   c-4.8,9.6-3.8,21.5,2.6,30.4c5.8,8.1,15.7,13,25.9,13c0.4,0,0.8,0,1.2,0c11.8-0.4,22.7-7.5,27.8-17.9c5.2-10.7,3.4-24.4-4.3-33.1   C702,506.6,691.7,503.1,680.9,504.5z M699.3,540.5c-2.6,5.4-8.6,9.2-14.8,9.5c-5.6,0.2-11.2-2.5-14.3-6.8   c-3.1-4.3-3.7-10.4-1.4-14.9c2.3-4.7,7.7-8.1,14.1-8.9c5.9-0.8,11.3,0.9,14.4,4.4C701,528.1,701.9,535.1,699.3,540.5z M779.4,484.5   c-13.2-6.1-29.3-0.1-36.7,13.8c-5.3,10.1-5.1,22.8,0.6,32.4c5.6,9.3,16,15.2,26.6,15.2c0.8,0,1.7,0,2.5-0.1   c15.9-1.4,28.7-16.3,27.9-32.6C800,504.4,796,492.2,779.4,484.5z M771.1,530.9c-5.7,0.5-11.8-2.7-14.9-7.8   c-3-5.1-3.1-12.2-0.2-17.7c3.2-6,10.4-10.3,17.1-7.2c10.6,4.9,12.1,11.3,12.3,15.7C785.8,522.1,779,530.2,771.1,530.9z"/></g><g class="st0" id="flat"><g class="st3"><g><g><g><g><g><g><g><g><path class="st8" d="M219.6,280.6c-19,0.2-40.2,1.5-56.3,11.7c-27.6,17.4-31.8,35.5-34.9,68c-3.9,40.9-0.6,172-0.9,228.4            c-0.1,22.5,3.7,56.4,19.5,72.3c14.1,14.3,36.5,15.3,56.6,15.5c197.1,1.3,371.7,2.2,568.8,3.5c17.9,0.1,39.9-2.3,50.5-16.8            c7-9.6,8.7-30.7,8.7-42.6c0.1-63.6,1.8-205.7,1.9-269.3c0-13.1-3.4-32.8-10.1-44c-12.9-21.4-45.7-25.8-70.7-25.6            C571.9,283.5,430.9,278.2,219.6,280.6z"/></g></g></g></g></g></g></g></g><g><g><g><g><g><g><g><g><path class="st7" d="M322.4,479.4c-0.1-7.7-0.3-15.6-0.7-23.4c-0.1-2.6-2.3-4.7-5-4.7c-7.4-0.1-15,0-22.2,0            c-5.6,0-11.5,0.1-17.2,0c-0.2-13.5-0.2-37.9-0.2-38.2c0-2.7-2.2-4.9-4.9-5c-1.8,0-44.2-1.2-55.6-1.2c0,0,0,0,0,0            c-2.7,0-5,2.2-5,4.9c-0.1,8.3-0.3,15.6-0.4,23c-0.1,5.9-0.2,11.8-0.3,18.2c-14.4,0.2-40.9-0.1-41.2-0.1            c-1.3,0-2.6,0.5-3.6,1.4c-0.9,0.9-1.5,2.2-1.5,3.6l0,46.6c0,1.3,0.5,2.6,1.5,3.6c1,0.9,2.3,1.4,3.6,1.4            c0.3,0,27.3-0.5,41.7-0.2c-0.1,5.3-0.2,10.8-0.3,16.4c-0.1,7.3-0.3,14.6-0.4,21.3c-0.1,2.7,2.1,5,4.8,5.1            c9.2,0.4,18.6,0.4,27.6,0.5c9,0.1,18.2,0.1,27.3,0.5c0.1,0,0.1,0,0.2,0c1.3,0,2.6-0.5,3.5-1.4c1-1,1.5-2.3,1.5-3.6            c-0.1-7,0-15.1,0-22.9c0-6,0.1-12.2,0-18c6.5,0.1,12.6,0.2,18.8,0.2c7.7,0.1,15.3,0.2,23.6,0.3c1.4,0,2.7-0.5,3.7-1.5            s1.5-2.4,1.4-3.7C322.7,494.8,322.5,486.9,322.4,479.4z"/></g></g></g></g></g></g></g></g><g><g><g><g><g><g><g><g><path class="st6" d="M617.1,599.7c-2.4-70.1-0.1-171.3-2.5-241.2c-0.2-7-6-12.5-13-12.5c-82.7,0.1-133.3,0.9-233.8,1.9            c-7.1,0.1-12.9,5.8-12.9,12.9c-0.3,70.5-0.6,169-0.8,239.5c0,7.2,5.8,13,13,13c87.3,0.1,156.2,1.6,237.4-0.3            C611.7,613,617.4,606.9,617.1,599.7z"/></g></g></g></g></g></g></g></g><g><g><g><g><g><g><g><g><path class="st7" d="M514.8,621.6c-24.6,0-49-0.2-74-0.3c-23.5-0.2-47.8-0.3-73.8-0.4c-5.5,0-10.6-2.2-14.5-6            c-3.9-3.9-6-9-6-14.5c0.1-35.2,0.3-77.4,0.4-119.7c0.1-42.3,0.3-84.6,0.4-119.9c0-11.1,9.2-20.3,20.3-20.4            c27.6-0.3,51.5-0.5,73.3-0.8c58.4-0.6,100.6-1.1,160.5-1.2c0,0,0,0,0,0c11.1,0,20.1,8.7,20.5,19.8            c1.2,35.2,1.3,78.9,1.3,121.2c0,41.9,0,85.2,1.2,120.1l0,0c0.2,5.5-1.8,10.8-5.6,14.8c-3.8,4-8.9,6.3-14.4,6.4            C573.5,621.3,544.1,621.6,514.8,621.6z M601.6,353.4C601.6,353.4,601.6,353.4,601.6,353.4c-59.9,0.1-102.1,0.5-160.4,1.2            c-21.8,0.2-45.7,0.5-73.3,0.8c-3,0-5.4,2.5-5.5,5.5c-0.1,35.3-0.3,77.6-0.4,119.9c-0.1,42.2-0.3,84.4-0.4,119.7            c0,1.5,0.6,2.9,1.6,3.9c1,1,2.4,1.6,3.9,1.6c26,0,50.3,0.2,73.9,0.4c54.7,0.4,106.4,0.7,163.3-0.6c1.5,0,2.8-0.6,3.9-1.7            c1-1.1,1.5-2.5,1.5-4c0,0,0,0,0,0c-1.2-35.1-1.2-78.5-1.3-120.6c0-42.1,0-85.7-1.3-120.6            C607,355.8,604.6,353.4,601.6,353.4z"/></g></g></g></g></g></g></g></g><g><g><g><g><g><g><g><g><g><path class="st9" d="M667.6,473c5.2,3.3,11.2,5,17.2,5c5.3,0,10.5-1.3,15.2-3.9c10.2-5.7,16.4-17.3,15.4-28.8             c-0.7-8.1-4.9-15.9-11.4-21.5c-9.6-8.1-23.6-10.1-34.9-5c-10.2,4.6-16.4,14.3-16.5,25.7C652.4,455.8,658.3,467,667.6,473             z"/></g></g></g></g></g></g></g></g><g><g><g><g><g><g><g><g><path class="st9" d="M767.6,457.3c3.8,0,7.6-0.7,11.1-2.1c14.4-5.8,22.6-22.7,18.1-37.6c-3.7-12.4-14.5-21.2-27.5-22.4             c-12.6-1.2-24,5-29.7,16.2v0c-4.7,9.2-4.7,20.4-0.1,29.4C745,451,756.3,457.3,767.6,457.3z"/></g></g></g></g></g></g></g></g><g><g><g><g><g><g><g><g><path class="st9" d="M680.9,504.5c-11.3,1.5-21.1,8-25.6,17.1c-4.8,9.6-3.8,21.5,2.6,30.4c5.8,8.1,15.7,13,25.9,13             c0.4,0,0.8,0,1.2,0c11.8-0.4,22.7-7.5,27.8-17.9c5.2-10.7,3.4-24.4-4.3-33.1C702,506.6,691.7,503.1,680.9,504.5z"/></g></g></g></g></g></g></g></g><g><g><g><g><g><g><g><g><path class="st9" d="M800.4,513.2c-0.4-8.8-4.4-21-21-28.7c-13.2-6.1-29.3-0.1-36.7,13.8c-5.3,10.1-5.1,22.8,0.6,32.4             c5.6,9.3,16,15.2,26.6,15.2c0.8,0,1.7,0,2.5-0.1C788.3,544.4,801.1,529.5,800.4,513.2z"/></g></g></g></g></g></g></g></g></g></g></g><g class="st0" id="colored_x5F_line"><g class="st3"><path class="st8" d="M823.4,307.3c-12.9-21.4-45.7-25.8-70.7-25.6c-180.8,1.8-321.8-3.5-533.1-1.1c-19,0.2-40.2,1.5-56.3,11.7    c-27.6,17.4-31.8,35.5-34.9,68c-3.9,40.9-0.6,172-0.9,228.4c-0.1,22.5,3.7,56.4,19.5,72.3c14.1,14.3,36.5,15.3,56.6,15.5    c197.1,1.3,371.7,2.2,568.8,3.5c17.9,0.1,39.9-2.3,50.5-16.8c7-9.6,8.7-30.7,8.7-42.6c0.1-63.6,1.8-205.7,1.9-269.3    C833.6,338.3,830.1,318.5,823.4,307.3z M699.2,429.5c4.9,4.1,8.2,10,8.8,16.4c0.8,8.6-4.1,17.4-11.6,21.6    c-7.6,4.2-17.4,3.8-24.7-0.9c-7.3-4.7-11.8-13.3-11.6-22C660.4,424,684.8,417.5,699.2,429.5z M604.4,613.1    c-81.2,1.8-150.1,0.4-237.4,0.3c-7.2,0-13-5.9-13-13c0.3-70.5,0.6-169.1,0.8-239.5c0-7.1,5.8-12.9,12.9-12.9    c100.5-1,151.1-1.8,233.8-1.9c7,0,12.8,5.5,13,12.5c2.4,69.9,0.1,171.1,2.5,241.2C617.4,606.9,611.7,613,604.4,613.1z M706,543.8    c-3.9,8-12.5,13.4-21.3,13.7c-8,0.3-16-3.4-20.7-9.9c-4.7-6.5-5.6-15.5-2-22.6c7.1-14.1,30.2-18.1,40.8-6.1    C708.7,525.5,709.9,535.8,706,543.8z M746.4,414.7c9.6-18.7,37.5-15,43.4,5c3.3,11.1-3,24.2-13.8,28.5s-24.4-0.7-29.7-11    C742.7,430.3,742.8,421.7,746.4,414.7z M771.8,538.3c-8.7,0.8-17.5-4-22-11.5c-4.5-7.5-4.5-17.3-0.4-25    c5.1-9.7,16.6-15.3,26.9-10.5c9.4,4.4,16.1,11.3,16.6,22.2C793.4,525.5,783.7,537.3,771.8,538.3z"/></g><g class="st3"><path class="st16" d="M215.7,458c0.2-14.1,0.5-25.7,0.7-39c0.1-3.9,3.3-7,7.2-6.9c11.8,0.2,31.2,0.7,41.5,1c3.8,0.1,6.9,3.2,6.9,7    c0,10,0.1,28.3,0.3,36.3c12.6,0.1,25.1-0.1,37.6-0.1c3.8,0,6.9,3,7,6.8c0.4,10.8,0.4,21.5,0.8,32.3c0.1,4-3.1,7.4-7.1,7.3    c-13.6-0.2-25.9-0.3-40-0.5c0.1,11.8-0.1,26.1-0.1,38.7c0,4-3.3,7.2-7.2,7.1c-13.5-0.3-27.1-0.2-40.6-0.6c-3.9-0.1-7-3.3-6.9-7.2    c0.2-11.7,0.5-24.5,0.7-35.6c-8.6-0.5-28.9-0.3-39.7-0.1c-3.9,0.1-7.2-3.1-7.2-7.1l0-32.3c0-3.9,3.2-7.1,7.1-7.1    C187.3,458.1,206.9,458.2,215.7,458z"/></g><g class="st3"><path class="st16" d="M514.8,621.6c-24.6,0-49-0.2-74-0.3c-23.5-0.2-47.8-0.3-73.8-0.4c-5.5,0-10.6-2.2-14.5-6    c-3.9-3.9-6-9-6-14.5c0.1-35.2,0.3-77.4,0.4-119.7c0.1-42.3,0.3-84.6,0.4-119.9c0-11.1,9.2-20.3,20.3-20.4    c27.6-0.3,51.5-0.5,73.3-0.8c58.4-0.6,100.6-1.1,160.5-1.2c0,0,0,0,0,0c11.1,0,20.1,8.7,20.5,19.8c1.2,35.2,1.3,78.9,1.3,121.2    c0,41.9,0,85.2,1.2,120.1l0,0c0.2,5.5-1.8,10.8-5.6,14.8c-3.8,4-8.9,6.3-14.4,6.4C573.5,621.3,544.1,621.6,514.8,621.6z     M601.6,353.4C601.6,353.4,601.6,353.4,601.6,353.4c-59.9,0.1-102.1,0.5-160.4,1.2c-21.8,0.2-45.7,0.5-73.3,0.8    c-3,0-5.4,2.5-5.5,5.5c-0.1,35.3-0.3,77.6-0.4,119.9c-0.1,42.2-0.3,84.4-0.4,119.7c0,1.5,0.6,2.9,1.6,3.9c1,1,2.4,1.6,3.9,1.6    c26,0,50.3,0.2,73.9,0.4c54.7,0.4,106.4,0.7,163.3-0.6c1.5,0,2.8-0.6,3.9-1.7c1-1.1,1.5-2.5,1.5-4c0,0,0,0,0,0    c-1.2-35.1-1.2-78.5-1.3-120.6c0-42.1,0-85.7-1.3-120.6C607,355.8,604.6,353.4,601.6,353.4z"/></g><g class="st3"><g><path class="st16" d="M684.9,478c-6,0-12.1-1.7-17.2-5c-9.3-6-15.2-17.1-15.1-28.4c0.2-11.5,6.4-21.1,16.5-25.7     c11.3-5.1,25.3-3.1,34.9,5c6.6,5.5,10.7,13.3,11.4,21.5c1,11.5-5.2,23.1-15.4,28.8C695.4,476.7,690.1,478,684.9,478z M682.5,431     c-2.5,0-4.9,0.5-7.1,1.5c-3.5,1.6-7.7,5-7.8,12.3c0,0,0,0,0,0c-0.1,6.2,3.1,12.3,8.2,15.5c5.1,3.2,11.9,3.5,17,0.7     c5-2.8,8.3-8.9,7.8-14.4c-0.4-4.1-2.7-8.3-6.2-11.3C691,432.5,686.7,431,682.5,431z M660,444.7L660,444.7L660,444.7z"/></g><g><path class="st16" d="M767.6,457.3c-11.4,0-22.6-6.2-28-16.6c-4.6-8.9-4.6-20.2,0.1-29.4v0c5.7-11.1,17.1-17.3,29.7-16.2     c13.1,1.2,23.9,10,27.5,22.4c4.4,14.9-3.7,31.8-18.1,37.6C775.2,456.6,771.4,457.3,767.6,457.3z M753,418.1     c-2.5,4.8-2.5,11-0.1,15.6c3.6,6.9,13,10.4,20.2,7.5c7.2-2.9,11.6-12,9.4-19.4c-2.3-7.9-9.3-11.2-14.5-11.7     C761.5,409.5,755.9,412.5,753,418.1L753,418.1z"/></g><g><path class="st16" d="M683.8,565c-10.2,0-20-4.9-25.9-13c-6.4-8.9-7.4-20.8-2.6-30.4l0,0c4.5-9.1,14.3-15.6,25.6-17.1     c10.8-1.4,21.1,2.1,27.6,9.4c7.8,8.8,9.5,22.4,4.3,33.1c-5.1,10.5-16,17.5-27.8,17.9C684.6,565,684.2,565,683.8,565z      M668.7,528.3c-2.3,4.5-1.7,10.6,1.4,14.9c3.1,4.3,8.7,7,14.3,6.8c6.3-0.2,12.2-4,14.8-9.5c2.6-5.4,1.7-12.4-2.1-16.7     c-3.1-3.5-8.5-5.2-14.4-4.4C676.4,520.2,671,523.6,668.7,528.3L668.7,528.3z"/></g><g><path class="st16" d="M770,545.9c-10.6,0-21.1-5.9-26.6-15.2c-5.7-9.6-6-22.3-0.6-32.4l0,0c7.4-13.9,23.5-19.9,36.7-13.8     c16.6,7.7,20.6,19.8,21,28.7c0.7,16.3-12.1,31.2-27.9,32.6C771.6,545.9,770.8,545.9,770,545.9z M756,505.4     c-2.9,5.5-2.8,12.6,0.2,17.7c3.1,5.1,9.2,8.3,14.9,7.8c7.8-0.7,14.6-8.8,14.3-17c-0.2-4.4-1.7-10.8-12.3-15.7     C766.5,495,759.2,499.4,756,505.4L756,505.4z"/></g></g></g></svg>