<?xml version="1.0" ?><svg width="960px" height="960px" viewBox="0 0 960 960" style="enable-background:new 0 0 960 960;" version="1.1" xml:space="preserve" xmlns="http://www.w3.org/2000/svg" xmlns:xlink="http://www.w3.org/1999/xlink"><style type="text/css">
	.st0{display:none;}
	.st1{display:inline;opacity:0.93;}
	.st2{display:inline;fill:none;stroke:#000000;stroke-width:15;stroke-linecap:round;stroke-linejoin:round;stroke-miterlimit:10;}
	.st3{display:inline;}
	.st4{fill:none;stroke:#000000;stroke-width:15;stroke-linecap:round;stroke-linejoin:round;stroke-miterlimit:10;}
	.st5{display:inline;fill:none;stroke:#1A1D3F;stroke-width:15;stroke-linecap:round;stroke-linejoin:round;stroke-miterlimit:10;}
	.st6{fill:#DDEDE7;}
	.st7{fill:#1A1D3F;}
	.st8{fill:#E9B44D;}
	.st9{fill:#ED644E;}
	.st10{fill:#494EDF;}
	.st11{fill:#3DC5A1;}
	.st12{fill:#F6CEC1;}
	.st13{fill:none;}
	.st14{fill:none;stroke:#1A1D3F;stroke-width:15;stroke-linecap:round;stroke-linejoin:round;stroke-miterlimit:10;}
	.st15{display:inline;fill:#E9B44D;}
	.st16{fill:#222222;}
	.st17{display:inline;fill:#222222;}
</style><g class="st0" id="guide"/><g class="st0" id="sketch"/><g class="st0" id="stroke"><path class="st2" d="M627.3,805.8C699.6,702.8,813.4,534,885.7,431c-48.3-34.4-93.5-66.9-141.8-101.3   c-73.5,104-190.9,270.4-264.4,374.4C544.7,749.9,574.5,774.5,627.3,805.8z"/><path class="st2" d="M501.4,719.6c-23.6,50.7-37.8,89.3-61.1,139.6c17.1,12.1,31.8,22.6,48.9,34.7c34.5-30.9,77.1-66.3,115.9-101.8   "/><path class="st2" d="M856.5,472.9C809.2,438.9,762,405,714.7,371"/><path class="st2" d="M647.6,776.7c-49-34.2-98-68.3-147-102.5"/><path class="st2" d="M836.4,502c-47-34.5-94-69-141.1-103.4"/><path class="st2" d="M675.5,736.4C625,704.7,574.4,673,523.9,641.3"/><path class="st2" d="M681.2,504.1c18-12.4,46.2-12.9,59,4.9c11.2,15.6,6.2,37.5-1.9,54.9c-12.9,28-32.4,53-56.5,72.3   c-12.7,10.2-28.8,19.2-44.6,15.2c-20.4-5.2-29.9-30.7-25.1-51.2c4.7-19.7,15.3-39.7,27.8-54.8C652.9,529.7,664,516,681.2,504.1z"/><path class="st2" d="M392.4,494.8C351.1,376,280.7,184.9,239.3,66.1c-56.1,19.1-108.9,36.7-165,55.8   c41.4,120.5,107.8,312.9,149.2,433.4C298.8,529.2,336.2,519.4,392.4,494.8z"/><path class="st2" d="M248.9,546.6c27.3,48.7,50.4,82.9,77.5,131.2c19.8-6.8,36.9-12.6,56.7-19.4c-4.9-46-8.7-101.3-14.8-153.5"/><path class="st2" d="M366.4,421.1c-56.7,18.5-113.3,37-170,55.5"/><path class="st2" d="M379.2,457.2c-56.4,19.7-112.7,39.4-169.1,59.2"/><path class="st2" d="M252.7,104.3c-54.6,20.1-109.2,40.2-163.7,60.4"/><path class="st2" d="M263.8,135.6c-54.5,20.6-109,41.2-163.6,61.8"/><path class="st2" d="M180.5,289.7c-1.4-15.4,1.4-31.7,11.1-43.8c9.7-12,27-18.5,41.3-12.6c14,5.7,21.5,20.7,27.1,34.8   c8.8,22,16,44.7,21.6,67.7c3.9,16.4,6.4,35.5-4.5,48.4c-12.4,14.7-37,12.9-52.4,1.2C198.8,365.7,183.4,321,180.5,289.7z"/></g><g id="outline"><path d="M890,424.9c-24.1-17.2-47.9-34.2-70.9-50.6c-23-16.4-46.7-33.5-70.9-50.6c-1.6-1.2-3.6-1.6-5.6-1.3c-2,0.3-3.7,1.4-4.9,3.1   c-14.7,20.7-31.1,44-48.5,68.7c0,0,0,0,0,0c0,0,0,0.1,0,0.1c-26.3,37.2-54.9,77.8-83.6,118.4c-30.1,42.7-60.2,85.3-87.6,124.1   c-0.1,0.1-0.1,0.1-0.1,0.2c-8,11.4-15.8,22.4-23.3,33c0,0,0,0-0.1,0.1c0,0,0,0,0,0.1c-7.3,10.4-14.4,20.4-21.1,29.8   c-1.1,1.6-1.6,3.6-1.3,5.6c0.3,2,1.4,3.7,3.1,4.9c5.9,4.1,11.4,8.1,16.8,11.9c-10.7,23.2-19.6,44.3-28.2,64.6   c-9.2,21.8-18.7,44.3-30.4,69.3c-1.5,3.3-0.5,7.2,2.5,9.3l48.9,34.7c1.3,0.9,2.8,1.4,4.3,1.4c1.8,0,3.6-0.6,5-1.9   c14.7-13.2,30.8-27.1,47.8-41.8c21.2-18.3,43-37.2,63.9-56.2c5.6,3.5,11.4,7,17.6,10.7c1.2,0.7,2.5,1,3.8,1c2.4,0,4.7-1.1,6.1-3.2   c6.4-9.2,13.2-18.9,20.3-29.1c0,0,0,0,0,0c0,0,0,0,0,0c32.6-47,71.3-103.4,108.9-158.3c45.7-66.8,93.1-135.9,129.2-187.4   C894.2,431.9,893.4,427.2,890,424.9z M532.2,846.4c-15.4,13.3-30,25.9-43.5,38l-38.9-27.6c10.6-23,19.4-43.9,28-64.1   c8.2-19.5,16.7-39.6,26.8-61.6c7.8,5.6,15.1,10.8,21.9,15.8c24.4,17.7,44.1,31.9,66.5,46.4C572.9,811.2,552.2,829,532.2,846.4z    M625.2,795.8c-33.3-20.1-57.4-37.5-90.1-61.1c-13.2-9.5-28-20.2-45.1-32.3c4-5.7,8.2-11.6,12.5-17.7   c42.9,29.9,85.8,59.9,128.8,89.8l5.9,4.1C633.1,784.5,629,790.2,625.2,795.8z M645.7,766.2l-5.9-4.1   c-42.9-29.9-85.8-59.8-128.7-89.8c4.8-6.8,9.8-13.8,14.8-20.9l138.9,87.2C658.3,748.1,651.9,757.3,645.7,766.2z M750.3,614.2   c-25.9,37.8-52.3,76.4-76.9,112l-138.8-87.1c26.2-37.1,54.7-77.5,83.3-117.9c27.1-38.3,54.1-76.6,79.2-112.1   c43,31.5,86,63.1,129,94.6C801.8,538.9,775.8,576.9,750.3,614.2z M834.6,491.3c-43-31.5-85.9-63-128.9-94.5   c3.7-5.2,7.3-10.3,10.8-15.3l129.6,93.1C842.3,480.1,838.5,485.7,834.6,491.3z M854.7,462.3l-129.5-93c7.1-10.1,14-19.8,20.6-29.1   c22,15.7,43.7,31.2,64.7,46.3c21.1,15.1,42.8,30.6,64.8,46.3C868.7,442.1,861.8,452,854.7,462.3z M635.1,539.6l-0.9,1.1   c-13.9,16.9-24.6,38-29.3,57.9c-2.8,11.8-1.5,25,3.5,36.2c5.6,12.5,15.2,21.1,27,24c3.1,0.8,6.4,1.2,9.7,1.2   c12.8,0,26.7-6,41.5-17.8c25-20,45.2-46,58.6-75.1c8.2-17.8,15-43.1,1.1-62.5c-7.3-10.2-19.1-16.1-33.2-16.9   c-12.6-0.6-25.8,3.1-36.1,10.2C659.3,510.2,648.1,523.8,635.1,539.6z M685.5,510.3c7.8-5.4,16.3-7.7,24.2-7.7   c10.5,0,19.7,4.2,24.5,10.8c10.2,14.2,2.8,35.8-2.6,47.4c-12.4,27-31.2,51.1-54.4,69.6c-14.7,11.8-27.5,16.4-38,13.8   c-16-4-23.5-25.6-19.6-42.2c4.2-17.7,13.8-36.6,26.3-51.8l0.9-1.1C658.9,534.2,669.5,521.3,685.5,510.3   C685.5,510.3,685.5,510.3,685.5,510.3z M203.1,518.8C203.1,518.8,203.1,518.8,203.1,518.8c4.7,13.6,9.2,26.6,13.4,38.9   c0.6,1.9,2,3.4,3.8,4.3c1,0.5,2.2,0.8,3.3,0.8c0.8,0,1.7-0.1,2.5-0.4c6.8-2.3,13.2-4.6,19.4-6.7c12.6,22.2,24.5,41.7,36,60.6   c12.3,20.2,25,41.1,38.5,65.2c1.4,2.4,3.9,3.8,6.5,3.8c0.8,0,1.6-0.1,2.4-0.4l56.7-19.4c3.3-1.1,5.4-4.4,5-7.9   c-2.1-19.7-4-40.8-6-63.2c-2.5-27.9-5-56.6-8.2-84.7c6.1-2.5,12.4-5.2,19-8c3.6-1.6,5.4-5.6,4.1-9.3c-7.7-22.2-16.5-47.1-26-73.6   c0,0,0,0,0,0c0,0,0,0,0-0.1c-15.8-44.4-33.4-93.1-50.6-140.8c-27.5-76.2-55.9-154.9-76.5-214.3c-1.4-3.9-5.6-6-9.5-4.6   c-28.1,9.5-55.8,18.9-82.6,27.9c-26.8,9-54.4,18.4-82.5,27.9c-1.9,0.6-3.4,2-4.3,3.8c-0.9,1.8-1,3.9-0.4,5.7   c20.7,60.2,47.7,138.5,74.6,216.7C163.3,403.3,184.7,465.6,203.1,518.8C203.1,518.8,203.1,518.8,203.1,518.8z M329.9,668.7   c-12.5-22-24.3-41.4-35.7-60.2c-11-18.1-22.3-36.7-34.3-57.7c9.1-3,17.6-5.9,25.6-8.5c28.6-9.5,51.7-17.1,76.5-26.8   c2.9,26.6,5.4,53.9,7.7,80.3c1.8,20.2,3.5,39.4,5.4,57.5L329.9,668.7z M374.6,466.7c2.9,8.3,5.7,16.3,8.4,24   c-35.8,15.3-64,24.6-102.2,37.3c-15.4,5.1-32.7,10.9-52.6,17.7c-2.7-8-5.6-16.3-8.5-24.8C271.3,502.9,323,484.8,374.6,466.7z    M369.6,452.6c-51.6,18.1-103.2,36.1-154.9,54.2c-2.9-8.3-5.8-16.8-8.8-25.5c51.9-16.9,103.8-33.9,155.8-50.8   C364.5,438,367.1,445.4,369.6,452.6z M83.8,126.6c25.6-8.7,50.8-17.2,75.3-25.5c24.6-8.3,49.9-16.8,75.5-25.5   c2.7,7.8,5.6,15.9,8.5,24.2L93.6,154.9C90.2,145.1,87,135.7,83.8,126.6z M98.5,169.1l149.7-55.2c2,5.6,4,11.4,6.1,17.2   c-49.8,18.8-99.6,37.6-149.5,56.4C102.7,181.3,100.6,175.2,98.5,169.1z M156,336.1c-15.8-46-31.7-92-46.3-134.4   c49.9-18.8,99.7-37.7,149.6-56.5c15.5,43.5,32.7,91.1,49.5,137.7c16.2,45.1,32.8,91,47.9,133.3c-51.9,16.9-103.7,33.8-155.6,50.8   C186.9,425.7,171.4,380.9,156,336.1z M267,265.3c-6.2-15.5-14.8-32.2-31.3-38.9c-16.6-6.8-37.6-0.5-50,14.9   c-10,12.5-14.5,29.9-12.7,49.2c1.6,17.4,6.8,37.3,14.1,54.5c6.1,14.4,16.8,34.2,33.1,46.5c8.9,6.8,20.7,10.7,32.2,10.7   c11.5,0,22.7-4,30.4-13.1c13.3-15.7,10.2-37.6,6-55C283.3,310.7,275.9,287.5,267,265.3z M271.4,379.3c-9.7,11.5-30,9.3-42.1,0.1   c-10.8-8.2-20.6-22.2-28.4-40.4c-6.7-15.9-11.5-34.1-12.9-50c-1.4-15.3,1.9-29,9.5-38.4c8.2-10.2,22.2-14.6,32.6-10.4   c11.3,4.6,18,18.1,23,30.6c8.7,21.6,15.8,44,21.2,66.7C277.6,351.4,280.3,368.7,271.4,379.3z"/></g><g class="st0" id="flat"><g class="st3"><g><g><g><g><g><g><g><g><path class="st9" d="M885.7,431c-48.3-34.4-93.5-66.9-141.8-101.3c-73.5,104-190.9,270.4-264.4,374.4            c8,5.6,15.4,10.9,22.4,15.9l-0.5-0.4c-23.6,50.7-37.8,89.3-61.1,139.6c17.1,12.1,31.8,22.6,48.9,34.7            c34.5-30.9,77.1-66.3,115.9-101.8l-0.1-0.1c7.1,4.5,14.5,9,22.4,13.7C699.6,702.8,813.4,534,885.7,431z"/></g></g></g></g></g></g></g></g><g><g><g><g><g><g><g><g><g><path class="st6" d="M714.9,370.8c-65.1,92.2-150.6,213.3-214,303.1c48.3,33.7,98.4,69.2,146.7,102.9             c62-89.1,145-211.6,208.9-303.8C809.8,439.6,761.4,404.3,714.9,370.8z"/></g></g></g></g></g></g></g></g></g><g><g><g><g><g><g><g><g><path class="st7" d="M836.4,509.5c-1.5,0-3.1-0.5-4.4-1.5c-47-34.5-94-69-141.1-103.4c-3.3-2.4-4.1-7.1-1.6-10.5            c2.4-3.3,7.1-4.1,10.5-1.6c47,34.5,94,69,141.1,103.4c3.3,2.4,4.1,7.1,1.6,10.5C841,508.4,838.7,509.5,836.4,509.5z"/></g></g></g></g></g></g></g></g><g><g><g><g><g><g><g><g><path class="st7" d="M675.5,743.9c-1.4,0-2.7-0.4-4-1.1l-151.6-95.1c-3.5-2.2-4.6-6.8-2.4-10.3c2.2-3.5,6.8-4.6,10.3-2.4            L679.5,730c3.5,2.2,4.6,6.8,2.4,10.3C680.4,742.6,678,743.9,675.5,743.9z"/></g></g></g></g></g></g></g></g><g><g><g><g><g><g><g><g><path class="st7" d="M645.1,660c-3.3,0-6.5-0.4-9.7-1.2c-11.8-3-21.4-11.5-27-24c-5-11.2-6.3-24.3-3.5-36.2            c4.7-19.9,15.4-41,29.3-57.9l0.9-1.1c13-15.8,24.2-29.4,41.9-41.6l0,0c10.3-7.1,23.5-10.8,36.1-10.2            c14.1,0.7,25.9,6.7,33.2,16.9c13.9,19.3,7.1,44.6-1.1,62.5c-13.4,29.1-33.6,55-58.6,75.1C671.8,654,657.9,660,645.1,660z             M709.6,502.6c-7.8,0-16.3,2.3-24.2,7.7c0,0,0,0,0,0c-16,11-26.6,23.9-38.8,38.8l-0.9,1.1c-12.5,15.2-22.1,34.1-26.3,51.8            c-3.9,16.6,3.6,38.2,19.6,42.2c10.5,2.7,23.3-2,38-13.8c23.2-18.6,42-42.6,54.4-69.6c5.3-11.6,12.8-33.2,2.6-47.4            C729.4,506.8,720.1,502.6,709.6,502.6z M681.2,504.1L681.2,504.1L681.2,504.1z"/></g></g></g></g></g></g></g></g><g><g><g><g><g><g><g><g><path class="st10" d="M368.2,505c7.8-3.1,15.8-6.5,24.2-10.1C351.1,376,280.7,184.9,239.3,66.1            c-56.1,19.1-108.9,36.7-165,55.8c41.4,120.5,107.8,312.9,149.2,433.4c9.2-3.2,17.8-6.1,26-8.9l-0.6,0.2            c27.3,48.7,50.4,82.9,77.5,131.2c19.8-6.8,36.9-12.6,56.7-19.4c-4.9-46-8.7-101.3-14.8-153.5L368.2,505z"/></g></g></g></g></g></g></g></g><g><g><g><g><g><g><g><g><g><path class="st6" d="M252.6,104c-53.3,19.7-110.3,41.2-163.6,60.8c36.5,106,85,246.7,121.1,351.8             c55.1-19.3,113.8-40.4,168.9-59.7C341.9,351.5,289.9,209.4,252.6,104z"/></g></g></g></g></g></g></g></g></g><g><g><g><g><g><g><g><g><path class="st7" d="M196.4,484c-3.2,0-6.1-2-7.1-5.2c-1.3-3.9,0.9-8.2,4.8-9.5c56.7-18.5,113.3-37,170-55.5            c3.9-1.3,8.2,0.9,9.5,4.8c1.3,3.9-0.9,8.2-4.8,9.5c-56.7,18.5-113.3,37-170,55.5C198,483.9,197.2,484,196.4,484z"/></g></g></g></g></g></g></g></g><g><g><g><g><g><g><g><g><path class="st7" d="M100.3,204.8c-3,0-5.9-1.8-7-4.9c-1.5-3.9,0.5-8.2,4.4-9.7l4.1-1.5c53.2-20.1,106.3-40.2,159.5-60.2            c3.9-1.5,8.2,0.5,9.7,4.4c1.5,3.9-0.5,8.2-4.4,9.7c-53.2,20.1-106.3,40.1-159.5,60.2l-4.1,1.5            C102,204.7,101.2,204.8,100.3,204.8z"/></g></g></g></g></g></g></g></g><g><g><g><g><g><g><g><g><path class="st7" d="M252.5,402.1c-11.5,0-23.3-4-32.2-10.7c-16.3-12.3-27-32.1-33.1-46.5c-7.3-17.2-12.5-37.1-14.1-54.5            l0,0c-1.8-19.2,2.7-36.7,12.7-49.2c12.4-15.4,33.4-21.7,50-14.9c16.5,6.7,25.1,23.5,31.3,38.9            c8.9,22.3,16.3,45.4,21.9,68.8c4.2,17.3,7.2,39.3-6,55C275.2,398.1,264,402.1,252.5,402.1z M188,289            c1.5,15.9,6.2,34.1,12.9,50c7.8,18.2,17.6,32.2,28.4,40.4c12.1,9.2,32.4,11.4,42.1-0.1c8.9-10.6,6.2-27.9,2.9-41.8            c-5.4-22.6-12.6-45.1-21.2-66.7c-5-12.5-11.7-26-23-30.6c-10.4-4.3-24.4,0.2-32.6,10.4C189.9,260,186.5,273.6,188,289            L188,289z"/></g></g></g></g></g></g></g></g></g></g><g class="st0" id="colored_x5F_line"><path class="st15" d="M885.7,431c-48.3-34.4-93.5-66.9-141.8-101.3c-73.5,104-190.9,270.4-264.4,374.4c8,5.6,15.4,10.9,22.4,15.9   l-0.5-0.4c-23.6,50.7-37.8,89.3-61.1,139.6c17.1,12.1,31.8,22.6,48.9,34.7c34.5-30.9,77.1-66.3,115.9-101.8l-0.1-0.1   c7.1,4.5,14.5,9,22.4,13.7C699.6,702.8,813.4,534,885.7,431z M612.2,600.3c4.7-19.7,15.3-39.7,27.8-54.8   c12.9-15.7,24-29.4,41.3-41.3c18-12.4,46.2-12.9,59,4.9c11.2,15.6,6.2,37.5-1.9,54.9c-12.9,28-32.4,53-56.5,72.3   c-12.7,10.2-28.8,19.2-44.6,15.2C616.8,646.3,607.4,620.8,612.2,600.3z"/><path class="st15" d="M368.2,505c7.8-3.1,15.8-6.5,24.2-10.1C351.1,376,280.7,184.9,239.3,66.1c-56.1,19.1-108.9,36.7-165,55.8   c41.4,120.5,107.8,312.9,149.2,433.4c9.2-3.2,17.8-6.1,26-8.9l-0.6,0.2c27.3,48.7,50.4,82.9,77.5,131.2   c19.8-6.8,36.9-12.6,56.7-19.4c-4.9-46-8.7-101.3-14.8-153.5L368.2,505z M277.1,384.2c-12.4,14.7-37,12.9-52.4,1.2   c-25.9-19.6-41.4-64.4-44.3-95.7c-1.4-15.4,1.5-31.7,11.1-43.8c9.7-12,27-18.5,41.3-12.6c14,5.7,21.5,20.7,27.1,34.8   c8.8,22,16,44.7,21.6,67.7C285.5,352.1,288,371.3,277.1,384.2z"/><g class="st3"><path class="st16" d="M856.5,480.4c-1.5,0-3-0.5-4.4-1.4L710.4,377.1c-3.4-2.4-4.1-7.1-1.7-10.5s7.1-4.1,10.5-1.7l141.8,101.8    c3.4,2.4,4.1,7.1,1.7,10.5C861.1,479.3,858.8,480.4,856.5,480.4z"/></g><g class="st3"><path class="st16" d="M647.6,784.2c-1.5,0-3-0.4-4.3-1.3l-12.1-8.4c-45-31.4-89.9-62.7-134.9-94.1c-3.4-2.4-4.2-7-1.9-10.4    c2.4-3.4,7-4.2,10.4-1.9c45,31.4,89.9,62.7,134.9,94.1l12.1,8.4c3.4,2.4,4.2,7,1.9,10.4C652.3,783.1,650,784.2,647.6,784.2z"/></g><g class="st3"><path class="st16" d="M836.4,509.5c-1.5,0-3.1-0.5-4.4-1.5c-47-34.5-94-69-141.1-103.4c-3.3-2.4-4.1-7.1-1.6-10.5    c2.4-3.3,7.1-4.1,10.5-1.6c47,34.5,94,69,141.1,103.4c3.3,2.4,4.1,7.1,1.6,10.5C841,508.4,838.7,509.5,836.4,509.5z"/></g><g class="st3"><path class="st16" d="M675.5,743.9c-1.4,0-2.7-0.4-4-1.1l-151.6-95.1c-3.5-2.2-4.6-6.8-2.4-10.3c2.2-3.5,6.8-4.6,10.3-2.4    L679.5,730c3.5,2.2,4.6,6.8,2.4,10.3C680.4,742.6,678,743.9,675.5,743.9z"/></g><g class="st3"><path class="st16" d="M196.4,484c-3.2,0-6.1-2-7.1-5.2c-1.3-3.9,0.9-8.2,4.8-9.5c56.7-18.5,113.3-37,170-55.5    c3.9-1.3,8.2,0.9,9.5,4.8c1.3,3.9-0.9,8.2-4.8,9.5c-56.7,18.5-113.3,37-170,55.5C198,483.9,197.2,484,196.4,484z"/></g><g class="st3"><path class="st16" d="M210.1,523.8c-3.1,0-6-1.9-7.1-5c-1.4-3.9,0.7-8.2,4.6-9.6c56.4-19.7,112.7-39.4,169.1-59.2    c3.9-1.4,8.2,0.7,9.6,4.6c1.4,3.9-0.7,8.2-4.6,9.6C325.3,484,269,503.7,212.6,523.4C211.8,523.7,211,523.8,210.1,523.8z"/></g><g class="st3"><path class="st16" d="M89,172.1c-3.1,0-5.9-1.9-7-4.9c-1.4-3.9,0.6-8.2,4.4-9.6l163.7-60.4c3.9-1.4,8.2,0.6,9.6,4.4    c1.4,3.9-0.6,8.2-4.4,9.6L91.6,171.6C90.7,172,89.9,172.1,89,172.1z"/></g><g class="st3"><path class="st16" d="M100.3,204.8c-3,0-5.9-1.8-7-4.9c-1.5-3.9,0.5-8.2,4.4-9.7l4.1-1.5c53.2-20.1,106.3-40.2,159.5-60.2    c3.9-1.5,8.2,0.5,9.7,4.4c1.5,3.9-0.5,8.2-4.4,9.7c-53.2,20.1-106.3,40.1-159.5,60.2l-4.1,1.5C102,204.7,101.2,204.8,100.3,204.8z    "/></g><g class="st3"><path class="st16" d="M645.1,660c-3.3,0-6.5-0.4-9.7-1.2c-11.8-3-21.4-11.5-27-24c-5-11.2-6.3-24.3-3.5-36.2    c4.7-19.9,15.4-41,29.3-57.9l0.9-1.1c13-15.8,24.2-29.4,41.9-41.6l0,0c10.3-7.1,23.5-10.8,36.1-10.2c14.1,0.7,25.9,6.7,33.2,16.9    c13.9,19.3,7.1,44.6-1.1,62.5c-13.4,29.1-33.6,55-58.6,75.1C671.8,654,657.9,660,645.1,660z M709.6,502.6    c-7.8,0-16.3,2.3-24.2,7.7c0,0,0,0,0,0c-16,11-26.6,23.9-38.8,38.8l-0.9,1.1c-12.5,15.2-22.1,34.1-26.3,51.8    c-3.9,16.6,3.6,38.2,19.6,42.2c10.5,2.7,23.3-2,38-13.8c23.2-18.6,42-42.6,54.4-69.6c5.3-11.6,12.8-33.2,2.6-47.4    C729.4,506.8,720.1,502.6,709.6,502.6z M681.2,504.1L681.2,504.1L681.2,504.1z"/></g><g class="st3"><path class="st16" d="M252.5,402.1c-11.5,0-23.3-4-32.2-10.7c-16.3-12.3-27-32.1-33.1-46.5c-7.3-17.2-12.5-37.1-14.1-54.5l0,0    c-1.8-19.2,2.7-36.7,12.7-49.2c12.4-15.4,33.4-21.7,50-14.9c16.5,6.7,25.1,23.5,31.3,38.9c8.9,22.3,16.3,45.4,21.9,68.8    c4.2,17.3,7.2,39.3-6,55C275.2,398.1,264,402.1,252.5,402.1z M188,289c1.5,15.9,6.2,34.1,12.9,50c7.8,18.2,17.6,32.2,28.4,40.4    c12.1,9.2,32.4,11.4,42.1-0.1c8.9-10.6,6.2-27.9,2.9-41.8c-5.4-22.6-12.6-45.1-21.2-66.7c-5-12.5-11.7-26-23-30.6    c-10.4-4.3-24.4,0.2-32.6,10.4C189.9,260,186.5,273.6,188,289L188,289z"/></g></g></svg>