<?xml version="1.0" ?><svg width="960px" height="960px" viewBox="0 0 960 960" style="enable-background:new 0 0 960 960;" version="1.1" xml:space="preserve" xmlns="http://www.w3.org/2000/svg" xmlns:xlink="http://www.w3.org/1999/xlink"><style type="text/css">
	.st0{display:none;}
	.st1{display:inline;opacity:0.93;}
	.st2{display:inline;fill:none;stroke:#000000;stroke-width:15;stroke-linecap:round;stroke-linejoin:round;stroke-miterlimit:10;}
	.st3{display:inline;}
	.st4{fill:none;stroke:#000000;stroke-width:15;stroke-linecap:round;stroke-linejoin:round;stroke-miterlimit:10;}
	.st5{display:inline;fill:none;stroke:#1A1D3F;stroke-width:15;stroke-linecap:round;stroke-linejoin:round;stroke-miterlimit:10;}
	.st6{fill:#DDEDE7;}
	.st7{fill:#1A1D3F;}
	.st8{fill:#E9B44D;}
	.st9{fill:#ED644E;}
	.st10{fill:#494EDF;}
	.st11{fill:#3DC5A1;}
	.st12{fill:#F6CEC1;}
	.st13{fill:none;}
	.st14{fill:none;stroke:#1A1D3F;stroke-width:15;stroke-linecap:round;stroke-linejoin:round;stroke-miterlimit:10;}
	.st15{display:inline;fill:#E9B44D;}
	.st16{fill:#222222;}
	.st17{display:inline;fill:#222222;}
</style><g class="st0" id="guide"/><g class="st0" id="sketch"/><g class="st0" id="stroke"><g class="st3"><path class="st4" d="M352.3,478.2c3-67.3,21.4-91.7,43.5-153.8c19.7-55.5,26.5-90.5,12.7-149.1c-14.7-62.1-68.5-113.6-132-120.2    S148,85,118.1,141.4s-24.1,129.1,12,181.7c23.4,34.1,57.1,58.2,87.3,86.5s60.6,54.7,75.6,93.2c29.6,76.2,29.3,120.8,39.3,190.4    c2.2,15.2,2.8,31.2,11.4,44c8.6,12.7,18.9,21.6,34.2,20.4c20.1-1.7,29.6-18.1,31.5-38.1c1.9-20.1-7.4-39.3-14.7-58    C372.9,605.6,350.9,510.4,352.3,478.2z"/><path class="st4" d="M267,459.5c30.7-4.3,61-12.1,89.9-23.3"/><path class="st4" d="M109.6,160.3L109.6,160.3c79.2-35.6,164.3-58.1,250.8-66.3"/><path class="st4" d="M413.5,201.1c-101.8,25.7-203.6,51.4-305.4,77.2"/><path class="st4" d="M166.4,364.1c80-8.3,158.9-26.6,234.4-54.2"/></g><g class="st3"><path class="st4" d="M633.4,656.3c40.4-53.9,69.4-63.6,122.7-102.4c47.6-34.6,73-59.8,94.6-115.9c22.9-59.6,7.6-132.4-41.1-173.7    c-48.7-41.3-123-47.9-179.5-18.2s-92.8,93-92.7,156.8c0.1,41.3,14.3,80.3,23.3,120.7c9,40.3,19.1,79.4,9.7,119.6    c-18.6,79.6-44,116.3-75,179.3c-6.8,13.8-15.3,27.4-15.4,42.7c-0.1,15.3,3.4,28.6,16.8,36.1c17.5,10,34.6,1.8,47.5-13.7    c12.9-15.5,16.1-36.6,20.7-56.2C578.4,773.1,614,682.1,633.4,656.3z"/><path class="st4" d="M573.5,592.7c27.8,13.8,57.2,24.4,87.4,31.5"/><path class="st4" d="M612.4,256.9L612.4,256.9c85.5,15.3,168.4,44.8,244.4,86.8"/><path class="st4" d="M840.2,462.1c-98.6-36.2-197.1-72.5-295.7-108.7"/><path class="st4" d="M544.3,457.2c70.7,38.2,146.2,67.7,224.1,87.6"/></g></g><g id="outline"><path d="M386.5,369.5c5-12.3,10.6-26.2,16.4-42.5c1.8-5,3.4-9.8,5-14.5c0,0,0-0.1,0-0.1c16.4-49.3,20.9-83.8,7.9-138.7   c-7.5-31.8-25.3-61.9-49.9-84.7c-25.2-23.3-56.6-37.9-88.6-41.3c-65.9-6.9-134.1,30.2-165.8,90.2c-3.3,6.2-6.1,12.6-8.6,19.1   c-0.2,0.5-0.4,1-0.6,1.6c-13.9,38.2-14.3,81.6-1.6,121.1c0,0.1,0.4,1.3,0.6,1.7c5.4,16.2,12.9,31.8,22.7,46   c10.8,15.7,23.7,29.4,37.3,42.2c0.1,0.1,0.1,0.1,0.2,0.2c8.4,7.9,17.1,15.5,25.7,22.9c8.3,7.3,17,14.7,25.1,22.4   c2.1,1.9,4.1,3.8,6.2,5.7c15.3,14.3,30.2,28.1,42.7,43.4c0,0,0.1,0.1,0.1,0.1c10.2,12.4,18.8,25.9,24.7,41.2   c22.8,58.8,27.7,99.3,33.4,146.3c1.6,13.4,3.3,27.3,5.5,42.5c0.4,2.4,0.7,5,1,7.5c1.7,13.5,3.4,27.5,11.6,39.6   c10.8,16,23.1,23.8,37.6,23.8c1.1,0,2.3,0,3.5-0.1c21.8-1.8,35.8-18.2,38.3-44.9c1.8-19.2-5.3-36.8-12.2-53.9c-1-2.5-2-5-3-7.5   c-21.3-54.7-43.1-149-41.8-180.2C362,430,372.2,404.6,386.5,369.5z M124.7,144.9c13.8-26.2,36.4-48.8,63.6-63.7   c23-12.6,48.7-19.3,73.5-19.3c4.7,0,9.3,0.2,13.9,0.7c23.1,2.4,46,11.5,66,25.9c-75,8.8-148,28-217.5,57.3   C124.4,145.5,124.6,145.2,124.7,144.9z M115.6,165.9c76.8-34.2,158.3-55.7,242.1-64c21.4,20.5,36.8,47.1,43.5,75.2   c1.5,6.4,2.8,12.5,3.8,18.4l-291.8,73.7C103.6,235.3,104.2,198.5,115.6,165.9z M136.3,318.9c-7.6-11-13.7-22.9-18.4-35.4   l289.2-73.1c3.5,32.9-1.2,59.7-12.3,93.6c-73,26.3-149,43.9-225.8,52.2C156.9,344.7,145.7,332.7,136.3,318.9z M387.6,664.1   c1,2.6,2,5.1,3.1,7.7c6.5,16.1,12.6,31.4,11.1,46.9c-2.3,24.4-14.6,30.5-24.6,31.4c-10.6,0.9-18.8-4.2-27.4-17.1   c-6.1-9.1-7.6-20.8-9.1-33.1c-0.3-2.5-0.6-5.1-1-7.7c-2.1-15-3.8-28.8-5.4-42.1c-5.8-48-10.8-89.4-34.3-149.9   c-5-12.8-11.6-24.4-19.3-35.1c22.7-3.9,45.1-9.7,66.9-17.3c-1.3,9.2-2.2,19.1-2.7,30.2C343.4,511.1,365.4,606.9,387.6,664.1z    M350.4,430.6c-26,9.8-53,16.8-80.4,20.9c-12.7-15-27.2-28.4-41.4-41.7c-2-1.9-4.1-3.8-6.1-5.7c-8.4-7.8-17.1-15.4-25.5-22.7   c-4.5-3.9-8.9-7.8-13.3-11.7c69.6-8.5,138.4-24.4,204.9-47.5c-5.7,15.9-11.2,29.6-16.1,41.6C363.4,386.4,355.5,406,350.4,430.6z    M814.4,258.5c-50.5-42.9-127.8-50.7-187.8-19.1c-6.3,3.3-12.5,7.1-18.3,11.2c-0.2,0.1-0.4,0.2-0.5,0.4   c-33.3,23.7-58.3,59.6-70.2,99.5c0,0.1-0.3,1-0.4,1.5c-4.8,16.5-7.3,33.6-7.3,50.8c0,19,3,37.5,7,55.7c0,0.1,0,0.2,0.1,0.2   c2.5,11.4,5.4,22.6,8.3,33.7c2.8,10.7,5.7,21.7,8.1,32.7c0.6,2.7,1.2,5.5,1.8,8.2c8.4,37.1,16.3,72.2,7.9,108.1   c-14.3,61.4-33.2,97.6-55,139.6c-6.2,12-12.7,24.4-19.5,38.1c-1.1,2.2-2.3,4.5-3.4,6.7c-6.2,12.1-12.7,24.7-12.8,39.3   c-0.2,20.8,6.6,34.8,20.5,42.7c6.4,3.6,12.9,5.4,19.4,5.4c13.1,0,26.1-7.1,37.5-20.8c12.3-14.8,16.4-33.4,20.4-51.4   c0.6-2.7,1.2-5.3,1.8-7.9c13.3-57.2,48.5-147.4,67.2-172.3c0,0,0,0,0,0c29.1-38.8,51.9-54,83.5-75c11-7.3,23.6-15.7,37.6-25.9   c4.3-3.1,8.5-6.2,12.4-9.2c0,0,0,0,0.1,0c41.3-31.4,64.5-57.4,84.7-110c11.7-30.5,14.1-65.4,6.6-98.1   C856.6,309.2,838.9,279.3,814.4,258.5z M633.6,252.7c21.7-11.4,47-17.5,72.6-17.5c5.3,0,10.5,0.3,15.8,0.8   c31.1,3,60.4,15.1,82.7,34c17.7,15,31.5,35.5,39.8,58.6c-66.9-35.1-138-60.4-211.8-75.5C633,253,633.3,252.8,633.6,252.7z    M627.4,651.8c-20,26.6-55.9,118.1-69.8,177.9c-0.6,2.7-1.2,5.4-1.8,8.1c-3.8,17-7.3,33-17.3,45c-15.7,18.9-29.3,16.9-38,12   c-9.2-5.2-13.1-14.1-13-29.6c0.1-11,5.5-21.5,11.1-32.5c1.2-2.3,2.4-4.6,3.5-6.9c6.7-13.6,13.1-25.9,19.3-37.8   C543.7,745,563,708,577.8,644.8c3.1-13.4,4.2-26.7,3.9-39.9c20.9,9.6,42.7,17.4,65,23.4C640.4,635.2,634,642.9,627.4,651.8z    M714.6,573.3c-20.3,13.5-37.9,25.2-56,42.6c-27-6.6-53.2-16.1-78.1-28.2c-2-19.5-6.4-38.8-10.6-57.8c-0.6-2.7-1.2-5.4-1.8-8.2   c-2.5-11.2-5.4-22.4-8.2-33.2c-1.5-5.8-3-11.5-4.4-17.1c62.2,32.3,128,58,196,76.5C737.7,557.9,725.5,566.1,714.6,573.3z    M766.7,536.5c-75.2-19.5-147.8-47.9-215.9-84.4c-3.5-16.4-5.9-32.6-5.9-49.3c0-13.4,1.6-26.7,4.8-39.6l280,102.9   C814.1,495.3,795,514.7,766.7,536.5z M843.7,435.3c-2.4,6.2-4.8,11.9-7.3,17.4L553.9,348.8c11.2-33.5,32.5-63.4,60.3-83.9   c82.7,15.2,162.1,43.3,236,83.8C856.3,377.7,854,408.3,843.7,435.3z"/></g><g class="st0" id="flat"><g class="st3"><g><g><g><g><g><g><g><g><g><path class="st9" d="M359.5,93.2c-80,15.8-167.1,38.8-250.1,67.8c2.5-6.7,5.4-13.3,8.7-19.6             c29.9-56.4,95-92.9,158.4-86.2C307.7,58.4,336.5,72.4,359.5,93.2z"/></g></g></g></g></g></g></g></g></g><g><g><g><g><g><g><g><g><g><path class="st8" d="M413.5,201.4C321.1,236.3,216.2,260,108,278c-12.3-37.9-12.3-79.8,1.4-117             c78.4-35.2,164.6-59.4,250.1-67.8c23.9,21.6,41.5,50.5,49,82.1C410.7,184.5,412.3,193.1,413.5,201.4z"/></g></g></g></g></g></g></g></g></g><g><g><g><g><g><g><g><g><g><g><path class="st11" d="M400.7,310.3c-73.7,38.1-154,55-234.4,53.7c-13.3-12.5-25.8-25.7-36.2-40.9              c-9.5-13.9-16.9-29.1-22.1-45.1c101.2-25.6,204.4-51.1,305.5-76.7C419.2,240.8,413.8,270.8,400.7,310.3z"/></g></g></g></g></g></g></g></g></g><g><g><g><g><g><g><g><g><g><path class="st10" d="M400.7,310.3c-1.5,4.6-3.1,9.2-4.9,14.1c-16.9,47.4-31.6,72.8-38.9,112.2              c-25.7,22.7-57.2,30.4-90,22.8c-14.6-17.8-32.1-33.5-49.5-49.8c-16.7-15.6-34.6-30-51.1-45.6              C245.6,355.7,325.8,337.6,400.7,310.3z"/></g></g></g></g></g></g></g></g></g><g><g><g><g><g><g><g><g><g><path class="st8" d="M409.3,719.5c-1.9,20.1-11.4,36.5-31.5,38.1c-15.3,1.3-25.7-7.6-34.2-20.4s-9.2-28.8-11.4-44              c-10-69.6-9.7-114.2-39.3-190.4c-6.3-16.3-15.4-30.4-26-43.4c30.1-4.2,61.6-11.9,90-22.8c-2.3,12.2-3.8,25.7-4.5,41.6              c-1.4,32.2,20.6,127.5,42.3,183.2C401.9,680.2,411.2,699.4,409.3,719.5z"/></g></g></g></g></g></g></g></g></g></g><g><g><g><g><g><g><g><g><path class="st7" d="M267,467c-3.7,0-6.9-2.7-7.4-6.5c-0.6-4.1,2.3-7.9,6.4-8.5c30.1-4.2,59.8-11.9,88.3-22.9            c3.9-1.5,8.2,0.4,9.7,4.3s-0.4,8.2-4.3,9.7c-29.6,11.4-60.4,19.4-91.6,23.8C267.7,467,267.4,467,267,467z"/></g></g></g></g></g></g></g></g><g><g><g><g><g><g><g><g><path class="st7" d="M109.6,167.8c-3.5,0-6.6-2.4-7.3-5.9c-0.8-3.6,1.2-7.2,4.5-8.5c80.2-36,165.3-58.5,253-66.8            c4.1-0.4,7.8,2.6,8.2,6.8s-2.6,7.8-6.8,8.2c-86.1,8.2-169.7,30.3-248.4,65.7c-0.5,0.2-1,0.4-1.5,0.5            C110.7,167.8,110.1,167.8,109.6,167.8z"/></g></g></g></g></g></g></g></g><g><g><g><g><g><g><g><g><path class="st7" d="M108,285.8c-3.4,0-6.4-2.3-7.3-5.7c-1-4,1.4-8.1,5.4-9.1l305.4-77.2c4-1,8.1,1.4,9.1,5.4            c1,4-1.4,8.1-5.4,9.1l-305.4,77.2C109.3,285.7,108.6,285.8,108,285.8z"/></g></g></g></g></g></g></g></g><g><g><g><g><g><g><g><g><path class="st7" d="M166.4,371.6c-3.8,0-7-2.9-7.5-6.7c-0.4-4.1,2.6-7.8,6.7-8.2c79.2-8.3,157.4-26.3,232.6-53.8            c3.9-1.4,8.2,0.6,9.6,4.5c1.4,3.9-0.6,8.2-4.5,9.6c-76.3,27.8-155.8,46.2-236.2,54.6C166.9,371.6,166.7,371.6,166.4,371.6            z"/></g></g></g></g></g></g></g></g><g><g><g><g><g><g><g><g><g><path class="st9" d="M856.3,341.1c-75-31.9-160-62-244.9-84.7c5.8-4.2,11.9-7.9,18.3-11.3             c56.4-29.8,130.8-23.4,179.5,17.8C833.1,283.1,849,310.9,856.3,341.1z"/></g></g></g></g></g></g></g></g></g><g><g><g><g><g><g><g><g><g><path class="st8" d="M840.2,460.8c-96.1-23.1-196.1-62.5-295.7-108.5c11.1-38.2,34.8-72.9,67-96             c84.6,15,169.5,43.5,244.9,84.7c7.6,31.3,5.9,65.1-5.7,95.4C847.3,445.3,843.8,453.4,840.2,460.8z"/></g></g></g></g></g></g></g></g></g><g><g><g><g><g><g><g><g><g><g><path class="st11" d="M768.3,543.7c-82.4-9.9-158.3-41.2-224-87.5c-4-17.8-6.9-35.8-6.9-54.2              c-0.1-16.8,2.4-33.6,7.1-49.7c98,35.8,197.7,72.7,295.7,108.5C822.7,496.7,801.4,518.5,768.3,543.7z"/></g></g></g></g></g></g></g></g></g><g><g><g><g><g><g><g><g><g><path class="st10" d="M768.3,543.7c-3.8,2.9-7.8,5.9-11.9,8.9c-40.6,29.7-67.1,42.5-95.3,70.9              c-34.1,4.3-64.4-7-87.2-31.8c-2-22.9-7.7-45.7-12.9-69c-5-22.4-11.7-44.3-16.6-66.4C614.5,494,691,524.1,768.3,543.7z"/></g></g></g></g></g></g></g></g></g><g><g><g><g><g><g><g><g><g><path class="st8" d="M545.2,886.8c-12.8,15.5-29.9,23.7-47.5,13.8c-13.3-7.6-16.9-20.8-16.8-36.1              c0.1-15.3,8.6-29,15.3-42.7c30.9-63.1,56.2-99.9,74.6-179.5c3.9-17,4.4-33.8,2.9-50.6c27.3,13.4,57.6,24.8,87.2,31.8              c-8.7,8.8-17.6,19.1-27.1,31.8c-19.3,25.9-54.7,117-68.1,175.3C561.2,850.2,558.1,871.3,545.2,886.8z"/></g></g></g></g></g></g></g></g></g></g><g><g><g><g><g><g><g><g><path class="st7" d="M661.3,630.7c-0.6,0-1.1-0.1-1.7-0.2c-30.9-7.2-60.8-17.9-89.1-31.9c-3.7-1.8-5.2-6.3-3.4-10            s6.3-5.2,10-3.4c27.2,13.5,56.1,23.8,85.8,30.7c4,0.9,6.5,5,5.6,9C667.8,628.3,664.7,630.7,661.3,630.7z"/></g></g></g></g></g></g></g></g><g><g><g><g><g><g><g><g><path class="st7" d="M856.6,349.8c-1.2,0-2.5-0.3-3.6-0.9c-75.8-41.7-157.3-70.5-242.3-85.5c-0.4-0.1-0.7-0.2-1.1-0.3            c-3.9-1.3-6.1-5.6-4.7-9.5c1.2-3.6,4.9-5.7,8.6-5c86.6,15.3,169.6,44.6,246.8,87.1c3.6,2,5,6.6,3,10.2            C861.8,348.4,859.3,349.8,856.6,349.8z"/></g></g></g></g></g></g></g></g><g><g><g><g><g><g><g><g><path class="st7" d="M840.3,468.1c-0.9,0-1.7-0.1-2.6-0.5l-295.9-108c-3.9-1.4-5.9-5.7-4.5-9.6c1.4-3.9,5.7-5.9,9.6-4.5            l295.9,108c3.9,1.4,5.9,5.7,4.5,9.6C846.2,466.2,843.4,468.1,840.3,468.1z"/></g></g></g></g></g></g></g></g><g><g><g><g><g><g><g><g><path class="st7" d="M768.6,551c-0.6,0-1.2-0.1-1.8-0.2C688,530.8,612,501.3,540.8,463c-3.6-2-5-6.5-3.1-10.2            c2-3.6,6.5-5,10.2-3.1c70.1,37.7,145,66.8,222.6,86.4c4,1,6.4,5.1,5.4,9.1C775,548.7,772,551,768.6,551z"/></g></g></g></g></g></g></g></g></g></g><g class="st0" id="colored_x5F_line"><g class="st3"><g><path class="st8" d="M537.4,402.8c0,18.7,3,36.9,7,54.9c70.2,37.8,147,67,224.2,86.8c32.7-24.9,53.9-46.5,71.4-81.9     c-97.8-36-197.5-73.9-295.2-109.8C540,369,537.4,385.9,537.4,402.8z"/></g></g><g class="st3"><g><path class="st8" d="M570.5,643.1c-18.6,79.6-44,116.3-75,179.3c-6.8,13.8-15.3,27.4-15.4,42.7s3.4,28.6,16.8,36.1     c17.5,10,34.6,1.8,47.5-13.7c12.9-15.5,16.1-36.6,20.7-56.2c13.6-58.3,49.1-149.3,68.5-175.1c9.4-12.6,18.2-22.7,26.9-31.4     c-29.3-7.1-59.7-18.3-86.8-31.6C574.9,609.7,574.4,626.3,570.5,643.1z"/></g></g><g class="st3"><g><path class="st8" d="M809.6,264.3c-48.7-41.3-123-47.9-179.5-18.2c-5.5,2.9-10.8,6.1-15.9,9.6c83.9,15.5,168.1,47.5,242.7,88.6     C849.9,313.4,833.9,284.9,809.6,264.3z"/></g></g><g class="st3"><path class="st16" d="M864.3,342.6c-7.6-33.4-25.3-63.3-49.8-84c-50.5-42.9-127.8-50.7-187.8-19.1c-5.6,3-11.2,6.3-16.6,10    c0,0,0,0,0,0c-34.4,23.6-60.2,59.5-72.5,101.2c-5.1,17.2-7.7,34.8-7.6,52.2c0,16.8,2.3,34.7,7.2,56.5c0,0,0,0,0,0    c2.5,11.1,5.4,22.3,8.2,33.1c2.8,10.7,5.7,21.7,8.1,32.7c0.6,2.7,1.2,5.4,1.8,8.1c4.7,20.9,9.2,40.6,10.8,60.6    c0.2,2.9,2.2,5.4,4.9,6.4l86.8,31.6c0.8,0.3,1.7,0.5,2.6,0.5c2,0,3.9-0.8,5.3-2.2c18.2-18.3,35.5-29.8,57.3-44.3    c11-7.3,23.6-15.7,37.6-25.9c4.7-3.4,8.8-6.5,12.7-9.4c0,0,0,0,0,0c31.5-23.9,54.8-46.5,73.5-84.6c3.8-7.8,7.4-16.1,11-25.2    C869.4,410.1,871.8,375.3,864.3,342.6z M722.1,236c31.1,3,60.4,15.1,82.7,34c17.9,15.2,31.8,35.8,40,59.2    c-68-35.7-139.9-62.1-210-77.1C660.8,238.7,691.7,233,722.1,236z M714.6,573.3c-20.4,13.5-38.1,25.4-56.2,42.9l-77.8-28.4    c-2-19.4-6.4-38.9-10.7-57.8c-0.6-2.7-1.2-5.4-1.8-8.1c-2.5-11.2-5.4-22.4-8.2-33.2c-1.4-5.5-2.9-11-4.3-16.6    c61,31.5,126.8,56.9,196.1,75.7C737.9,557.8,725.5,566,714.6,573.3z M767,536.3c-76.8-20-149.5-48.1-216-83.6    c-4.1-19.2-6-35.1-6.1-49.9c0-13.3,1.6-26.8,4.9-40.2c46.4,17.1,93.9,34.9,139.9,52.1c45.9,17.2,93.3,34.9,139.7,52    C813.2,496.8,793.8,515.7,767,536.3z M843.7,435.3c-2.5,6.4-4.9,12.3-7.5,17.9c-46.8-17.2-94.7-35.2-141.1-52.5    c-46.3-17.3-94.2-35.2-141-52.5c11.7-34.5,33.4-64.3,61.9-84.7c78,14.8,158.8,44.3,234.4,85.6C856.3,378.1,854,408.5,843.7,435.3z    "/></g><g class="st3"><g><path class="st8" d="M131.3,322.4c10.5,15.4,23.1,28.9,36.6,41.6c79.3-8,159.3-27,234.3-53.9c13.1-39,18.5-68.8,13.1-107.9     c-101.1,25.1-204.9,49.6-306,74.7C114.4,293,121.8,308.4,131.3,322.4z"/></g></g><g class="st3"><g><path class="st8" d="M293.4,502.7c29.2,76.3,28.8,121,38.5,190.6c2.1,15.2,2.7,31.3,11.2,44c8.5,12.8,18.9,21.7,34.1,20.5     c20.1-1.6,29.6-17.9,31.6-38c2-20.1-7.2-39.3-14.4-58.1c-21.4-55.9-43.1-151.2-41.5-183.4c0.8-15.7,2.4-29.1,4.6-41.1     c-28.2,10.6-59.7,18.4-89.6,22.5C278.4,472.6,287.3,486.6,293.4,502.7z"/></g></g><g class="st3"><g><path class="st8" d="M278.9,55c-63.4-6.9-128.7,29.3-158.8,85.6c-2.9,5.5-5.5,11.1-7.8,16.8c78.1-34.2,165.8-55,250.6-62.7     C339.9,73.1,310.6,58.4,278.9,55z"/></g></g><g class="st3"><path class="st16" d="M368.1,89.1C343,65.8,311.7,51,279.7,47.5c-65.9-7.2-134.2,29.7-166.2,89.5c-3,5.6-5.7,11.5-8.1,17.6    c0,0,0,0,0,0c-15.3,38.8-16.4,83-3.2,124.5c5.5,17.1,13.2,33.1,23,47.5c9.4,13.9,21.4,27.5,37.6,42.8c0,0,0,0,0,0    c8.3,7.8,16.9,15.4,25.3,22.8c8.3,7.3,16.9,14.8,25,22.5c2,1.9,4,3.8,6.1,5.7c15.6,14.7,30.4,28.5,42.9,44.1    c1.8,2.3,4.8,3.3,7.7,2.6l89.6-22.5c0.9-0.2,1.7-0.6,2.4-1.1c1.6-1.1,2.8-2.8,3.2-4.8c4.8-25.4,12.6-44.6,22.6-68.8    c5-12.3,10.7-26.2,16.6-42.5c2-5.4,3.7-10.3,5.2-14.9c0,0,0,0,0,0c12.6-37.5,19.3-69.2,13.4-111.3c-1.2-8.6-2.9-17.5-5.1-27    C410.3,142.2,392.7,112,368.1,89.1z M190.6,80.7c27.4-14.9,58.5-21.4,87.5-18.2c23.3,2.5,46.4,11.8,66.4,26.5    c-76.3,8.6-150.7,27-217.1,53.9C141.4,117.3,163.8,95.2,190.6,80.7z M373.6,364.1c-9.3,22.6-17.3,42.4-22.5,67l-80.3,20.2    c-12.6-14.9-27.2-28.6-41.3-41.9c-2-1.9-4-3.8-6-5.7c-8.3-7.9-17-15.5-25.4-22.9c-4.2-3.7-8.5-7.5-12.8-11.3    c68.1-8.2,136.9-24,204.8-47.3C384.2,338.2,378.6,352,373.6,364.1z M396.3,304.1c-74.8,26.6-150.7,44-225.7,51.9    c-14.2-13.6-24.7-25.7-33-37.9c-7.5-11-13.7-23.1-18.5-36c48-11.9,97.3-23.8,145.1-35.4c47.6-11.5,96.8-23.4,144.8-35.3    C412.3,245.5,406.9,272,396.3,304.1z M403,177.5c1.6,6.7,2.8,13,3.8,19c-48.4,12-98.1,24-146.3,35.7    c-48.1,11.6-97.7,23.7-146.1,35.6c-9.7-35.1-8.4-72,3.8-104.8c72.8-31.5,156.4-52.4,242-60.6C381.4,123,396.6,149.5,403,177.5z"/></g></g></svg>