<?xml version="1.0" ?><svg width="960px" height="960px" viewBox="0 0 960 960" style="enable-background:new 0 0 960 960;" version="1.1" xml:space="preserve" xmlns="http://www.w3.org/2000/svg" xmlns:xlink="http://www.w3.org/1999/xlink"><style type="text/css">
	.st0{display:none;}
	.st1{display:inline;opacity:0.93;}
	.st2{display:inline;fill:none;stroke:#000000;stroke-width:15;stroke-linecap:round;stroke-linejoin:round;stroke-miterlimit:10;}
	.st3{display:inline;}
	.st4{fill:none;stroke:#000000;stroke-width:15;stroke-linecap:round;stroke-linejoin:round;stroke-miterlimit:10;}
	.st5{display:inline;fill:none;stroke:#1A1D3F;stroke-width:15;stroke-linecap:round;stroke-linejoin:round;stroke-miterlimit:10;}
	.st6{fill:#DDEDE7;}
	.st7{fill:#1A1D3F;}
	.st8{fill:#E9B44D;}
	.st9{fill:#ED644E;}
	.st10{fill:#494EDF;}
	.st11{fill:#3DC5A1;}
	.st12{fill:#F6CEC1;}
	.st13{fill:none;}
	.st14{fill:none;stroke:#1A1D3F;stroke-width:15;stroke-linecap:round;stroke-linejoin:round;stroke-miterlimit:10;}
	.st15{display:inline;fill:#E9B44D;}
	.st16{fill:#222222;}
	.st17{display:inline;fill:#222222;}
</style><g class="st0" id="guide"/><g class="st0" id="sketch"/><g class="st0" id="stroke"><g class="st3"><path class="st4" d="M418.4,805L418.4,805c-51.7-3.7-101.7-16.9-148.4-43.4c-49-27.8-136.3-98.2-115.8-238.8    c4.2-29,24-64.6,48.6-80.6c35-22.8,77.6-28.8,119.1-23.6c41.5,5.2,83.6,14.5,124.7,6.9c50.4-9.3,92.3-42.6,137-67.7    c44.7-25.1,99.8-39.5,144.8-15c25.8,14.1,49.7,46,61.5,72.9c36.3,83,18,176.6-33.1,251.4c-17.2,25.2-38.6,47.1-63,65.5"/><path class="st4" d="M595,784.4C595,784.4,594.9,784.4,595,784.4c-19.9,6.7-40.4,11.8-60.9,15.1c0,0,0,0,0,0"/><path class="st4" d="M452.1,732.2c30.2-0.6,60.4-4.7,88.9-12.6c31.5-8.6,62.4-22.1,91-38.7"/><path class="st4" d="M388,728c-49.1-7.7-97.3-35.1-118.7-79.8c-21.7-45.3-7.7-108.1,37-131.1c47.5-24.4,104.7-2.4,155.1-14.3    c45.9-10.9,76.6-50.5,120.1-68c33.5-13.5,73.1-16.3,104.7,1c39.4,21.6,58.1,71.5,50.5,115.8c-6.3,36.3-26.8,69.4-54.4,94.2"/><path class="st4" d="M559,557.7c27.9-0.8,54.9,7.4,77.3,25.1c33.7,26.6,54.2,69.8,58,112.6c2.2,25-0.2,51.2-11.3,73.7    c-13,26.6-40.6,53.7-66.6,68c-28.4,15.6-57.5,19.5-89.8,21.2c-40.3,2.1-77.1-16.3-103.3-47.1c-26.1-30.8-40.2-73.1-34.9-113.1    c4.8-35.9,19.1-67.9,45.1-92.9c1-1,2-1.9,3.1-2.8"/><path class="st4" d="M569.8,619.8c10.2,2.6,19.7,6.8,27.5,12.2c24.4,17,38.1,45.6,39.2,75.4c1.2,29.7-10.5,54.8-34.6,72.3    c-28.2,20.5-76.1,27.2-106.2,9.7c-30.1-17.5-48.7-51.6-46.7-86.4c1.1-18.7,9.8-35,22.2-48.8"/><path class="st4" d="M388.8,427.2c-9.1-17.3-23.8-34.3-47-45.6c-22.5-10.9-43.2-25.8-61-43.4c-39.2-38.8-44.2-105.1-17.2-153.2    c27-48.2,81-77.9,136-82.7c42.2-3.7,79.3,6.8,111.1,34.8c31.8,28,46.4,74.1,35.1,121.1c-6.7,27.8-21.7,47.6-29.5,75.1    c-7.5,26.3-8.6,39.5-1.4,65.5"/><path class="st4" d="M451.5,563.1c-12.3,13.1-17.6,32.4-13.7,50c3.9,17.5,18.2,35.3,34.9,41.9c17.4,6.8,34.4,7,52.7,3.6    c14.4-2.7,31.3-12,39.2-24.3c5.3-8.3,6-18.6,5.8-28.5c-0.3-14-2.1-28.1-7.8-40.9s-15.6-24.1-28.6-29.2c-15.1-6-30.5-5.3-44.4,0.1    C470.3,543.2,463.6,550.3,451.5,563.1z"/></g></g><g id="outline"><path d="M322.8,411.2c-47.3-5.9-90.2,2.6-124.1,24.8c-24.8,16.2-47.1,53-51.9,85.8c-9.3,63.4,1.8,119.6,33,167   c26.3,40.1,61.6,65.3,86.5,79.5c44,24.9,93.8,39.8,148.3,44.1c1,1.3,2,2.5,3.1,3.8c27.1,31.9,64.4,49.9,103,49.9   c2.1,0,4.3-0.1,6.4-0.2c35-1.8,64.2-6.3,93-22.1c28.4-15.6,56.5-44.2,69.7-71.2c5.2-10.6,8.9-22.6,10.9-35.6   c24.7-19.1,45.7-41.1,62.3-65.4c26.6-39,44.1-82.5,50.6-125.8c7-46.8,1.3-91.5-16.8-132.9c-11.8-27-36.4-61.1-64.8-76.5   c-22.3-12.2-48.3-16.2-77.2-11.9c-23.7,3.5-49.6,12.8-74.9,27c-11.5,6.4-22.9,13.5-34,20.3c-8.6,5.3-17.2,10.6-26,15.7   c-4.1-18.7-2.4-30.4,3.8-52c3.5-12.4,8.5-23,13.8-34.3c5.9-12.6,12.1-25.7,15.8-41.1c11.7-48.6-2.7-97.8-37.5-128.4   c-32.6-28.7-70.8-40.7-116.7-36.6c-60.6,5.3-115,38.5-141.9,86.5c-14,25.1-20.1,55.1-17.1,84.5c3.1,30.4,15.7,58,35.6,77.7   c18.8,18.6,40,33.7,63,44.8c14.6,7.1,26.5,17.1,35.8,29.8c-9.2-1.1-18.4-2.4-27.4-3.7C339.1,413.3,330.9,412.2,322.8,411.2z    M676.3,765.8c-11.8,24.1-37.9,50.7-63.5,64.7c-26.3,14.4-53.6,18.5-86.6,20.2c-36.2,1.9-71.6-14.3-97.2-44.4   c-1.6-1.9-3.1-3.7-4.6-5.7c-0.1-0.1-0.2-0.2-0.2-0.3c-16.3-21.4-26.3-46.9-28.8-72.5c0-0.3,0-0.6-0.1-0.9   c-0.8-9.3-0.7-18.6,0.5-27.8c4.3-32.1,16.3-59.3,35.5-80.8c4.4,15.3,15.2,29.6,28.3,38.3c-11.2,14.6-17.3,30.1-18.2,46.2   c-2.1,37.7,17.7,74.3,50.5,93.3c12.5,7.2,28.3,11,45.5,11c4.2,0,8.5-0.2,12.8-0.7c17.3-1.8,34.3-7.3,48.1-15.4   c0.2-0.1,0.4-0.2,0.6-0.3c2.6-1.5,5-3.1,7.3-4.8c25.9-18.8,38.9-46.1,37.6-78.7c-0.4-9.6-2-19-4.6-27.8c-0.1-0.3-0.2-0.7-0.3-1   c-6.7-21.5-19.8-40.1-37.5-52.4c-6.8-4.7-15-8.7-23.7-11.5c0.2-3,0.2-5.9,0.1-8.8c-0.3-16-2.5-28.9-6.9-40.1   c22.5,1.6,43.2,9.5,60.6,23.2c18.8,14.8,33.7,35.5,43.5,59.3c0.2,0.6,0.4,1.1,0.7,1.6c5.8,14.6,9.6,30.4,11.1,46.5   C689.2,722.8,685.6,746.9,676.3,765.8z M539.1,712.4c-25.8,7.1-53,11.1-81.1,12.1c-1.3-6.9-1.9-13.9-1.5-21   c0.8-13.9,6.5-27.4,17-40.3c9.6,3.3,19.5,5,30.1,5c7.3,0,15-0.8,23.2-2.3c14.9-2.8,34.4-12.4,44.1-27.6c1.8-2.9,3.2-5.9,4.2-9   c6.6,2.3,12.7,5.3,17.8,8.9c13.5,9.4,23.9,23.2,29.9,39.3C595.3,693,567.1,704.7,539.1,712.4z M627.2,692.3c1,5,1.6,10.2,1.8,15.4   c1.1,27.4-9.8,50.2-31.5,66c-1.8,1.3-3.8,2.6-5.8,3.8c-18.9,6.4-38.5,11.2-58.2,14.4c-13-0.5-24.7-3.6-34-8.9   c-17.2-10-30.2-25.6-37.2-43.6c27.9-1.3,55-5.4,80.7-12.5C571.2,719.1,599.5,707.5,627.2,692.3z M562.4,618.6c0,0.1,0,0.1,0,0.2   c-0.6,4.1-1.8,8.1-4,11.4c-7,10.8-22.5,18.8-34.3,21c-19,3.6-33.9,2.6-48.6-3.2c-0.4-0.1-0.7-0.3-1.1-0.5c-0.1,0-0.1-0.1-0.2-0.1   c-13.6-6-25.7-20.9-29-36c-3.4-15,1.3-32,11.8-43.2c11.6-12.4,17.5-18.6,35.4-25.5c6.6-2.5,13.2-3.8,19.8-3.8   c6.5,0,13,1.2,19.2,3.7c8.3,3.3,15.7,10,21.1,18.8c0,0,0,0,0,0.1c1.2,2,2.4,4.2,3.4,6.4c4.5,10.2,6.8,22.3,7.1,38   C563.1,610,563,614.4,562.4,618.6z M684.9,633.1c-10.6-22.3-25.7-41.7-44-56.2c-22.1-17.4-49-26.7-77.9-26.7   c-6.9-9.9-16-17.5-26.1-21.5c-16.1-6.3-33.3-6.3-49.9,0.1c-21.1,8.1-28.5,16.1-40.9,29.2c-10.4,11.1-16.4,26-17,41.1   c-0.3,0.2-0.5,0.5-0.8,0.7c-26.1,25.1-42,57.8-47.3,97.3c-1,7.2-1.3,14.5-1.1,21.9c-20.9-4.4-40.6-12.3-57.6-23.2   c-20.8-13.3-36.8-30.9-46.3-50.7c-9.9-20.5-12-45.6-5.9-68.7c6.3-23.9,20.4-42.5,39.6-52.4c25.7-13.2,54.6-11.9,85.1-10.5   c22.6,1,46,2.1,68.3-3.2c27.1-6.4,49-22.2,70.2-37.4c16-11.5,32.6-23.5,51-30.9c35.6-14.3,71.5-14.1,98.3,0.6   c34.6,18.9,54.2,64.3,46.7,108C724.2,580.2,708.5,609.2,684.9,633.1z M345.2,374.9c-21.5-10.4-41.4-24.6-59-42   c-35.5-35.1-42.3-97.1-15.9-144.2c24.5-43.8,74.4-74,130.1-78.9c41.7-3.7,76.2,7.1,105.5,32.9c30.6,26.9,43.2,70.5,32.8,113.7   c-3.3,13.9-8.9,25.7-14.8,38.2c-5.3,11.3-10.8,23-14.7,36.5c-7.2,25.3-8.9,39.6-2.9,63.8c-19.5,10.5-39.7,19.2-61.1,23.2   c-16.9,3.1-34.3,3.3-51.7,2C382.1,400.2,365.9,385,345.2,374.9z M387.8,434.7c0,0,0.1,0,0.1,0c19.9,1.7,40,1.8,60-1.9   c25.2-4.7,48.4-15.1,70.5-27.4c0,0,0.1,0,0.1,0c12-6.7,23.7-13.9,35.3-21c10.9-6.7,22.2-13.7,33.5-20   c70.8-39.7,116.5-26.4,137.5-15c25.1,13.7,47.7,45.5,58.2,69.4c17,38.8,22.2,80.7,15.7,124.7c-6.1,41-22.8,82.4-48.1,119.5   c-13.2,19.3-29.3,37.1-48.1,53.1c0.2-6.9-0.1-14-0.7-21.3c-1.4-16.1-5.1-31.9-10.6-46.8c28.2-26.8,47-60.4,52.9-95   c4-23.4,1.2-48.5-8.1-70.6c-9.8-23.6-25.8-41.9-46.2-53.1c-30.8-16.9-71.4-17.4-111.1-1.4c-20.1,8.1-37.4,20.5-54.2,32.6   c-20.9,15.1-40.7,29.3-64.9,35c-20.3,4.8-41.6,3.8-64.2,2.8c-31.2-1.4-63.4-2.9-92.7,12.2c-23.1,11.9-39.8,33.8-47.2,61.9   c-7,26.5-4.5,55.4,6.9,79c10.7,22.4,28.6,42,51.7,56.9c19.7,12.6,42.7,21.6,67,26.1c2.9,21.4,10.4,42.6,22.1,61.7   c-47.7-5.3-90.3-18.8-129.5-41c-23.5-13.3-56.7-37.1-81.4-74.7c-29-44.2-39.4-96.9-30.7-156.6c4.2-28.9,23.7-61.3,45.2-75.4   c39.1-25.5,83.6-26.3,114.1-22.4c7.9,1,16.1,2.2,23.9,3.3C359,431.4,373.4,433.4,387.8,434.7z"/></g><g class="st0" id="flat"><g class="st3"><g><g><g><g><g><g><g><g><g><path class="st6" d="M510.8,137.1c-31.8-28-68.9-38.5-111.1-34.8c-55,4.8-109,34.5-136,82.7             c-27,48.2-22,114.4,17.2,153.2c17.8,17.6,38.5,32.5,61,43.4c23.2,11.3,37.9,28.3,47,45.6c48.9,9.5,90.5-1.2,126.2-28.5             c-7.2-25.9-6.1-39.2,1.4-65.5c7.8-27.5,22.8-47.3,29.5-75.1C557.2,211.2,542.6,165.1,510.8,137.1z"/></g></g></g></g></g></g></g></g></g><g><g><g><g><g><g><g><g><g><path class="st9" d="M789.9,415.7c-11.8-26.9-35.6-58.9-61.5-72.9c-45-24.5-100.1-10-144.8,15             c-44.7,25-86.7,58.3-137,67.7c-41.1,7.6-83.2-1.7-124.7-6.9c-41.5-5.2-84.1,0.8-119.1,23.6c-24.6,16-44.3,51.6-48.6,80.6             C133.7,663.5,221,733.8,270,761.6c46.8,26.5,96.8,39.7,148.4,43.4h0l115.6-5.6c0,0,0,0,0,0c20.5-3.3,41-8.3,60.9-15.1             c0,0,0,0,0,0l98.8-51.7c24.4-18.5,45.9-40.4,63-65.5C807.8,592.3,826.2,498.7,789.9,415.7z"/></g></g></g></g></g></g></g></g></g><g><g><g><g><g><g><g><g><g><path class="st6" d="M686.2,435.9c-31.7-17.3-71.3-14.5-104.7-1c-43.5,17.5-74.2,57.1-120.1,68             c-50.4,11.9-107.6-10.1-155.1,14.3c-44.7,23-58.7,85.8-37,131.1c21.5,44.7,69.7,72.1,118.7,79.8l64.2,4.2             c30.2-0.6,60.4-4.7,88.9-12.6c31.5-8.6,62.4-22.1,91-38.7l50.2-35c27.6-24.9,48.1-57.9,54.4-94.2             C744.4,507.4,725.6,457.5,686.2,435.9z"/></g></g></g></g></g></g></g></g></g><g><g><g><g><g><g><g><g><g><path class="st8" d="M694.3,695.4c-3.8-42.8-24.3-86-58-112.6c-22.5-17.7-49.4-25.8-77.3-25.1l-122.3,44.7             c-1.1,0.9-2.1,1.9-3.1,2.8c-26,25-40.2,57-45.1,92.9c-5.4,40,8.7,82.3,34.9,113.1c26.1,30.8,63,49.2,103.3,47.1             c32.3-1.7,61.4-5.6,89.8-21.2c26-14.2,53.6-41.4,66.6-68C694.1,746.6,696.5,720.4,694.3,695.4z M602,779.8             c-28.2,20.5-76.1,27.2-106.2,9.7c-30.1-17.5-48.7-51.6-46.7-86.4c1.1-18.7,9.8-35,22.2-48.8l98.5-34.5             c10.2,2.6,19.7,6.8,27.5,12.2c24.4,17,38.1,45.6,39.2,75.4C637.7,737.2,626.1,762.2,602,779.8z"/></g></g></g></g></g></g></g></g></g><g><g><g><g><g><g><g><g><g><path class="st9" d="M450,562.2c-12.7,13.5-18.1,33.4-14.1,51.4c4,18,18.7,36.3,35.9,43.1c17.9,7,35.4,7.2,54.2,3.7             c14.8-2.8,32.2-12.3,40.3-25c5.5-8.5,6.2-19.2,5.9-29.3c-0.3-14.4-2.2-29-8-42.1c-5.8-13.1-16-24.8-29.4-30             c-15.5-6.1-31.4-5.4-45.7,0.1C469.4,541.7,462.5,548.9,450,562.2z"/></g></g></g></g></g></g></g></g></g><g><g><g><g><g><g><g><g><g><path class="st7" d="M413,435.8c-9.1,0-18.8-0.5-29.4-1.5c-4.1-0.4-7.1-4.1-6.7-8.2c0.4-4.1,4.1-7.1,8.2-6.7             c23.8,2.3,42.9,1.9,60.1-1.3c20.4-3.8,40.8-11.8,66.2-25.9c3.6-2,8.2-0.7,10.2,2.9c2,3.6,0.7,8.2-2.9,10.2             c-26.9,15-48.7,23.5-70.8,27.6C437.1,434.8,425.7,435.8,413,435.8z"/></g></g></g></g></g></g></g></g></g><g><g><g><g><g><g><g><g><g><path class="st7" d="M269.3,655.7c-2.8,0-5.5-1.6-6.8-4.3c-11.4-23.7-13.9-52.5-6.9-79c7.4-28.1,24.2-50.1,47.2-61.9             c29.2-15,61.5-13.6,92.7-12.2c22.6,1,43.9,2,64.2-2.8c24.2-5.7,43.9-20,64.9-35c16.8-12.1,34.1-24.5,54.2-32.6             c39.8-16,80.3-15.5,111.1,1.4c20.4,11.2,36.4,29.5,46.2,53.1c9.2,22.1,12.1,47.2,8.1,70.6c-0.7,4.1-4.6,6.8-8.7,6.1             c-4.1-0.7-6.8-4.6-6.1-8.7c7.5-43.6-12.1-89-46.7-108c-26.9-14.7-62.7-14.9-98.3-0.6c-18.4,7.4-35,19.3-51,30.9             c-21.2,15.3-43.1,31-70.2,37.4c-22.3,5.3-45.7,4.2-68.3,3.2c-30.6-1.4-59.4-2.7-85.1,10.5c-19.2,9.9-33.3,28.5-39.6,52.4             c-6.1,23.1-3.9,48.2,5.9,68.7c1.8,3.7,0.2,8.2-3.5,10C271.4,655.5,270.3,655.7,269.3,655.7z"/></g></g></g></g></g></g></g></g></g><g><g><g><g><g><g><g><g><g><path class="st7" d="M503.7,668.2c-12,0-23-2.1-33.7-6.3c-18.7-7.4-34.9-26.8-39.5-47.2c-4.5-20,1.5-41.8,15.5-56.7l0,0             c12.4-13.2,19.8-21.1,40.9-29.2c16.6-6.4,33.8-6.4,49.9-0.1c13.8,5.5,25.8,17.5,32.7,33.1c5.4,12.1,8,26,8.4,43.8             c0.2,10.5-0.4,22.5-7,32.7c-9.7,15.2-29.2,24.8-44.1,27.6C518.7,667.4,511,668.2,503.7,668.2z M512.2,539             c-6.6,0-13.3,1.3-19.8,3.8c-17.9,6.9-23.7,13.1-35.4,25.5c-10.5,11.2-15.2,28.2-11.8,43.2c3.5,15.6,16.3,31,30.4,36.5             c14.6,5.8,29.6,6.7,48.6,3.2c11.8-2.2,27.3-10.1,34.3-21c4.3-6.8,4.8-16.1,4.6-24.3c-0.3-15.7-2.6-27.8-7.1-38             c-5.3-12-14.3-21.2-24.5-25.3C525.1,540.2,518.7,539,512.2,539z M451.5,563.1L451.5,563.1L451.5,563.1z"/></g></g></g></g></g></g></g></g></g><g><g><g><g><g><g><g><g><path class="st7" d="M361.8,321.5c-21.9,0-41.4-6.4-55.3-18c-3.2-2.7-3.6-7.4-0.9-10.6c2.7-3.2,7.4-3.6,10.6-0.9            c11.7,9.8,28.7,14.9,48,14.5c17.7-0.4,35.3-3.1,53.7-8.2c25-6.9,44-15.5,58.2-26.3c14.3-10.9,27-30.5,23.2-49.9            c-0.8-4.1,1.8-8,5.9-8.8c4.1-0.8,8,1.8,8.8,5.9c4.5,22.6-6.9,48-28.8,64.7c-15.8,12-36.5,21.4-63.3,28.8            c-19.6,5.4-38.4,8.3-57.3,8.7C363.6,321.5,362.7,321.5,361.8,321.5z"/></g></g></g></g></g></g></g></g></g></g><g class="st0" id="colored_x5F_line"><g class="st3"><path class="st8" d="M451.1,728c0,0,105.2-3.2,177.4-56.9c0,0-22.9-50.6-58.3-54.4c0,0-4.8,33.7-44.7,41.9    c-39.9,8.2-52.7-3.6-52.7-3.6S439,677.9,451.1,728z"/></g><g class="st3"><path class="st8" d="M510.8,137.1c-31.8-28-68.9-38.5-111.1-34.8c-55,4.8-109,34.5-136,82.7c-27,48.2-22,114.4,17.2,153.2    c17.8,17.6,38.5,32.5,61,43.4c23.2,11.3,37.9,28.3,47,45.6c39.3,6.9,81.7-4.3,126.2-28.5c-7.2-25.9-6.1-39.2,1.4-65.5    c7.8-27.5,22.8-47.3,29.5-75.1C557.2,211.2,542.6,165.1,510.8,137.1z"/></g><g class="st3"><path class="st8" d="M686.2,435.9c-31.7-17.3-71.3-14.5-104.7-1c-43.5,17.5-74.2,57.1-120.1,68c-50.4,11.9-107.6-10.1-155.1,14.3    c-44.7,23-58.7,85.8-37,131.1c21.5,44.7,69.7,72.1,118.7,79.8c-0.9-10-0.8-20,0.5-30c4.8-35.9,19.1-67.9,45.1-92.9    c1-1,2-1.9,3.1-2.8l0,0c-0.3-14.3,5.1-28.8,14.9-39.3c12.1-12.8,18.8-19.9,38.1-27.4c14-5.4,29.3-6,44.4-0.1    c10.5,4.1,19,12.3,24.9,22c27.9-0.8,54.9,7.4,77.3,25.1c20.5,16.2,36.1,38.5,46,63.1c27.6-24.9,48.1-57.9,54.4-94.2    C744.4,507.4,725.6,457.5,686.2,435.9z"/></g><path class="st17" d="M796.7,412.7c-11.8-27-36.4-61.1-64.8-76.5c-22.3-12.2-48.3-16.2-77.2-11.9c-23.7,3.5-49.6,12.8-74.9,27   c-11.5,6.4-22.9,13.5-34,20.3c-31.7,19.6-64.5,39.8-100.7,46.5c-32,5.9-65.7,1.1-98.2-3.6c-7.9-1.1-16.1-2.3-24.2-3.3   c-47.3-5.9-90.2,2.6-124.1,24.8c-24.8,16.2-47.1,53-51.9,85.8c-9.3,63.4,1.8,119.6,33,167c26.3,40.1,61.6,65.3,86.5,79.5   c44,24.9,93.8,39.8,148.3,44.1c1,1.3,2,2.5,3.1,3.8c27.1,31.9,64.4,49.9,103,49.9c2.1,0,4.3-0.1,6.4-0.2c35-1.8,64.2-6.3,93-22.1   c28.4-15.6,56.5-44.2,69.7-71.2c5.2-10.6,8.9-22.6,10.9-35.6c24.7-19.1,45.7-41.1,62.3-65.4c26.6-39,44.1-82.5,50.6-125.8   C820.5,498.8,814.8,454.1,796.7,412.7z M612.8,830.5c-26.3,14.4-53.6,18.5-86.6,20.2c-36.2,1.9-71.6-14.3-97.2-44.4   c-25.7-30.3-38.1-70.3-33.2-107.2c4.3-32.1,16.3-59.3,35.5-80.8c4.4,15.3,15.2,29.6,28.3,38.3c-11.2,14.6-17.3,30.1-18.2,46.2   c-2.1,37.7,17.7,74.3,50.5,93.3c12.5,7.2,28.3,11,45.5,11c4.2,0,8.5-0.2,12.8-0.7c20.7-2.2,41.1-9.7,56-20.5   c25.9-18.8,38.9-46.1,37.6-78.7c-1.3-33.3-17.2-63.7-42.5-81.2c-6.8-4.7-15-8.7-23.7-11.5c0.2-3,0.2-5.9,0.1-8.8   c-0.3-16-2.5-28.9-6.9-40.1c22.5,1.6,43.2,9.5,60.6,23.2c30.7,24.2,51.3,64.4,55.2,107.4c2.4,26.7-1.2,50.8-10.5,69.7   C664.5,789.9,638.4,816.5,612.8,830.5z M457,568.3c11.6-12.4,17.5-18.6,35.4-25.5c6.6-2.5,13.2-3.8,19.8-3.8c6.5,0,13,1.2,19.2,3.7   c10.2,4,19.1,13.2,24.5,25.3c4.5,10.2,6.8,22.3,7.1,38c0.2,8.2-0.2,17.5-4.6,24.3c-7,10.8-22.5,18.8-34.3,21   c-19,3.6-33.9,2.6-48.6-3.2c-14.1-5.6-26.9-20.9-30.4-36.5C441.8,596.4,446.5,579.5,457,568.3z M473.6,663.2c9.6,3.3,19.5,5,30.1,5   c7.3,0,15-0.8,23.2-2.3c14.9-2.8,34.4-12.4,44.1-27.6c1.8-2.9,3.2-5.9,4.2-9c6.6,2.3,12.7,5.3,17.8,8.9   c21.5,14.9,34.9,40.9,36,69.5c1.1,27.4-9.8,50.2-31.5,66c-12.8,9.3-30.6,15.8-48.7,17.7c-18.9,2-36.4-1-49.3-8.4   c-28-16.2-44.8-47.4-43-79.5C457.3,689.6,463,676.1,473.6,663.2z M798.7,543.4c-6.1,41-22.8,82.4-48.1,119.5   c-13.2,19.3-29.3,37.1-48.1,53.1c0.2-6.9-0.1-14-0.7-21.3c-4.2-47-26.9-91.1-60.8-117.8c-22.1-17.4-49-26.7-77.9-26.7   c-6.9-9.9-16-17.5-26.1-21.5c-16.1-6.3-33.3-6.3-49.9,0.1c-21.1,8.1-28.5,16.1-40.9,29.2c-10.4,11.1-16.4,26-17,41.1   c-0.3,0.2-0.5,0.5-0.8,0.7c-26.1,25.1-42,57.8-47.3,97.3c-4.5,33.3,3.7,68.9,22.2,99.1c-47.7-5.3-90.3-18.8-129.5-41   c-23.5-13.3-56.7-37.1-81.4-74.7c-29-44.2-39.4-96.9-30.7-156.6c4.2-28.9,23.7-61.3,45.2-75.4c39.1-25.5,83.6-26.3,114.1-22.4   c7.9,1,16.1,2.2,23.9,3.3c33.8,4.9,68.7,9.9,103.1,3.5c39-7.2,73-28.2,105.9-48.5c10.9-6.7,22.2-13.7,33.5-20   c70.8-39.7,116.5-26.4,137.5-15c25.1,13.7,47.7,45.5,58.2,69.4C800,457.5,805.2,499.4,798.7,543.4z"/><g class="st3"><g><path class="st16" d="M361.8,321.5c-21.9,0-41.4-6.4-55.3-18c-3.2-2.7-3.6-7.4-0.9-10.6c2.7-3.2,7.4-3.6,10.6-0.9     c11.7,9.8,28.7,14.9,48,14.5c17.7-0.4,35.3-3.1,53.7-8.2c25-6.9,44-15.5,58.2-26.3c14.3-10.9,27-30.5,23.2-49.9     c-0.8-4.1,1.8-8,5.9-8.8c4.1-0.8,8,1.8,8.8,5.9c4.5,22.6-6.9,48-28.8,64.7c-15.8,12-36.5,21.4-63.3,28.8     c-19.6,5.4-38.4,8.3-57.3,8.7C363.6,321.5,362.7,321.5,361.8,321.5z"/></g></g></g></svg>