<?xml version="1.0" ?><svg width="960px" height="960px" viewBox="0 0 960 960" style="enable-background:new 0 0 960 960;" version="1.1" xml:space="preserve" xmlns="http://www.w3.org/2000/svg" xmlns:xlink="http://www.w3.org/1999/xlink"><style type="text/css">
	.st0{display:none;}
	.st1{display:inline;opacity:0.93;}
	.st2{display:inline;fill:none;stroke:#000000;stroke-width:15;stroke-linecap:round;stroke-linejoin:round;stroke-miterlimit:10;}
	.st3{display:inline;}
	.st4{fill:none;stroke:#000000;stroke-width:15;stroke-linecap:round;stroke-linejoin:round;stroke-miterlimit:10;}
	.st5{display:inline;fill:none;stroke:#1A1D3F;stroke-width:15;stroke-linecap:round;stroke-linejoin:round;stroke-miterlimit:10;}
	.st6{fill:#DDEDE7;}
	.st7{fill:#1A1D3F;}
	.st8{fill:#E9B44D;}
	.st9{fill:#ED644E;}
	.st10{fill:#494EDF;}
	.st11{fill:#3DC5A1;}
	.st12{fill:#F6CEC1;}
	.st13{fill:none;}
	.st14{fill:none;stroke:#1A1D3F;stroke-width:15;stroke-linecap:round;stroke-linejoin:round;stroke-miterlimit:10;}
	.st15{display:inline;fill:#E9B44D;}
	.st16{fill:#222222;}
	.st17{display:inline;fill:#222222;}
</style><g class="st0" id="guide"/><g class="st0" id="sketch"/><g class="st0" id="stroke"><g class="st3"><path class="st4" d="M268.9,693.1c-13.9,23.4-11.9,54.8,3.6,77.1c15.5,22.3,43.3,35,70.5,33.6c25.9-1.3,51.1-15.4,64.6-37.5    c13.5-22.1,14.2-51.8,0.6-73.8C381.1,648.9,295.3,648.8,268.9,693.1z"/><path class="st4" d="M545.3,699.3c-12.9,32.7,0,73.3,28.7,93.6c28.7,20.3,70.2,19.5,99-0.8c26.2-18.5,37.7-53.4,29.5-84.4    C684.2,639.1,571.2,633.7,545.3,699.3z"/><path class="st4" d="M312.8,720.2c-4.2,11-1.1,24.4,7.5,32.3c8.6,8,22.2,10,32.8,5s17.5-16.9,16.8-28.7    c-0.5-7.3-3.9-14.5-9.6-19.2C344.8,696.7,320.4,700.5,312.8,720.2z"/><path class="st4" d="M604.5,700.9c-8.8,6.2-13.8,17.1-13.2,27.9c0.5,8.7,4.5,17.2,11.1,23c6.6,5.7,15.7,8.6,24.4,7.4    c12.7-1.6,23.8-12.1,26.1-24.7C657.7,708,627.7,684.5,604.5,700.9z"/><path class="st4" d="M540.4,729.6c-40.8,0.4-81.6,0.7-122.4,1"/><path class="st4" d="M259.5,732.5c-33.2,0.5-66.2,1.2-99,2.1c-7.7,0.2-14.3-5.3-15.5-12.9c-5-32.6-9.2-85.8,18.3-129.6    c31.7-50.4,86.9-74.5,154.8-75c-9.9-66.9-14.5-91.4,7.7-147.7c22.2-56.3,72.9-100.1,133.1-106.3c57.2-5.8,115.4,21.9,142.8,72.4    s26.6,91.6,33.2,177.1c84.1,0,121.5,16.9,151.6,50.7c29.8,33.4,36,94.3,31.6,147.7c-0.7,8-7.2,14.3-15.3,14.4    c-23.3,0.5-70.3,1.6-97.7,2.1"/><path class="st4" d="M318.1,517.1c94.4-1.4,222.3-3,316.8-4.5"/><path class="st4" d="M470.2,515c-2.8-84.1-3.5-168.3-2-252.4"/><path class="st4" d="M777.4,553.9c-10,4.1-19,11.8-21.9,22.2c-3.4,12,2.1,25.2,11.6,33.3c9.5,8,22.2,11.3,34.6,11.5    c3.8,0.1,7.6-0.1,11.4-0.5"/><path class="st4" d="M497.4,562.2c8.1-0.4,16.1-0.8,24.2-1.2"/><path class="st4" d="M341.8,565.2c9.4-0.6,18.8-1.3,28.1-1.9"/><path class="st4" d="M152.5,613.7c6.7,1.3,13.1,4.4,17.3,9.7c6.4,8.1,6.7,19.3,6.8,29.6c0,7.7,0,15.4,0.1,23.1    c0,6.4,0,13.2-3,18.9c-3.8,7.4-11.9,11.8-20.1,13.3c-3.4,0.6-6.9,0.8-10.3,0.7"/><path class="st4" d="M163.4,190c4.5,40.7,17,81.3,21.5,122c13.5,1.7,27,3.4,40.5,5.1c-16,10.4-32,20.8-48,31.2    c11,2.3,22.1,4.6,33.1,6.8c11.5,57.9,23.1,115.7,34.6,173.6"/><path class="st4" d="M153.5,189.1c22.3,6.8,38.2-24.4,15.3-34.9C145.3,143.4,127.4,181.2,153.5,189.1z"/></g><path class="st2" d="M111.2,141.5c-6.1-3.8-12.3-7.7-18.4-11.5"/><path class="st2" d="M149.6,118.3c-1.7-5.5-6.5-20.7-8.3-26.2"/><path class="st2" d="M189.2,121.3c6-5,11.9-10.1,17.9-15.1"/></g><g id="outline"><path d="M365.2,703.8c-9.9-8.2-23.1-11.2-35.2-8c-11.2,2.9-20,10.8-24.1,21.7c-5.3,13.8-1.4,30.5,9.5,40.5   c6.9,6.3,16.2,9.7,25.4,9.7c5.4,0,10.8-1.1,15.7-3.5c13.4-6.4,22-21.2,21-35.9C376.8,718.7,372.3,709.7,365.2,703.8z M350,750.7   c-7.8,3.7-18.1,2.2-24.5-3.7c-6.4-5.9-8.7-16-5.6-24.1c2.4-6.4,7.4-10.8,13.9-12.5c7.5-2,15.6-0.1,21.8,5c3.9,3.3,6.5,8.5,6.9,13.9   C363.1,738,357.8,747,350,750.7z M641.5,694.2c-13.3-8.5-28.7-8.3-41.4,0.6c-10.7,7.5-17.1,21-16.4,34.4   c0.6,10.9,5.6,21.2,13.7,28.2c7,6.1,16.3,9.5,25.6,9.5c1.6,0,3.1-0.1,4.7-0.3c15.9-2,29.6-15,32.5-30.8   C663.1,719.9,655.6,703.2,641.5,694.2z M645.5,733.1c-1.7,9.4-10.2,17.4-19.7,18.6c-6.5,0.8-13.4-1.3-18.5-5.7   c-5-4.3-8.2-11-8.6-17.7c-0.4-8.3,3.5-16.7,10.1-21.3c10.7-7.6,20.8-2.7,24.6-0.3C640.9,711.6,647.6,721.6,645.5,733.1z M820.6,619   c0-0.2-0.1-0.4-0.1-0.6c-5.8-25.2-15.3-45.4-28.3-60c-3-3.4-6.1-6.5-9.2-9.5c-0.2-0.3-0.5-0.5-0.8-0.8   c-31.9-30.1-72-42.2-140.3-42.9c-0.7-8.8-1.2-17-1.8-25.1c-4.5-64.2-7.2-103-31.8-148.1c-26.6-49-81.9-79-139.8-77c0,0-0.1,0-0.1,0   c-0.3,0-0.7,0-1,0.1c-3.1,0.1-6.1,0.3-9.2,0.6c-60.5,6.2-115.1,49.7-139.3,111c-22,55.7-18.4,81.8-9.4,143.1   c-21.1,0.8-40.7,3.9-58.6,9.1l-33-165.3c-0.6-3-2.9-5.3-5.8-5.9l-5.9-1.2c-3.1-0.6-6.2-1.3-9.4-1.9c10.9-7.1,21.8-14.1,32.7-21.2   c2.6-1.7,3.9-4.9,3.2-8c-0.7-3.1-3.3-5.4-6.4-5.8l-34.7-4.4c-2.4-18.7-6.3-37.6-10.2-55.8c-3.8-18-7.6-36.5-9.9-54.7   c6.7-3.3,11.8-9.1,14.2-15.6c4.1-10.8,1.4-24.9-13.8-31.9c-9.4-4.3-19.5-3.2-27.5,3c-8.4,6.5-12.8,17.5-10.9,27.3   c1.7,8.9,8.1,15.6,17.8,18.6c1.9,0.6,3.7,0.9,5.4,1.1c2.4,18.5,6.3,37.1,10.1,55.2c4.1,19.8,8.4,40.3,10.6,60.3   c0.4,3.4,3.1,6.2,6.5,6.6l20.1,2.5c-10.3,6.7-20.5,13.3-30.8,20c-2.6,1.7-3.8,4.7-3.3,7.7c0.6,3,2.9,5.3,5.9,6   c9.1,1.9,18.1,3.8,27.2,5.6l1,0.2l32.4,162.4c-33.8,12.9-60.7,34.6-79.5,64.3c-20,31.7-26.9,71.4-21.2,121.2c0,0.3,0.1,0.6,0.1,0.9   c0.5,4.1,1,8.3,1.7,12.6c1.7,11.1,11.3,19.3,22.5,19.3c0.2,0,0.4,0,0.6,0c29.1-0.8,59.3-1.4,92.1-1.9c1.8,12.1,6.3,24,13.5,34.4   c15.8,22.7,43.9,36.9,72.6,36.9c1.5,0,3,0,4.5-0.1c29-1.5,56-17.2,70.6-41.1c6-9.8,9.6-20.9,11-32.1c20.4-0.2,40.8-0.4,61.2-0.5   c15.8-0.1,31.5-0.3,47.3-0.4c3,24.2,15.8,47.4,36.3,61.8c15.2,10.8,34,16.1,52.8,16.1c19.3,0,38.8-5.6,54.8-16.9   c20.4-14.4,33-38.1,35-63.2c27.4-0.5,67.8-1.4,90.7-2c11.9-0.3,21.6-9.5,22.6-21.3c2.5-29.9,1.4-58.7-3.1-83.3   C821.9,625.2,821.3,622.1,820.6,619z M155.6,181.9c-4.3-1.3-6.8-3.6-7.4-7c-0.8-4.3,1.5-9.7,5.4-12.7c1.6-1.2,3.9-2.4,6.8-2.4   c1.6,0,3.3,0.3,5.2,1.2c8.4,3.8,7,10.3,6,12.9C170,178.6,164.2,184.5,155.6,181.9z M775.9,563c1.7,1.8,3.4,3.6,5,5.4   c9.9,11.1,17.6,26.4,22.8,45c-0.6,0-1.2,0-1.8,0c-12.1-0.2-22.7-3.6-29.9-9.7c-7.8-6.6-11.6-17.1-9.2-25.5   C764.4,572.2,769.2,566.8,775.9,563z M475.6,269.9c49.9,0.5,96.6,27.1,119.5,69.2c23,42.3,25.5,77.7,30,142   c0.5,7.7,1.1,15.7,1.7,24.1c-45.2,0.7-98.1,1.4-149.3,2.1C475,428.6,474.3,348.8,475.6,269.9z M332.8,372.2   c22.1-56.1,71.9-95.9,126.9-101.5c0.3,0,0.6,0,1-0.1c-1.2,78.7-0.6,158.4,1.9,237c-47.7,0.7-96.1,1.3-137.9,1.9   C315.5,447.9,312.1,424.7,332.8,372.2z M157.1,622.9c2.5,1.1,4.9,2.7,6.9,5.2c4.7,5.9,5.1,14.8,5.2,25c0,7.7,0,15.4,0.1,23.1   c0,5.5,0,11.2-2.1,15.5c-2.4,4.6-7.9,8.1-14.7,9.3c-0.7,0.1-1.5,0.2-2.3,0.3C147.2,671,149.6,645.1,157.1,622.9z M401.1,762.4   c-12,19.7-34.4,32.7-58.5,33.9c-1.2,0.1-2.5,0.1-3.7,0.1c-23.8,0-47.1-11.7-60.2-30.5c-14.1-20.2-15.4-48.6-3.3-69   c10.7-18,34.6-29.4,62.3-29.7c0.3,0,0.6,0,0.9,0c27.9,0,52,11.1,63.2,29.1C413.7,715.7,413.4,742.2,401.1,762.4z M668.7,786   c-26.5,18.7-64.5,19-90.3,0.8c-26.1-18.5-37.6-55.7-26.1-84.7c7.7-19.6,30.2-41.5,68.7-41.5c2,0,4,0.1,6,0.2   c25.8,1.5,59.2,15.2,68.2,49c1.6,5.9,2.3,11.9,2.4,17.9c0,0.1,0,0.2,0,0.3c0,0.1,0,0.1,0,0.2C697.7,750.8,687,773.1,668.7,786z    M810.7,710.5c-0.3,4.2-3.8,7.5-8,7.6c-22.8,0.5-63.1,1.5-90.4,1.9c-0.4-4.8-1.3-9.5-2.5-14.2c-9.1-34.1-41.2-57.7-81.9-60.1   c-41.2-2.4-76.4,17.6-89.5,50.8c-3.2,8.2-5,16.9-5.5,25.6c-15.6,0.1-31.2,0.3-46.9,0.4c-20.3,0.2-40.5,0.3-60.7,0.5   c-0.8-12.2-4.4-24.2-10.8-34.5c-13.9-22.4-42.9-36.2-75.9-36.2c-0.4,0-0.7,0-1.1,0c-32.9,0.3-61.6,14.5-75,37   c-6.5,10.9-9.9,23.2-10.4,35.8c-32.7,0.6-62.8,1.2-91.7,1.9c-3.9,0.1-7.3-2.7-7.9-6.6c-0.2-1.5-0.5-3-0.7-4.5   c1.1-0.1,2.1-0.3,3.2-0.4c11.4-2,21-8.5,25.4-17.2c3.8-7.4,3.8-15.7,3.8-22.3c0-7.7-0.1-15.4-0.1-23.1c0-10-0.1-23.8-8.4-34.2   c-3.3-4.2-7.8-7.5-13-9.7c2.1-4.4,4.5-8.7,7-12.8c29.1-46.2,80.5-71,148.5-71.5c0,0,0,0,0,0c0,0,0,0,0,0   c47.2-0.7,103.7-1.5,158.4-2.2c54.6-0.7,111.1-1.5,158.3-2.2c69.2,0,104.5,12,129.5,32.3c-8.1,5.6-13.8,13.1-16.2,21.6   c-4,14.1,1.7,30.6,14,41c12.6,10.7,28.4,13.1,39.4,13.2c0.5,0,0.9,0,1.4,0c1.4,0,2.8,0,4.2-0.1C811.9,652,813.2,679.9,810.7,710.5z    M529.1,560.6c0.2,4.1-3,7.7-7.1,7.9l-24.2,1.2c-0.1,0-0.3,0-0.4,0c-4,0-7.3-3.1-7.5-7.1c-0.2-4.1,3-7.7,7.1-7.9l24.2-1.2   C525.4,553.3,528.9,556.5,529.1,560.6z M377.4,562.8c0.3,4.1-2.8,7.7-7,8l-28.1,1.9c-0.2,0-0.3,0-0.5,0c-3.9,0-7.2-3-7.5-7   c-0.3-4.1,2.8-7.7,7-8l28.1-1.9C373.5,555.5,377.1,558.6,377.4,562.8z M117.5,145.5c-1.4,2.3-3.9,3.5-6.4,3.5c-1.4,0-2.7-0.4-4-1.1   l-18.4-11.5c-3.5-2.2-4.6-6.8-2.4-10.3c2.2-3.5,6.8-4.6,10.3-2.4l18.4,11.5C118.6,137.4,119.7,142,117.5,145.5z M148.5,89.8   l8.3,26.2c1.2,4-0.9,8.2-4.9,9.4c-0.8,0.2-1.5,0.3-2.3,0.3c-3.2,0-6.1-2-7.2-5.2l-8.3-26.2c-1.2-4,0.9-8.2,4.9-9.4   C143.1,83.7,147.3,85.9,148.5,89.8z M212.9,101.4c2.7,3.2,2.3,7.9-0.9,10.6L194.1,127c-1.4,1.2-3.1,1.8-4.8,1.8   c-2.1,0-4.3-0.9-5.7-2.7c-2.7-3.2-2.3-7.9,0.9-10.6l17.9-15.1C205.5,97.8,210.2,98.2,212.9,101.4z"/></g><g class="st0" id="flat"><g class="st3"><g><g><g><g><g><g><g><g><path class="st6" d="M601.7,335.6c-27.4-50.5-85.6-78.2-142.8-72.4c-60.2,6.1-110.9,50-133.1,106.3s-17.5,80.8-7.7,147.7            c108.2,11.7,214.4,13.2,316.8-4.5C628.3,427.2,629.1,386.1,601.7,335.6z"/></g></g></g></g></g></g></g></g><g><g><g><g><g><g><g><g><path class="st9" d="M786.5,563.4c-30.2-33.8-67.5-50.7-151.6-50.7c-94.4,1.4-222.3,3-316.8,4.5            c-67.9,0.5-123,24.6-154.8,75c-27.6,43.8-23.4,96.9-18.3,129.6c1.2,7.6,7.8,13.1,15.5,12.9c32.8-0.8,65.8-1.5,99-2.1            l445.6-4.9c27.4-0.5,74.5-1.5,97.7-2.1c8-0.2,14.6-6.4,15.3-14.4C822.5,657.7,816.3,596.8,786.5,563.4z"/></g></g></g></g></g></g></g></g><g><g><g><g><g><g><g><g><path class="st8" d="M777.4,553.9c-10,4.1-19,11.8-21.9,22.2c-3.4,11.9,2.2,25.2,11.6,33.3c9.5,8,22.2,11.3,34.6,11.5            c3.8,0.1,7.6-0.1,11.4-0.5C813.6,588.2,804.1,566,777.4,553.9z"/></g></g></g></g></g></g></g></g><g><g><g><g><g><g><g><g><g><path class="st7" d="M338.5,652.3c-0.4,0-0.7,0-1.1,0c-32.9,0.3-61.6,14.5-75,37c-15.3,25.7-13.7,59.9,3.9,85.2             c15.8,22.7,43.9,36.9,72.6,36.9c1.5,0,3,0,4.5-0.1c29-1.5,56-17.2,70.6-41.1c15.2-24.9,15.4-57.7,0.6-81.6             C400.6,666.2,371.6,652.3,338.5,652.3z"/></g></g></g></g></g></g></g></g><g><g><g><g><g><g><g><g><path class="st7" d="M709.7,705.8c-9.1-34.1-41.2-57.7-81.9-60.1c-41.2-2.4-76.4,17.6-89.5,50.8             c-14.1,35.7-0.6,79.8,31.4,102.5c15.2,10.8,34,16.1,52.8,16.1c19.3,0,38.8-5.6,54.8-16.9             C705.6,778.3,718.9,740.3,709.7,705.8z"/></g></g></g></g></g></g></g></g></g><g><g><g><g><g><g><g><g><path class="st6" d="M303.7,716.6c-5.6,14.6-1.4,32.4,10,43c11.5,10.6,29.6,13.3,43.7,6.6c14.1-6.7,23.3-22.5,22.3-38.1            c-0.7-9.8-5.2-19.3-12.8-25.6C346.3,685.4,313.8,690.4,303.7,716.6z"/></g></g></g></g></g></g></g></g><g><g><g><g><g><g><g><g><path class="st6" d="M600.9,695.5c-10.5,7.4-16.6,20.6-15.9,33.5c0.6,10.5,5.5,20.7,13.4,27.6c7.9,6.9,18.9,10.3,29.3,9            c15.3-2,28.6-14.6,31.4-29.7C664.9,704.1,628.8,675.8,600.9,695.5z"/></g></g></g></g></g></g></g></g><g><g><g><g><g><g><g><path class="st7" d="M642.4,512.1c-0.9-11.4-1.6-21.9-2.3-32c-4.5-64.2-7.2-103-31.8-148.1           c-28.2-51.9-88.6-82.6-150.2-76.3c-60.5,6.2-115.1,49.7-139.3,111c-22.2,56.3-18.4,82.4-9,145.3l0.9,6.2           c0.6,3.7,3.8,6.4,7.4,6.4c0.4,0,0.7,0,1.1-0.1c4.1-0.6,6.9-4.4,6.3-8.5l-0.9-6.3c-9.2-61.8-12.6-85,8.2-137.6           c22.1-56.1,71.9-95.9,126.9-101.5c0.3,0,0.6,0,1-0.1c-1.3,81.3-0.6,163.5,2.1,244.7c0.1,4.1,3.5,7.3,7.5,7.3           c0.1,0,0.2,0,0.3,0c4.1-0.1,7.4-3.6,7.2-7.7c-2.7-81.2-3.4-163.5-2.1-244.8c49.9,0.5,96.6,27.1,119.5,69.2           c23,42.3,25.5,77.7,30,142c0.7,10.1,1.4,20.6,2.3,32.1c0.3,4.1,3.9,7.2,8.1,6.9C639.6,519.8,642.7,516.2,642.4,512.1z"/></g></g></g></g></g></g></g><g><g><g><g><g><g><g><g><path class="st7" d="M803.1,628.4c-0.5,0-0.9,0-1.4,0c-11-0.2-26.8-2.6-39.4-13.2c-12.3-10.4-18-26.9-14-41            c3.3-11.7,12.9-21.6,26.3-27.1c3.8-1.6,8.2,0.3,9.8,4.1c1.6,3.8-0.3,8.2-4.1,9.8c-9,3.7-15.5,10.1-17.5,17.3            c-2.4,8.4,1.4,18.9,9.2,25.5c7.2,6.1,17.8,9.5,29.9,9.7c3.4,0.1,6.8-0.1,10.5-0.5c4.1-0.4,7.8,2.6,8.2,6.7            c0.4,4.1-2.6,7.8-6.7,8.2C810.2,628.2,806.6,628.4,803.1,628.4z"/></g></g></g></g></g></g></g></g><g><g><g><g><g><g><g><g><path class="st7" d="M497.4,569.7c-4,0-7.3-3.1-7.5-7.1c-0.2-4.1,3-7.7,7.1-7.9l24.2-1.2c4.1-0.2,7.7,3,7.9,7.1            c0.2,4.1-3,7.7-7.1,7.9l-24.2,1.2C497.6,569.7,497.5,569.7,497.4,569.7z"/></g></g></g></g></g></g></g></g><g><g><g><g><g><g><g><g><path class="st7" d="M341.8,572.7c-3.9,0-7.2-3-7.5-7c-0.3-4.1,2.8-7.7,7-8l28.1-1.9c4.1-0.3,7.7,2.8,8,7s-2.8,7.7-7,8            l-28.1,1.9C342.1,572.7,341.9,572.7,341.8,572.7z"/></g></g></g></g></g></g></g></g><g><g><g><g><g><g><g><g><path class="st7" d="M145.2,716.4c-0.7,0-1.4,0-2.1,0c-4.1-0.1-7.4-3.6-7.3-7.7c0.1-4.1,3.6-7.4,7.7-7.3            c3.3,0.1,6.2-0.1,8.8-0.6c6.8-1.2,12.3-4.7,14.7-9.3c2.1-4.2,2.1-9.9,2.1-15.5c0-7.7-0.1-15.4-0.1-23.1            c0-10.2-0.4-19-5.2-25c-3.5-4.5-8.9-6.3-12.8-7c-4.1-0.8-6.8-4.7-6-8.7s4.7-6.8,8.7-6c9.2,1.7,16.7,6,21.8,12.4            c8.3,10.5,8.4,24.2,8.4,34.2c0,7.7,0,15.4,0.1,23.1c0,6.6,0,14.9-3.8,22.3c-4.5,8.8-14,15.2-25.4,17.2            C151.9,716.1,148.7,716.4,145.2,716.4z"/></g></g></g></g></g></g></g></g><g><g><g><g><g><g><g><g><path class="st7" d="M245.1,536.2c-3.5,0-6.6-2.5-7.3-6l-33.6-168.7l-1-0.2c-9.1-1.9-18.2-3.8-27.2-5.6            c-3-0.6-5.3-3-5.9-6c-0.6-3,0.7-6,3.3-7.7c10.3-6.7,20.5-13.3,30.8-20l-20.1-2.5c-3.4-0.4-6.1-3.2-6.5-6.6            c-2.2-19.9-6.7-40.9-11.1-61.2c-4.5-20.7-9.1-42-11.4-62.7c-0.5-4.1,2.5-7.8,6.6-8.3c4.1-0.5,7.8,2.5,8.3,6.6            c2.2,19.9,6.7,40.9,11.1,61.2c4,18.7,8.2,38,10.7,56.9l34.7,4.4c3.1,0.4,5.7,2.7,6.4,5.8c0.7,3.1-0.6,6.3-3.2,8            c-10.9,7.1-21.8,14.1-32.7,21.2c3.1,0.6,6.2,1.3,9.4,1.9l5.9,1.2c2.9,0.6,5.2,2.9,5.8,5.9l34.6,173.6            c0.8,4.1-1.8,8-5.9,8.8C246.1,536.1,245.6,536.2,245.1,536.2z"/></g></g></g></g></g></g></g></g><g><g><g><g><g><g><g><g><path class="st9" d="M152.3,192.3c26.2,8,45-28.7,18-41.1C142.7,138.5,121.6,182.9,152.3,192.3z"/></g></g></g></g></g></g></g></g><g><g><g><g><g><g><g><g><path class="st7" d="M111.1,149c-1.4,0-2.7-0.4-4-1.1l-18.4-11.5c-3.5-2.2-4.6-6.8-2.4-10.3c2.2-3.5,6.8-4.6,10.3-2.4            l18.4,11.5c3.5,2.2,4.6,6.8,2.4,10.3C116.1,147.8,113.6,149,111.1,149z"/></g></g></g></g></g></g></g></g><g><g><g><g><g><g><g><g><path class="st7" d="M149.6,125.8c-3.2,0-6.1-2-7.2-5.2l-8.3-26.2c-1.2-4,0.9-8.2,4.9-9.4c4-1.2,8.2,0.9,9.4,4.9l8.3,26.2            c1.2,4-0.9,8.2-4.9,9.4C151.1,125.7,150.4,125.8,149.6,125.8z"/></g></g></g></g></g></g></g></g><g><g><g><g><g><g><g><g><path class="st7" d="M189.2,128.8c-2.1,0-4.3-0.9-5.7-2.7c-2.7-3.2-2.3-7.9,0.9-10.6l17.9-15.1c3.2-2.7,7.9-2.3,10.6,0.9            c2.7,3.2,2.3,7.9-0.9,10.6L194.1,127C192.7,128.2,191,128.8,189.2,128.8z"/></g></g></g></g></g></g></g></g></g></g><g class="st0" id="colored_x5F_line"><g class="st3"><path class="st8" d="M786.5,563.4c-30.2-33.8-67.5-50.7-151.6-50.7c-94.4,1.4-222.3,3-316.8,4.5c-67.9,0.5-123,24.6-154.8,75    c-27.6,43.8-23.4,96.9-18.3,129.6c1.2,7.6,7.8,13.1,15.5,12.9c32.8-0.8,65.8-1.5,99-2.1l41.8-0.5c-0.2-5.3,0.5-10.6,2.4-15.5    c10.1-26.2,42.5-31.2,63.2-14.1c7.5,6.2,12.1,15.8,12.8,25.6c0.1,1.1,0.1,2.1,0.1,3.2L585,729c-0.7-12.9,5.4-26,15.9-33.5    c25.6-18.1,58.1,4.3,58.8,32.6l45.5-0.5c27.4-0.5,74.5-1.5,97.7-2.1c8-0.2,14.6-6.4,15.3-14.4    C822.5,657.7,816.3,596.8,786.5,563.4z"/></g><g class="st3"><path class="st16" d="M414.5,688.6c-13.9-22.4-42.9-36.2-75.9-36.2c-0.4,0-0.7,0-1.1,0c-32.9,0.3-61.6,14.5-75,37    c-15.3,25.7-13.7,59.9,3.9,85.2c15.8,22.7,43.9,36.9,72.6,36.9c1.5,0,3,0,4.5-0.1c29-1.5,56-17.2,70.6-41.1    C429.1,745.4,429.3,712.5,414.5,688.6z M357.4,766.2c-14.1,6.7-32.2,4-43.7-6.6s-15.6-28.4-10-43c10.1-26.2,42.5-31.2,63.2-14.1    c7.5,6.2,12.1,15.8,12.8,25.6C380.8,743.6,371.5,759.4,357.4,766.2z"/></g><g class="st3"><path class="st16" d="M709.7,705.8c-9.1-34.1-41.2-57.7-81.9-60.1c-41.2-2.4-76.4,17.6-89.5,50.8c-14.1,35.7-0.6,79.8,31.4,102.5    c15.2,10.8,34,16.1,52.8,16.1c19.3,0,38.8-5.6,54.8-16.9C705.6,778.3,718.9,740.3,709.7,705.8z M659,735.9    c-2.8,15.2-16.1,27.8-31.4,29.7c-10.4,1.3-21.3-2.1-29.3-9c-7.9-6.9-12.8-17.1-13.4-27.6c-0.7-12.9,5.4-26.1,15.9-33.5    C628.8,675.8,664.9,704.1,659,735.9z"/></g><g class="st3"><path class="st16" d="M642.4,512.1c-0.9-11.4-1.6-21.9-2.3-32c-4.5-64.2-7.2-103-31.8-148.1c-28.2-51.9-88.6-82.6-150.2-76.3    c-60.5,6.2-115.1,49.7-139.3,111c-22.2,56.3-18.4,82.4-9,145.3l0.9,6.2c0.6,3.7,3.8,6.4,7.4,6.4c0.4,0,0.7,0,1.1-0.1    c4.1-0.6,6.9-4.4,6.3-8.5l-0.9-6.3c-9.2-61.8-12.6-85,8.2-137.6c22.1-56.1,71.9-95.9,126.9-101.5c0.3,0,0.6,0,1-0.1    c-1.3,81.3-0.6,163.5,2.1,244.7c0.1,4.1,3.5,7.3,7.5,7.3c0.1,0,0.2,0,0.3,0c4.1-0.1,7.4-3.6,7.2-7.7    c-2.7-81.2-3.4-163.5-2.1-244.8c49.9,0.5,96.6,27.1,119.5,69.2c23,42.3,25.5,77.7,30,142c0.7,10.1,1.4,20.6,2.3,32.1    c0.3,4.1,3.9,7.2,8.1,6.9C639.6,519.8,642.7,516.2,642.4,512.1z"/><g><path class="st16" d="M803.1,628.4c-0.5,0-0.9,0-1.4,0c-11-0.2-26.8-2.6-39.4-13.2c-12.3-10.4-18-26.9-14-41     c3.3-11.7,12.9-21.6,26.3-27.1c3.8-1.6,8.2,0.3,9.8,4.1c1.6,3.8-0.3,8.2-4.1,9.8c-9,3.7-15.5,10.1-17.5,17.3     c-2.4,8.4,1.4,18.9,9.2,25.5c7.2,6.1,17.8,9.5,29.9,9.7c3.4,0.1,6.8-0.1,10.5-0.5c4.1-0.4,7.8,2.6,8.2,6.7     c0.4,4.1-2.6,7.8-6.7,8.2C810.2,628.2,806.6,628.4,803.1,628.4z"/></g><g><path class="st16" d="M497.4,569.7c-4,0-7.3-3.1-7.5-7.1c-0.2-4.1,3-7.7,7.1-7.9l24.2-1.2c4.1-0.2,7.7,3,7.9,7.1     c0.2,4.1-3,7.7-7.1,7.9l-24.2,1.2C497.6,569.7,497.5,569.7,497.4,569.7z"/></g><g><path class="st16" d="M341.8,572.7c-3.9,0-7.2-3-7.5-7c-0.3-4.1,2.8-7.7,7-8l28.1-1.9c4.1-0.3,7.7,2.8,8,7s-2.8,7.7-7,8     l-28.1,1.9C342.1,572.7,341.9,572.7,341.8,572.7z"/></g><g><path class="st16" d="M145.2,716.4c-0.7,0-1.4,0-2.1,0c-4.1-0.1-7.4-3.6-7.3-7.7c0.1-4.1,3.6-7.4,7.7-7.3     c3.3,0.1,6.2-0.1,8.8-0.6c6.8-1.2,12.3-4.7,14.7-9.3c2.1-4.2,2.1-9.9,2.1-15.5c0-7.7-0.1-15.4-0.1-23.1c0-10.2-0.4-19-5.2-25     c-3.5-4.5-8.9-6.3-12.8-7c-4.1-0.8-6.8-4.7-6-8.7s4.7-6.8,8.7-6c9.2,1.7,16.7,6,21.8,12.4c8.3,10.5,8.4,24.2,8.4,34.2     c0,7.7,0,15.4,0.1,23.1c0,6.6,0,14.9-3.8,22.3c-4.5,8.8-14,15.2-25.4,17.2C151.9,716.1,148.7,716.4,145.2,716.4z"/></g><g><path class="st16" d="M245.1,536.2c-3.5,0-6.6-2.5-7.3-6l-33.6-168.7l-1-0.2c-9.1-1.9-18.2-3.8-27.2-5.6c-3-0.6-5.3-3-5.9-6     c-0.6-3,0.7-6,3.3-7.7c10.3-6.7,20.5-13.3,30.8-20l-20.1-2.5c-3.4-0.4-6.1-3.2-6.5-6.6c-2.2-20-6.5-40.5-10.6-60.3     c-4.2-20.2-8.6-41-10.9-61.7c-0.5-4.1,2.5-7.8,6.6-8.3c4.1-0.5,7.8,2.5,8.3,6.6c2.2,20,6.5,40.5,10.6,60.3     c3.8,18.3,7.7,37.1,10.2,55.8l34.7,4.4c3.1,0.4,5.7,2.7,6.4,5.8c0.7,3.1-0.6,6.3-3.2,8c-10.9,7.1-21.8,14.1-32.7,21.2     c3.1,0.6,6.2,1.3,9.4,1.9l5.9,1.2c2.9,0.6,5.2,2.9,5.8,5.9l34.6,173.6c0.8,4.1-1.8,8-5.9,8.8     C246.1,536.1,245.6,536.2,245.1,536.2z"/></g><g><path class="st8" d="M152.2,192.4c26.4,8,45.2-28.9,18.1-41.3C142.6,138.3,121.3,183,152.2,192.4z"/></g></g><g class="st3"><path class="st16" d="M111.1,149c-1.4,0-2.7-0.4-4-1.1l-18.4-11.5c-3.5-2.2-4.6-6.8-2.4-10.3c2.2-3.5,6.8-4.6,10.3-2.4l18.4,11.5    c3.5,2.2,4.6,6.8,2.4,10.3C116.1,147.8,113.6,149,111.1,149z"/></g><g class="st3"><path class="st16" d="M149.6,125.8c-3.2,0-6.1-2-7.2-5.2l-8.3-26.2c-1.2-4,0.9-8.2,4.9-9.4c4-1.2,8.2,0.9,9.4,4.9l8.3,26.2    c1.2,4-0.9,8.2-4.9,9.4C151.1,125.7,150.4,125.8,149.6,125.8z"/></g><g class="st3"><path class="st16" d="M189.2,128.8c-2.1,0-4.3-0.9-5.7-2.7c-2.7-3.2-2.3-7.9,0.9-10.6l17.9-15.1c3.2-2.7,7.9-2.3,10.6,0.9    c2.7,3.2,2.3,7.9-0.9,10.6L194.1,127C192.7,128.2,191,128.8,189.2,128.8z"/></g></g></svg>