<?xml version="1.0" ?><svg width="960px" height="960px" viewBox="0 0 960 960" style="enable-background:new 0 0 960 960;" version="1.1" xml:space="preserve" xmlns="http://www.w3.org/2000/svg" xmlns:xlink="http://www.w3.org/1999/xlink"><style type="text/css">
	.st0{display:none;}
	.st1{display:inline;opacity:0.93;}
	.st2{display:inline;fill:none;stroke:#000000;stroke-width:15;stroke-linecap:round;stroke-linejoin:round;stroke-miterlimit:10;}
	.st3{display:inline;}
	.st4{fill:none;stroke:#000000;stroke-width:15;stroke-linecap:round;stroke-linejoin:round;stroke-miterlimit:10;}
	.st5{display:inline;fill:none;stroke:#1A1D3F;stroke-width:15;stroke-linecap:round;stroke-linejoin:round;stroke-miterlimit:10;}
	.st6{fill:#DDEDE7;}
	.st7{fill:#1A1D3F;}
	.st8{fill:#E9B44D;}
	.st9{fill:#ED644E;}
	.st10{fill:#494EDF;}
	.st11{fill:#3DC5A1;}
	.st12{fill:#F6CEC1;}
	.st13{fill:none;}
	.st14{fill:none;stroke:#1A1D3F;stroke-width:15;stroke-linecap:round;stroke-linejoin:round;stroke-miterlimit:10;}
	.st15{display:inline;fill:#E9B44D;}
	.st16{fill:#222222;}
	.st17{display:inline;fill:#222222;}
</style><g class="st0" id="guide"/><g class="st0" id="sketch"/><g class="st0" id="stroke"><path class="st2" d="M596.6,318.1c0.9-8.2,1.7-16.5,2.6-24.7"/><path class="st2" d="M589.4,391.5c-0.8,8.8-1.5,17.5-2.2,26.1c55.7-16.8,124.6,1.3,171.9,35c47.4,33.7,77.9,90,80.2,148.2   c-163-25.5-336.1-56.6-499-82.1c15-113.6,37.3-237.9,52.3-351.5c72,9.2,143.9,18.5,215.9,27.7c-0.6,8.1-1.3,16.4-2.1,24.8"/><path class="st2" d="M340.3,518.6c-4.2,23.4-5.8,38.5-10,61.9c218.9,37,275.7,46.2,504.1,78.6c1-20.8,3.9-37.6,4.9-58.4"/><path class="st2" d="M691.7,576.8c2-49.3,14.7-98.2,36.7-142.4"/><path class="st2" d="M605.7,219.5c10.7,1.1,18.3,1.7,23.7,9.7c6.1,9,4.7,23.5,2.1,33.4c-2.9,10.9-4.5,23.4-16.4,28.4   c-8.1,3.4-17.9,2.5-27,1.6c-15.2-1.6-30.3-3.2-45.5-4.8c-10.3-1.1-21.6-2.5-28.9-9c-6.4-5.6-8.1-13.7-9.4-21.2   c-1.8-10.9,0.1-26.7,4.7-32.6c6.4-8.2,19.2-10.4,31.2-10C552.2,215.4,594.9,218.4,605.7,219.5z"/><path class="st2" d="M512.1,317.8c-11.3,6-14.4,20.4-16.3,33c-1.4,9.3-2.5,20,3.8,27.1c5.5,6.2,14.5,7.2,22.7,7.9   c22.5,1.9,44.9,3.8,67.4,5.6c7.3,0.6,15.1,1.1,21.3-2.8c7.5-4.8,7.7-14.7,9.5-23.4c2.1-10,2-21.3-0.3-31.3   c-3.8-17.1-22.4-15.5-49.4-18.3C541,312.6,528.3,309.2,512.1,317.8z"/><path class="st2" d="M259.1,672c-5,25.2,5.2,52.8,25.3,68.8c20.1,16,49.3,19.7,72.7,9.1c42.6-19.1,48.6-67.9,32.4-107.1   c-14.4-34.9-51.4-39.6-84.2-25.9C282.4,626.6,264,647.3,259.1,672z"/><path class="st2" d="M306.5,676.1c-3.8,11.7,2.9,25.8,14.4,30.2c11.5,4.4,25.9-1.6,30.9-12.9C365.5,662.2,317,644,306.5,676.1z"/><path class="st2" d="M493.3,690.4c-14.2,22.8-13.6,54,1.5,76.3c15.1,22.3,43.8,34.4,70.3,29.6c26.5-4.7,49.2-26.1,55.7-52.2   c3.7-15,2.2-31.3-3.8-45.5c-8.8-20.8-31.9-44.4-56.2-43C534.4,657.1,507.8,667.1,493.3,690.4z"/><path class="st2" d="M532.2,707.9c-7.2,8-7.5,21.2-1,29.8c6.5,8.6,19.1,11.8,29.1,7.8c7.6-3,13.7-10,14.8-18.1   C578.2,704.8,547.1,691.4,532.2,707.9z"/><path class="st2" d="M724.5,719.5c-17.3,25.5-17,61.9,1.1,86.9c18,25,52.5,36.9,82.1,28.1c29.5-8.9,51.8-38,52.4-68.9   c0.6-31.1-23.8-63.5-51.6-76.6C780.2,675.7,740.6,695.8,724.5,719.5z"/><path class="st2" d="M776,741.2c-4.6,1.9-8.1,6.1-10,10.7c-3.4,8.2-2,18.2,3.7,25s15.7,9.7,24.1,6.8c8.4-2.9,14.4-11.6,13.9-20.5   C806.9,751.2,788,736.2,776,741.2z"/><path class="st2" d="M117.4,333c63.5,0.2,127.1,0.4,190.6,0.6"/><path class="st2" d="M173.2,407.6c37.2,0,74.5,0,111.7,0"/><path class="st2" d="M78.9,492c57.8,0,115.5-0.1,173.3-0.1"/></g><g id="outline"><path d="M763.5,446.5c-9.6-6.9-20.1-13.1-31.2-18.5c-0.2-0.1-1-0.5-1.2-0.6c-16.9-8.2-35-14.6-53.2-18.6c-29-6.4-57.2-6.8-82.4-1.2   c0.2-2.7,0.5-5.5,0.7-8.3c0.4,0,0.7,0,1.1,0c5.7,0,12.1-0.9,17.8-4.4c8.9-5.7,10.6-15.5,11.9-23.4c0.3-1.6,0.6-3.2,0.9-4.7   c2.3-11,2.2-23.3-0.3-34.5c-2.9-12.6-11.4-17.8-22.7-20.3c0.4-3.7,0.8-7.5,1.2-11.2c4.1-0.3,8.2-1.2,12.1-2.8   c14-5.9,17.2-19.1,19.8-29.8c0.3-1.2,0.6-2.5,0.9-3.7c2-7.6,5.6-26.5-3.1-39.5c-5.6-8.2-13-10.8-21.1-12c0.6-6.5,1-12.2,1.4-17.6   c0.3-4-2.6-7.5-6.5-8c-72-9.2-143.9-18.5-215.9-27.7c-4.1-0.5-7.9,2.4-8.4,6.5c-7.5,56.7-17,117.1-26.1,175.6   c-9.2,58.5-18.7,118.9-26.2,175.8c-2.1,11.7-3.6,21.5-5,31c-1.4,9.4-2.9,19.2-5,30.8c-0.4,2,0.1,4,1.3,5.6c1.2,1.6,2.9,2.7,4.9,3.1   c222,37.5,279.5,46.7,504.3,78.7c0.4,0,0.7,0.1,1.1,0.1c1.7,0,3.4-0.6,4.8-1.7c1.6-1.3,2.6-3.3,2.7-5.4c0.5-10.2,1.5-19.6,2.4-28.8   c1-9.3,2-19,2.5-29.6c0-0.2,0-0.3,0-0.4c0-0.1,0-0.1,0-0.2c0,0,0,0,0-0.1c0,0,0-0.1,0-0.1c-1.2-29.6-9.6-59.4-24.1-86.3   C808.1,487,787.6,463.7,763.5,446.5z M612.9,335.6c2,9.1,2.1,19.3,0.3,28.1c-0.4,1.8-0.7,3.5-1,5.3c-1.2,7-2.2,11.4-5.2,13.3   c-4,2.5-9.9,2.3-16.6,1.7l-67.4-5.6c-7-0.6-14.2-1.5-17.7-5.4c-4.1-4.6-3.2-13.3-2-21c1.8-11.8,4.5-23.3,12.4-27.5   c6.3-3.4,12-4.6,19.2-4.6c5.9,0,12.8,0.8,22,1.9c3.9,0.5,8.3,1,13.1,1.5c4.3,0.4,8.3,0.8,12.2,1.1C603.9,326,611,327.3,612.9,335.6   z M605.3,227c10.3,1,14.7,1.6,17.9,6.4c4.3,6.4,3.4,18.3,1.1,27.3c-0.3,1.3-0.7,2.6-1,3.9c-2.5,10.3-4.4,16.7-11.1,19.5   c-3.7,1.6-8.2,1.9-12.8,1.8c-0.1,0-0.2,0-0.3,0c-3.5-0.1-7-0.5-10.2-0.8l-45.5-4.8c-9.9-1-19.3-2.4-24.7-7.1   c-4.5-4-5.8-10.2-6.9-16.8c-1.6-9.9,0.5-23.2,3.2-26.7c3.6-4.6,11.9-7.2,22.9-7.2c0.7,0,1.4,0,2.2,0c11.8,0.3,54.2,3.4,64.9,4.5   L605.3,227z M373.8,344c8.8-56,17.9-113.8,25.2-168.5c67.1,8.6,134.3,17.2,201.4,25.9c-0.3,3.2-0.5,6.5-0.8,10.1   c-16.2-1.3-48.9-3.6-59.1-3.9c-12.1-0.4-28.4,1.6-37.3,12.9c-6.4,8.1-8.2,26.3-6.2,38.4c1.4,8.6,3.6,18.4,11.8,25.6   c8.7,7.7,20.6,9.5,33,10.8l45.5,4.8c1.2,0.1,2.4,0.2,3.6,0.4c-0.3,3.2-0.7,6.3-1,9.5c-2.1-0.2-4.3-0.4-6.5-0.6   c-3.8-0.3-7.7-0.6-11.9-1.1c-4.7-0.5-9.1-1-12.9-1.4c-21.4-2.5-34.4-4-50,4.4c-15.6,8.3-18.6,28-20.2,38.5c-1.2,8-3.5,23,5.6,33.2   c7.8,8.8,20.2,9.8,27.7,10.4l59.5,5c-0.5,6.3-1.1,12.6-1.5,18.7c-0.2,2.5,0.8,4.9,2.8,6.4c1.9,1.6,4.5,2.1,6.9,1.3   c38.1-11.5,86.3-6,129,13.2c-19.3,40.9-30.8,85.5-33.7,130.1c-31.4-5.2-62.7-10.5-93.6-15.7c-80.2-13.5-163-27.5-242.4-39.9   C356,457.7,365.1,400,373.8,344z M829.4,629.2c-0.7,6.9-1.5,13.9-2,21.4C611.9,620,552.1,610.4,339,574.4   c1.5-8.6,2.6-16.3,3.7-23.7c1.1-7.4,2.3-15,3.7-23.5c79.2,12.5,162,26.4,242.1,39.9c33.7,5.7,67.8,11.4,102,17.1c0,0,0.1,0,0.1,0   c47.3,7.9,94.6,15.6,140.8,22.9C830.9,614.8,830.2,622.1,829.4,629.2z M699.5,570.5c2.6-43.1,13.7-86.3,32.3-125.9   c7.9,4.2,15.6,8.9,22.9,14.1c42.8,30.5,71.5,80.8,76.5,133.2C788,585.1,743.8,577.8,699.5,570.5z M279.7,746.7   c13.8,11,31.4,16.7,49,16.7c10.8,0,21.6-2.1,31.4-6.6c46.9-21,53.7-74.7,36.3-116.8c-6.4-15.5-17.5-26.9-32-32.8   c-17.7-7.3-40.3-6.2-62,2.9c-26.1,10.9-45.5,34.1-50.7,60.6C246.3,698.4,257.5,729,279.7,746.7z M266.5,673.5   c4.2-21.6,20.2-40.6,41.8-49.6c10.4-4.3,20.8-6.5,30.5-6.5c7.2,0,14,1.2,20,3.7c10.9,4.5,18.9,12.8,23.8,24.7   c7.7,18.7,9.7,39.3,5.5,56.4c-3.2,13.2-11.8,31-34.1,41c-20.9,9.4-47,6.1-65-8.2C271.1,720.7,262,696,266.5,673.5z M318.2,713.3   c3.5,1.3,7.1,2,10.8,2c12.4,0,24.6-7.3,29.7-18.9c5-11.3,3.8-22.9-3.2-31.9c-7.4-9.5-20.4-14.4-32.3-12.3   c-11.2,2-19.9,9.8-23.7,21.5C294.3,689.4,302.9,707.5,318.2,713.3z M313.7,678.4c2.7-8.2,8-10.7,12.1-11.4   c6.5-1.1,13.9,1.7,17.9,6.8c3.6,4.6,4,10.3,1.3,16.6c-3.4,7.7-13.5,11.9-21.3,8.9C315.8,696.3,311.1,686.4,313.7,678.4z M599.5,663   c-12.5-10.5-26.1-15.7-39.2-14.9c-33.2,1.9-59.2,15.5-73.4,38.4c-15.7,25.2-15,59.9,1.7,84.4c14.2,21,39.8,33.9,65.1,33.9   c4.3,0,8.5-0.4,12.7-1.1c29.2-5.2,54.5-29,61.6-57.8c4.1-16.5,2.6-34.3-4.2-50.2C618.8,683.6,610,671.7,599.5,663z M613.5,742.3   c-5.7,23.2-26.2,42.4-49.7,46.6c-23.5,4.2-49.4-6.7-62.8-26.5s-14-47.8-1.3-68.1c15.6-25.1,45.3-30.4,61.6-31.3   c19.7-1.1,40.7,19.1,48.8,38.5C615.6,714.5,616.8,729,613.5,742.3z M563.9,696.4c-13.2-6.1-28.2-3.5-37.3,6.5   c-9.6,10.6-10.2,27.9-1.4,39.4c6.1,8,16,12.5,26,12.5c4,0,8-0.7,11.8-2.2c10.4-4.1,18.1-13.6,19.5-24.1   C584.3,715,577.1,702.4,563.9,696.4z M567.7,726.4c-0.7,5.2-4.8,10-10.1,12.1c-7,2.8-16,0.4-20.4-5.4c-4.4-5.7-4.1-15,0.6-20.2   c3.2-3.6,7.3-4.9,11.3-4.9c3.1,0,6.1,0.8,8.5,1.9C563.2,712.5,568.8,718.2,567.7,726.4z M811.6,682.2c-14.9-7-33.5-6.6-52.6,1.2   c-16.6,6.8-31.9,18.7-40.8,31.9c-9.2,13.6-14.2,30.6-14,47.9c0.2,17.3,5.6,34.2,15.2,47.6c15.4,21.5,41.8,34.1,68,34.1   c7.5,0,15.1-1,22.3-3.2c32.8-9.9,57.1-41.8,57.7-75.9C868.1,733.4,844.1,697.5,811.6,682.2z M805.5,827.3   c-26.5,8-57.6-2.6-73.8-25.3c-16.1-22.4-16.5-55.4-0.9-78.3c18.2-26.9,55-37.1,74.5-27.9c27,12.7,47.8,43.3,47.3,69.7   C852,792.8,831.8,819.4,805.5,827.3z M797.8,738c-8.5-5.3-17.5-6.7-24.6-3.8c0,0,0,0,0,0c-6.1,2.5-11.3,7.9-14.1,14.8   c-4.5,10.8-2.5,24,4.9,32.7c5.7,6.8,14.4,10.5,23.1,10.5c3.1,0,6.2-0.5,9.2-1.5c11.7-4.1,19.7-15.9,18.9-28.1   C814.6,753.9,807.8,744.2,797.8,738z M791.3,776.6c-5.4,1.9-12.1-0.1-15.9-4.6c-3.8-4.5-4.8-11.6-2.5-17.3c1.3-3.2,3.5-5.6,6-6.6   c2.5-1,6.7,0,11,2.6c6.2,3.8,10.1,9.6,10.3,12.9C800.5,769,796.6,774.7,791.3,776.6z M109.9,332.9c0-4.1,3.4-7.5,7.5-7.5   c0,0,0,0,0,0l190.6,0.6c4.1,0,7.5,3.4,7.5,7.5c0,4.1-3.4,7.5-7.5,7.5c0,0,0,0,0,0l-190.6-0.6C113.2,340.5,109.9,337.1,109.9,332.9z    M284.9,415.1H173.2c-4.1,0-7.5-3.4-7.5-7.5s3.4-7.5,7.5-7.5h111.7c4.1,0,7.5,3.4,7.5,7.5S289,415.1,284.9,415.1z M252.2,499.4   l-173.3,0.1c0,0,0,0,0,0c-4.1,0-7.5-3.4-7.5-7.5c0-4.1,3.4-7.5,7.5-7.5l173.3-0.1c0,0,0,0,0,0c4.1,0,7.5,3.4,7.5,7.5   C259.7,496,256.3,499.4,252.2,499.4z"/></g><g class="st0" id="flat"><g class="st3"><g><g><g><g><g><g><g><g><path class="st7" d="M305.3,616.9c-23,9.6-41.4,30.4-46.2,55.1c-5,25.2,5.2,52.8,25.3,68.8c20.1,16,49.3,19.7,72.7,9.1            c42.6-19.1,48.6-67.9,32.4-107.1C375.1,608,338.1,603.2,305.3,616.9z"/></g></g></g></g></g></g></g></g><g><g><g><g><g><g><g><g><path class="st7" d="M560.8,655.5c-26.4,1.5-53,11.5-67.5,34.8c-14.2,22.8-13.6,54,1.5,76.3            c15.1,22.3,43.8,34.4,70.3,29.6c26.5-4.7,49.2-26.1,55.7-52.2c3.7-15,2.2-31.3-3.8-45.5            C608.2,677.8,585.1,654.1,560.8,655.5z"/></g></g></g></g></g></g></g></g><g><g><g><g><g><g><g><g><path class="st7" d="M808.4,689c-28.2-13.3-67.9,6.8-83.9,30.5c-17.3,25.5-17,61.9,1.1,86.9c18,25,52.5,36.9,82.1,28.1            c29.5-8.9,51.8-38,52.4-68.9C860.6,734.5,836.3,702.1,808.4,689z"/></g></g></g></g></g></g></g></g><g><g><g><g><g><g><g><g><path class="st6" d="M306.5,676.1c-3.8,11.7,2.9,25.8,14.4,30.2c11.5,4.4,25.9-1.6,30.9-12.9            C365.5,662.2,317,644,306.5,676.1z"/></g></g></g></g></g></g></g></g><g><g><g><g><g><g><g><g><path class="st6" d="M532.2,707.9c-7.2,8-7.5,21.2-1,29.8s19.1,11.8,29.1,7.8c7.6-3,13.7-10,14.8-18.1            C578.2,704.8,547.1,691.4,532.2,707.9z"/></g></g></g></g></g></g></g></g><g><g><g><g><g><g><g><g><path class="st6" d="M807.7,763.2c-0.8-12-19.7-26.9-31.6-22c-4.6,1.9-8.1,6.1-10,10.7c-3.4,8.2-2,18.2,3.7,25            c5.7,6.7,15.7,9.7,24.1,6.8C802.2,780.7,808.2,772,807.7,763.2z"/></g></g></g></g></g></g></g></g><g><g><g><g><g><g><g><g><path class="st7" d="M308,341.1C308,341.1,308,341.1,308,341.1l-190.7-0.6c-4.1,0-7.5-3.4-7.5-7.5c0-4.1,3.4-7.5,7.5-7.5            c0,0,0,0,0,0l190.6,0.6c4.1,0,7.5,3.4,7.5,7.5C315.5,337.7,312.1,341.1,308,341.1z"/></g></g></g></g></g></g></g></g><g><g><g><g><g><g><g><g><path class="st7" d="M284.9,415.1H173.2c-4.1,0-7.5-3.4-7.5-7.5s3.4-7.5,7.5-7.5h111.7c4.1,0,7.5,3.4,7.5,7.5            S289,415.1,284.9,415.1z"/></g></g></g></g></g></g></g></g><g><g><g><g><g><g><g><g><path class="st7" d="M78.9,499.5c-4.1,0-7.5-3.4-7.5-7.5c0-4.1,3.4-7.5,7.5-7.5l173.3-0.1c0,0,0,0,0,0            c4.1,0,7.5,3.4,7.5,7.5c0,4.1-3.4,7.5-7.5,7.5L78.9,499.5C78.9,499.5,78.9,499.5,78.9,499.5z"/></g></g></g></g></g></g></g></g><g><g><g><g><g><g><g><g><g><path class="st9" d="M728.4,434.4c0,0-28,99.9-29.9,149.2c-117.5-19.6-358.2-65-358.2-65c15-113.6,37.3-237.9,52.3-351.5             c72,9.2,143.9,18.5,215.9,27.7c-0.6,8.1-20.7,214.2-21.3,222.7C631.7,404.1,684.7,413,728.4,434.4z"/></g></g></g></g></g></g></g></g></g><g><g><g><g><g><g><g><g><g><path class="st10" d="M631.5,262.6c-2.9,10.9-4.5,23.4-16.4,28.4c-4.9,2.1-10.3,2.5-16,2.4c-3.7-0.1-7.4-0.5-11.1-0.8             c-15.2-1.6-30.3-3.2-45.5-4.8c-10.3-1.1-21.6-2.5-28.9-9c-6.4-5.6-8.1-13.7-9.4-21.2c-1.8-10.9,0-26.7,4.7-32.6             c6.4-8.2,19.2-10.4,31.2-10c12,0.4,54.6,3.4,65.4,4.5c0.2,0,18.5,1.9,23.7,9.7C635.5,238.2,634.1,252.7,631.5,262.6z"/></g></g></g></g></g></g></g></g></g><g><g><g><g><g><g><g><g><g><path class="st10" d="M620.5,365.3c-1.8,8.7-2,18.6-9.5,23.4c-6.1,3.9-14,3.4-21.3,2.8c-0.1,0-0.2,0-0.3,0             c-22.4-1.9-44.7-3.7-67-5.6c-8.2-0.7-17.2-1.8-22.7-7.9c-6.3-7.1-5.2-17.8-3.8-27.1c1.9-12.6,5-27,16.3-33             c16.2-8.6,28.9-5.2,58.7-2.1c9.8,1,18.5,1.4,25.8,2.4c12.8,1.7,21.2,5,23.6,15.8C622.5,344,622.6,355.2,620.5,365.3z"/></g></g></g></g></g></g></g></g></g><g><g><g><g><g><g><g><g><path class="st8" d="M759.1,452.6c-9.5-6.7-19.8-12.8-30.7-18.2c-22,44.2-34.8,93.1-36.7,142.4            c-117.5-19.6-236.9-40.3-351.4-58.2c-4.2,23.4-5.8,38.5-10,61.9c218.9,37,275.7,46.2,504.1,78.6            c1.8-22.8,3.9-37.6,4.9-58.4C837,542.6,806.5,486.3,759.1,452.6z"/></g></g></g></g></g></g></g></g><g><g><g><g><g><g><g><path class="st7" d="M840.5,593.3c-46.1-7.2-93.5-15-140.9-22.8c2.7-45.6,15-91.3,35.6-132.7c1.8-3.7,0.3-8.2-3.4-10.1           c-3.7-1.8-8.2-0.3-10.1,3.4c-21.3,42.7-34,89.9-37,136.9c-31.4-5.2-62.7-10.5-93.6-15.7c-82.6-13.9-168.1-28.3-249.6-41.1           c-4.1-0.6-7.9,2.2-8.6,6.3c-0.6,4.1,2.2,7.9,6.3,8.6c81.4,12.7,166.8,27.1,249.4,41.1c82.6,13.9,168.1,28.3,249.6,41.1           c0.4,0.1,0.8,0.1,1.2,0.1c3.6,0,6.8-2.6,7.4-6.3C847.4,597.8,844.6,594,840.5,593.3z"/></g></g></g></g></g></g></g><g><g><g><g><g><g><g><g><path class="st7" d="M588.1,300.1c-0.3,0-0.5,0-0.8,0l-45.5-4.8c-12.4-1.3-24.3-3.1-33-10.8c-8.2-7.2-10.4-17-11.8-25.6            c-2.5-15.6,1.3-32.1,6.2-38.4c8.9-11.3,25.2-13.3,37.3-12.9c12,0.4,55.1,3.4,65.9,4.5c4.1,0.4,7.1,4.1,6.7,8.2            s-4.1,7.1-8.2,6.7c-10.7-1.1-53.1-4.1-64.9-4.5c-12.1-0.4-21.2,2.3-25.1,7.2c-2.8,3.5-4.8,16.8-3.2,26.7            c1.1,6.6,2.4,12.8,6.9,16.8c5.4,4.8,14.8,6.1,24.7,7.1l45.5,4.8c4.1,0.4,7.1,4.1,6.7,8.2            C595.1,297.2,591.9,300.1,588.1,300.1z"/></g></g></g></g></g></g></g></g><g><g><g><g><g><g><g><g><path class="st7" d="M589.7,399c-0.2,0-0.4,0-0.6,0l-67.4-5.6c-7.4-0.6-19.9-1.7-27.7-10.4c-9.1-10.3-6.8-25.2-5.6-33.2            c1.6-10.6,4.6-30.2,20.2-38.5c15.7-8.4,28.6-6.9,50-4.4c3.9,0.4,8.2,1,12.9,1.4c4.1,0.4,7.1,4.1,6.7,8.2s-4.1,7.1-8.2,6.7            c-4.8-0.5-9.2-1-13.1-1.5c-20.4-2.4-29.7-3.4-41.2,2.7c-7.9,4.2-10.6,15.7-12.4,27.5c-1.2,7.7-2.1,16.4,2,21            c3.5,3.9,10.7,4.8,17.7,5.4l67.4,5.6c4.1,0.3,7.2,4,6.8,8.1C596.9,396,593.6,399,589.7,399z"/></g></g></g></g></g></g></g></g></g></g><g class="st0" id="colored_x5F_line"><g class="st3"><path class="st8" d="M587.2,417.6c0.1-1.7,1.1-11.5,2.5-26.1c-22.4-1.9-44.9-3.8-67.3-5.6c-8.2-0.7-17.2-1.8-22.7-7.9    c-6.3-7.1-5.2-17.8-3.8-27.1c1.9-12.6,5-27,16.3-33c16.2-8.6,28.9-5.2,58.7-2.1c9.9,1,18.6,1.5,25.9,2.4    c0.8-8.2,1.6-16.5,2.4-24.7c-3.7-0.1-7.4-0.5-11-0.8c-15.2-1.6-30.3-3.2-45.5-4.8c-10.3-1.1-21.6-2.5-28.9-9    c-6.4-5.6-8.1-13.7-9.4-21.2c-1.8-10.9,0.1-26.7,4.7-32.6c6.4-8.2,19.2-10.4,31.2-10c12,0.4,54.6,3.4,65.4,4.5c0.2,0,0.3,0,0.5,0    c1.3-13.9,2.2-23.1,2.3-24.7c-72-9.2-143.9-18.5-215.9-27.7c-15,113.6-37.3,237.9-52.3,351.5c0,0,234,38.6,351.4,58.2    c-8.2-51.3,29.1-143.9,36.7-142.4C684.7,413,631.7,404.1,587.2,417.6z"/></g><path class="st17" d="M822.7,513.9c-14.6-26.9-35.1-50.3-59.2-67.5c-10.1-7.2-21.1-13.2-31.5-18.7c-1.8-1-4-1.1-5.9-0.5   c-1.9,0.6-3.4,2-4.3,3.8c-21.4,43-33.7,89-36.7,136.9c-136.5-22.5-314.9-52-343.5-56.7c-5-0.7-7.7,1.6-8.6,6.1   c-2.1,11.8-3.6,21.6-5,31.2c-1.4,9.4-2.9,19.2-5,30.8c-0.4,2,0.1,4,1.3,5.6c1.2,1.6,2.9,2.7,4.9,3.1   c222,37.5,279.5,46.7,504.3,78.7c0.4,0,0.7,0.1,1.1,0.1c1.7,0,3.4-0.6,4.8-1.7c1.6-1.3,2.6-3.3,2.7-5.4c0.5-10.2,1.5-19.6,2.4-28.8   c1-9.3,2.5-30.4,2.5-30.4C845.6,570.7,837.3,540.8,822.7,513.9z M731.8,444.7c7.8,4.3,15.8,8.8,23,14   c42.8,30.5,71.5,80.8,76.5,133.2c-23.1-3.7-72.4-11.8-131.3-21.5C702.4,526.6,713.1,484.3,731.8,444.7z M829.4,629.2   c-0.7,6.9-1.5,13.9-2,21.4C611.9,620,552.1,610.4,339,574.4c1.5-8.6,2.6-16.3,3.7-23.7c1.1-7.4,2.3-15,3.7-23.5   c67.5,11.2,417,69,485,79.9C830.9,614.8,830.2,622.1,829.4,629.2z"/><g class="st3"><path class="st16" d="M600.9,300.9c-4.8,0-9.4-0.5-13.6-0.9l-45.5-4.8c-12.4-1.3-24.3-3.1-33-10.8c-8.2-7.2-10.4-17-11.8-25.6    c-2-12.2-0.2-30.3,6.2-38.4c8.9-11.3,25.2-13.3,37.3-12.9c12,0.4,55.1,3.4,65.9,4.5c0,0,0,0,0,0l0.4,0    c11.1,1.1,21.5,2.2,28.8,12.9c8.8,12.9,5.1,31.9,3.1,39.5c-0.3,1.2-0.6,2.4-0.9,3.7c-2.6,10.6-5.8,23.9-19.8,29.8    C612.5,300.2,606.6,300.9,600.9,300.9z M537.9,222.5c-11,0-19.3,2.6-22.9,7.2c-2.8,3.5-4.8,16.8-3.2,26.7    c1.1,6.6,2.4,12.8,6.9,16.8c5.4,4.8,14.8,6.1,24.7,7.1l45.5,4.8c7.5,0.8,16.8,1.8,23.3-1c6.7-2.8,8.6-9.3,11.1-19.5    c0.3-1.3,0.6-2.6,1-3.9c2.3-9,3.3-20.9-1.1-27.3c-3.2-4.7-7.5-5.3-17.9-6.4l-0.4,0c-10.7-1.1-53.1-4.1-64.9-4.5    C539.3,222.5,538.6,222.5,537.9,222.5z"/></g><g class="st3"><path class="st16" d="M597.3,399.4c-3,0-5.8-0.2-8.2-0.4l-67.4-5.6c-7.4-0.6-19.9-1.7-27.7-10.4c-9.1-10.3-6.8-25.2-5.6-33.2    c1.6-10.6,4.6-30.2,20.2-38.5c15.7-8.4,28.6-6.9,50-4.4c3.9,0.4,8.2,1,12.9,1.4c4.2,0.4,8.1,0.7,11.9,1.1    c21.3,1.7,39.6,3.2,44.1,23c2.5,11.3,2.7,23.5,0.3,34.5c-0.3,1.5-0.6,3-0.9,4.7c-1.4,7.9-3.1,17.8-11.9,23.4    C609.4,398.5,603,399.4,597.3,399.4z M534.9,319.8c-7.2,0-12.9,1.2-19.2,4.6l0,0c-7.9,4.2-10.6,15.7-12.4,27.5    c-1.2,7.7-2.1,16.4,2,21c3.5,3.9,10.7,4.8,17.7,5.4l67.4,5.6c6.8,0.6,12.7,0.8,16.6-1.7c3.1-2,4-6.3,5.2-13.3    c0.3-1.7,0.6-3.5,1-5.3c1.9-8.8,1.8-19-0.3-28.1c-1.9-8.3-9-9.6-30.7-11.4c-3.9-0.3-7.9-0.6-12.2-1.1c-4.8-0.5-9.2-1-13.1-1.5    C547.7,320.6,540.8,319.8,534.9,319.8z M512.1,317.8L512.1,317.8L512.1,317.8z"/></g><path class="st17" d="M389.5,642.8c-14.4-34.9-51.4-39.6-84.2-25.9c-23,9.6-41.4,30.4-46.2,55.1c-5,25.2,5.2,52.8,25.3,68.8   c20.1,16,49.3,19.7,72.7,9.1C399.7,730.8,405.8,682.1,389.5,642.8z M351.8,693.4c-5,11.3-19.4,17.3-30.9,12.9   c-11.5-4.4-18.2-18.5-14.4-30.2C317,644,365.5,662.2,351.8,693.4z"/><path class="st17" d="M617,698.6c-8.8-20.8-31.9-44.4-56.2-43c-26.4,1.5-53,11.5-67.5,34.8c-14.2,22.8-13.6,54,1.5,76.3   c15.1,22.3,43.8,34.4,70.3,29.6c26.5-4.7,49.2-26.1,55.7-52.2C624.5,729,623,712.8,617,698.6z M575.1,727.4   c-1.1,8.1-7.2,15.1-14.8,18.1c-10,4-22.5,0.7-29.1-7.8s-6.2-21.8,1-29.8C547.1,691.4,578.2,704.8,575.1,727.4z"/><path class="st17" d="M808.4,689c-28.2-13.3-67.9,6.8-83.9,30.5c-17.3,25.5-17,61.9,1.1,86.9c18,25,52.5,36.9,82.1,28.1   c29.5-8.9,51.8-38,52.4-68.9C860.6,734.5,836.3,702.1,808.4,689z M793.8,783.6c-8.4,2.9-18.3,0-24.1-6.8c-5.7-6.8-7.1-16.8-3.7-25   c1.9-4.6,5.4-8.8,10-10.7c11.9-4.9,30.8,10,31.6,22C808.2,772,802.2,780.7,793.8,783.6z"/><g class="st3"><path class="st16" d="M308,341.1C308,341.1,308,341.1,308,341.1l-190.7-0.6c-4.1,0-7.5-3.4-7.5-7.5c0-4.1,3.4-7.5,7.5-7.5    c0,0,0,0,0,0l190.6,0.6c4.1,0,7.5,3.4,7.5,7.5C315.5,337.7,312.1,341.1,308,341.1z"/></g><g class="st3"><path class="st16" d="M284.9,415.1H173.2c-4.1,0-7.5-3.4-7.5-7.5s3.4-7.5,7.5-7.5h111.7c4.1,0,7.5,3.4,7.5,7.5    S289,415.1,284.9,415.1z"/></g><g class="st3"><path class="st16" d="M78.9,499.5c-4.1,0-7.5-3.4-7.5-7.5c0-4.1,3.4-7.5,7.5-7.5l173.3-0.1c0,0,0,0,0,0c4.1,0,7.5,3.4,7.5,7.5    c0,4.1-3.4,7.5-7.5,7.5L78.9,499.5C78.9,499.5,78.9,499.5,78.9,499.5z"/></g></g></svg>